<svg width="1440" height="859" viewBox="0 0 1440 859" fill="none" xmlns="http://www.w3.org/2000/svg">
<g clip-path="url(#clip0_487_1691)">
<rect width="1440" height="859" fill="white"/>
<rect width="1440" height="859" fill="#072449"/>
<mask id="mask0_487_1691" style="mask-type:alpha" maskUnits="userSpaceOnUse" x="0" y="0" width="1440" height="859">
<rect width="1440" height="859" fill="#072449"/>
</mask>
<g mask="url(#mask0_487_1691)">
<circle cx="1273.5" cy="435.5" r="478" stroke="white" stroke-opacity="0.21"/>
<circle cx="1273.5" cy="435.5" r="311" stroke="white" stroke-opacity="0.21"/>
<circle cx="1273.5" cy="435.5" r="245.5" fill="#0A2B55"/>
<circle cx="1273.5" cy="435.5" r="186.5" fill="#0B3161"/>
<circle cx="1273.5" cy="435.5" r="122.5" fill="#0F4285"/>
<circle cx="1273.5" cy="435.5" r="650" stroke="white" stroke-opacity="0.21"/>
<circle cx="1273.5" cy="435.5" r="822" stroke="white" stroke-opacity="0.21"/>
<rect x="988.5" y="228.5" width="64" height="64" rx="32" fill="#072449"/>
<rect x="988.5" y="228.5" width="64" height="64" rx="32" stroke="#3B526F"/>
<path d="M1042 260.504C1042 257.656 1038.43 254.956 1032.96 253.282C1034.23 247.707 1033.66 243.272 1031.19 241.852C1030.62 241.519 1029.96 241.361 1029.23 241.361V243.316C1029.63 243.316 1029.96 243.395 1030.23 243.544C1031.42 244.227 1031.94 246.831 1031.53 250.179C1031.44 251.003 1031.28 251.871 1031.09 252.756C1029.37 252.335 1027.49 252.011 1025.52 251.8C1024.34 250.179 1023.11 248.706 1021.88 247.418C1024.73 244.762 1027.42 243.307 1029.24 243.307V241.352C1026.83 241.352 1023.67 243.07 1020.48 246.05C1017.29 243.088 1014.14 241.387 1011.73 241.387V243.342C1013.54 243.342 1016.23 244.788 1019.09 247.427C1017.86 248.715 1016.63 250.179 1015.47 251.8C1013.49 252.011 1011.61 252.335 1009.89 252.765C1009.69 251.888 1009.54 251.038 1009.44 250.223C1009.03 246.874 1009.54 244.271 1010.72 243.579C1010.98 243.421 1011.32 243.351 1011.73 243.351V241.396C1010.99 241.396 1010.32 241.554 1009.75 241.887C1007.28 243.307 1006.73 247.733 1008 253.291C1002.55 254.974 999 257.664 999 260.504C999 263.353 1002.57 266.053 1008.04 267.727C1006.77 273.302 1007.34 277.737 1009.81 279.157C1010.38 279.49 1011.04 279.648 1011.78 279.648C1014.19 279.648 1017.34 277.93 1020.54 274.95C1023.73 277.912 1026.88 279.613 1029.29 279.613C1030.03 279.613 1030.69 279.455 1031.27 279.122C1033.73 277.702 1034.29 273.275 1033.02 267.718C1038.45 266.044 1042 263.344 1042 260.504ZM1030.59 254.658C1030.26 255.789 1029.86 256.954 1029.41 258.12C1029.05 257.419 1028.67 256.718 1028.26 256.017C1027.85 255.315 1027.42 254.632 1026.99 253.966C1028.24 254.15 1029.44 254.377 1030.59 254.658ZM1026.57 263.993C1025.89 265.176 1025.19 266.298 1024.46 267.341C1023.16 267.455 1021.83 267.517 1020.5 267.517C1019.18 267.517 1017.85 267.455 1016.56 267.35C1015.83 266.307 1015.12 265.194 1014.43 264.019C1013.77 262.871 1013.16 261.705 1012.61 260.531C1013.16 259.356 1013.77 258.182 1014.43 257.033C1015.11 255.85 1015.81 254.728 1016.54 253.685C1017.84 253.571 1019.17 253.51 1020.5 253.51C1021.82 253.51 1023.15 253.571 1024.44 253.676C1025.17 254.719 1025.88 255.833 1026.57 257.007C1027.23 258.155 1027.84 259.321 1028.39 260.496C1027.84 261.67 1027.23 262.845 1026.57 263.993ZM1029.41 262.853C1029.88 264.028 1030.28 265.203 1030.61 266.342C1029.47 266.623 1028.26 266.859 1027 267.043C1027.43 266.368 1027.86 265.676 1028.27 264.966C1028.67 264.265 1029.05 263.555 1029.41 262.853ZM1020.52 272.206C1019.7 271.365 1018.89 270.427 1018.08 269.401C1018.87 269.436 1019.68 269.463 1020.49 269.463C1021.32 269.463 1022.13 269.445 1022.93 269.401C1022.14 270.427 1021.32 271.365 1020.52 272.206ZM1014 267.043C1012.75 266.859 1011.55 266.631 1010.4 266.351C1010.73 265.22 1011.13 264.054 1011.59 262.889C1011.95 263.59 1012.32 264.291 1012.73 264.992C1013.15 265.693 1013.57 266.377 1014 267.043ZM1020.47 248.803C1021.29 249.644 1022.1 250.582 1022.91 251.608C1022.12 251.573 1021.32 251.546 1020.5 251.546C1019.68 251.546 1018.86 251.564 1018.06 251.608C1018.85 250.582 1019.67 249.644 1020.47 248.803ZM1013.99 253.966C1013.56 254.64 1013.13 255.333 1012.73 256.043C1012.32 256.744 1011.95 257.445 1011.59 258.147C1011.11 256.972 1010.71 255.797 1010.38 254.658C1011.52 254.386 1012.73 254.15 1013.99 253.966ZM1006.06 264.94C1002.95 263.616 1000.95 261.881 1000.95 260.504C1000.95 259.128 1002.95 257.384 1006.06 256.069C1006.81 255.745 1007.63 255.456 1008.48 255.184C1008.98 256.902 1009.64 258.69 1010.46 260.522C1009.65 262.345 1009 264.124 1008.51 265.834C1007.64 265.562 1006.82 265.264 1006.06 264.94ZM1010.77 277.465C1009.58 276.782 1009.06 274.178 1009.47 270.83C1009.56 270.006 1009.72 269.138 1009.91 268.253C1011.63 268.674 1013.51 268.998 1015.48 269.208C1016.66 270.83 1017.89 272.302 1019.12 273.591C1016.27 276.247 1013.58 277.702 1011.76 277.702C1011.37 277.693 1011.03 277.614 1010.77 277.465ZM1031.56 270.786C1031.97 274.134 1031.46 276.738 1030.28 277.43C1030.02 277.588 1029.68 277.658 1029.27 277.658C1027.46 277.658 1024.77 276.212 1021.91 273.573C1023.14 272.285 1024.37 270.821 1025.53 269.2C1027.51 268.989 1029.39 268.665 1031.11 268.235C1031.31 269.121 1031.46 269.971 1031.56 270.786ZM1034.94 264.94C1034.18 265.264 1033.36 265.553 1032.51 265.825C1032.01 264.107 1031.35 262.319 1030.54 260.487C1031.34 258.664 1031.99 256.884 1032.48 255.175C1033.35 255.447 1034.17 255.745 1034.94 256.069C1038.05 257.393 1040.05 259.128 1040.05 260.504C1040.05 261.881 1038.04 263.625 1034.94 264.94Z" fill="#61DAFB"/>
<path d="M1020.49 264.51C1022.7 264.51 1024.5 262.717 1024.5 260.504C1024.5 258.292 1022.7 256.499 1020.49 256.499C1018.28 256.499 1016.49 258.292 1016.49 260.504C1016.49 262.717 1018.28 264.51 1020.49 264.51Z" fill="#61DAFB"/>
<rect x="1346.5" y="115.5" width="64" height="64" rx="32" fill="#072449"/>
<rect x="1346.5" y="115.5" width="64" height="64" rx="32" stroke="#3B526F"/>
<g clip-path="url(#clip1_487_1691)">
<path d="M1399.83 153.944C1399.58 153.151 1398.9 152.599 1398.03 152.467C1397.62 152.405 1397.14 152.431 1396.59 152.548C1395.61 152.752 1394.89 152.829 1394.36 152.844C1396.35 149.438 1397.97 145.554 1398.9 141.897C1400.41 135.985 1399.6 133.292 1398.66 132.073C1396.17 128.849 1392.55 127.116 1388.17 127.063C1385.83 127.034 1383.78 127.502 1382.71 127.839C1381.72 127.66 1380.65 127.561 1379.52 127.542C1377.42 127.508 1375.56 127.974 1373.97 128.931C1373.09 128.629 1371.67 128.204 1370.04 127.932C1366.21 127.293 1363.11 127.791 1360.85 129.412C1358.11 131.375 1356.84 134.786 1357.08 139.55C1357.15 141.062 1357.99 145.664 1359.3 150.028C1360.05 152.537 1360.86 154.62 1361.69 156.22C1362.87 158.49 1364.13 159.826 1365.55 160.306C1366.35 160.575 1367.79 160.763 1369.31 159.479C1369.5 159.716 1369.76 159.951 1370.1 160.169C1370.53 160.446 1371.06 160.673 1371.59 160.807C1373.49 161.29 1375.28 161.169 1376.8 160.492C1376.81 160.767 1376.82 161.029 1376.82 161.256C1376.83 161.623 1376.84 161.984 1376.86 162.321C1376.95 164.6 1377.1 166.373 1377.55 167.613C1377.58 167.681 1377.61 167.785 1377.65 167.895C1377.87 168.597 1378.25 169.772 1379.21 170.692C1380.21 171.646 1381.41 171.938 1382.51 171.938C1383.07 171.938 1383.59 171.864 1384.06 171.764C1385.71 171.405 1387.58 170.859 1388.93 168.901C1390.22 167.05 1390.84 164.262 1390.95 159.869C1390.97 159.745 1390.98 159.626 1390.99 159.513L1391.02 159.281L1391.32 159.308L1391.4 159.313C1393.08 159.391 1395.13 159.03 1396.39 158.435C1397.39 157.965 1400.59 156.254 1399.83 153.944Z" fill="black"/>
<path d="M1396.96 154.393C1391.97 155.439 1391.62 153.722 1391.62 153.722C1396.9 145.781 1399.1 135.701 1397.2 133.234C1392.01 126.504 1383.02 129.687 1382.87 129.769L1382.82 129.778C1381.84 129.57 1380.73 129.447 1379.49 129.426C1377.23 129.389 1375.52 130.027 1374.22 131.029C1374.22 131.029 1358.19 124.328 1358.93 139.456C1359.09 142.674 1363.48 163.807 1368.71 157.423C1370.62 155.089 1372.47 153.116 1372.47 153.116C1373.39 153.735 1374.49 154.05 1375.64 153.937L1375.73 153.86C1375.7 154.15 1375.71 154.433 1375.76 154.769C1374.42 156.297 1374.81 156.565 1372.12 157.128C1369.39 157.698 1370.99 158.714 1372.04 158.979C1373.31 159.301 1376.24 159.756 1378.22 156.941L1378.14 157.262C1378.67 157.692 1379.04 160.055 1378.98 162.197C1378.92 164.339 1378.88 165.81 1379.29 166.958C1379.71 168.107 1380.12 170.692 1383.67 169.921C1386.63 169.278 1388.16 167.61 1388.37 164.827C1388.53 162.849 1388.87 163.141 1388.89 161.373L1389.17 160.536C1389.48 157.854 1389.22 156.989 1391.04 157.391L1391.48 157.431C1392.82 157.493 1394.58 157.212 1395.61 156.726C1397.83 155.68 1399.15 153.934 1396.96 154.393H1396.96Z" fill="#336791"/>
<path d="M1375.15 140.895C1374.7 140.831 1374.3 140.89 1374.09 141.049C1373.97 141.138 1373.94 141.241 1373.93 141.312C1373.9 141.501 1374.03 141.709 1374.11 141.816C1374.34 142.12 1374.67 142.329 1374.99 142.375C1375.04 142.382 1375.09 142.385 1375.14 142.385C1375.68 142.385 1376.18 141.954 1376.22 141.637C1376.27 141.238 1375.71 140.973 1375.15 140.895ZM1390.07 140.908C1390.02 140.596 1389.48 140.507 1388.96 140.58C1388.44 140.653 1387.93 140.891 1387.98 141.203C1388.01 141.447 1388.44 141.862 1388.96 141.862C1389 141.862 1389.04 141.859 1389.09 141.853C1389.43 141.805 1389.68 141.584 1389.8 141.457C1389.98 141.264 1390.09 141.048 1390.07 140.908Z" fill="#F3F3F6"/>
<path d="M1398.62 154.274C1398.43 153.69 1397.82 153.502 1396.8 153.715C1393.78 154.349 1392.69 153.91 1392.34 153.644C1394.69 150.01 1396.62 145.618 1397.67 141.52C1398.16 139.578 1398.43 137.776 1398.46 136.306C1398.48 134.693 1398.21 133.508 1397.65 132.784C1395.4 129.865 1392.1 128.3 1388.1 128.257C1385.35 128.225 1383.02 128.939 1382.57 129.14C1381.63 128.901 1380.59 128.754 1379.47 128.735C1377.4 128.701 1375.62 129.203 1374.14 130.225C1373.5 129.982 1371.84 129.405 1369.81 129.073C1366.31 128.501 1363.52 128.934 1361.53 130.364C1359.16 132.069 1358.07 135.117 1358.28 139.424C1358.35 140.873 1359.16 145.33 1360.45 149.599C1362.14 155.217 1363.97 158.398 1365.91 159.052C1366.13 159.128 1366.39 159.182 1366.68 159.182C1367.39 159.182 1368.25 158.86 1369.15 157.762C1370.25 156.427 1371.38 155.124 1372.55 153.855C1373.31 154.269 1374.15 154.5 1375 154.523C1375 154.546 1375.01 154.568 1375.01 154.591C1374.86 154.769 1374.72 154.949 1374.58 155.132C1373.99 155.894 1373.86 156.053 1371.96 156.45C1371.42 156.564 1369.98 156.865 1369.96 157.888C1369.93 159.006 1371.66 159.476 1371.85 159.525C1372.54 159.699 1373.2 159.785 1373.83 159.785C1375.35 159.785 1376.7 159.275 1377.78 158.288C1377.74 162.274 1377.91 166.202 1378.38 167.398C1378.76 168.378 1379.71 170.772 1382.69 170.772C1383.13 170.772 1383.61 170.72 1384.14 170.605C1387.25 169.929 1388.6 168.533 1389.12 165.457C1389.4 163.814 1389.88 159.888 1390.11 157.783C1390.58 157.934 1391.2 158.003 1391.86 158.002C1393.24 158.002 1394.84 157.704 1395.84 157.233C1396.96 156.703 1398.99 155.404 1398.62 154.274ZM1391.21 140.046C1391.2 140.668 1391.12 141.232 1391.03 141.821C1390.93 142.455 1390.84 143.11 1390.81 143.905C1390.79 144.678 1390.88 145.483 1390.97 146.261C1391.16 147.832 1391.35 149.45 1390.61 151.046C1390.49 150.826 1390.38 150.598 1390.28 150.363C1390.19 150.137 1389.99 149.774 1389.72 149.272C1388.64 147.316 1386.12 142.735 1387.41 140.866C1387.8 140.31 1388.77 139.738 1391.21 140.046ZM1388.25 129.515C1391.83 129.596 1394.67 130.956 1396.68 133.558C1398.22 135.554 1396.52 144.636 1391.61 152.471C1391.56 152.408 1391.51 152.344 1391.46 152.281L1391.4 152.202C1392.67 150.077 1392.42 147.975 1392.2 146.111C1392.11 145.346 1392.03 144.624 1392.05 143.945C1392.07 143.226 1392.16 142.609 1392.25 142.012C1392.37 141.277 1392.48 140.517 1392.45 139.62C1392.47 139.526 1392.48 139.415 1392.47 139.283C1392.39 138.423 1391.42 135.849 1389.45 133.52C1388.37 132.246 1386.8 130.821 1384.65 129.859C1385.57 129.665 1386.84 129.483 1388.25 129.515ZM1368.2 156.959C1367.21 158.168 1366.52 157.936 1366.3 157.86C1364.83 157.364 1363.13 154.219 1361.63 149.232C1360.33 144.917 1359.57 140.578 1359.51 139.361C1359.32 135.513 1360.24 132.831 1362.25 131.39C1365.51 129.045 1370.86 130.448 1373.02 131.16C1372.99 131.191 1372.95 131.22 1372.92 131.252C1369.39 134.873 1369.47 141.059 1369.48 141.437C1369.48 141.583 1369.49 141.79 1369.51 142.074C1369.57 143.114 1369.69 145.051 1369.38 147.244C1369.1 149.282 1369.72 151.276 1371.08 152.716C1371.22 152.864 1371.37 153.004 1371.52 153.137C1370.92 153.795 1369.6 155.25 1368.2 156.959ZM1371.97 151.847C1370.88 150.687 1370.38 149.072 1370.61 147.418C1370.93 145.101 1370.81 143.083 1370.75 141.999C1370.74 141.848 1370.73 141.715 1370.73 141.61C1371.24 141.145 1373.63 139.845 1375.34 140.242C1376.12 140.422 1376.59 140.96 1376.79 141.885C1377.81 146.675 1376.92 148.672 1376.21 150.276C1376.07 150.606 1375.93 150.919 1375.81 151.242L1375.72 151.492C1375.49 152.123 1375.27 152.711 1375.14 153.268C1373.97 153.265 1372.84 152.76 1371.97 151.847V151.847ZM1372.15 158.307C1371.81 158.221 1371.51 158.071 1371.33 157.946C1371.48 157.875 1371.74 157.777 1372.21 157.681C1374.45 157.213 1374.79 156.882 1375.55 155.909C1375.72 155.686 1375.92 155.433 1376.19 155.125L1376.19 155.124C1376.6 154.664 1376.78 154.742 1377.12 154.884C1377.39 154.998 1377.66 155.344 1377.76 155.725C1377.81 155.905 1377.87 156.247 1377.68 156.513C1376.11 158.755 1373.81 158.726 1372.15 158.307ZM1383.88 169.377C1381.14 169.973 1380.17 168.554 1379.53 166.932C1379.11 165.885 1378.91 161.163 1379.06 155.948C1379.06 155.878 1379.05 155.811 1379.03 155.748C1379.01 155.624 1378.99 155.501 1378.95 155.38C1378.74 154.621 1378.22 153.986 1377.59 153.723C1377.34 153.619 1376.89 153.427 1376.34 153.569C1376.46 153.08 1376.66 152.528 1376.88 151.931L1376.97 151.679C1377.07 151.396 1377.2 151.102 1377.34 150.791C1378.09 149.113 1379.11 146.814 1378 141.62C1377.58 139.675 1376.2 138.725 1374.1 138.945C1372.84 139.078 1371.69 139.593 1371.12 139.888C1371 139.951 1370.88 140.013 1370.78 140.072C1370.94 138.112 1371.54 134.449 1373.81 132.132C1375.23 130.673 1377.13 129.952 1379.45 129.991C1384 130.067 1386.93 132.441 1388.58 134.419C1390 136.123 1390.77 137.84 1391.08 138.767C1388.77 138.528 1387.19 138.991 1386.4 140.147C1384.66 142.66 1387.35 147.539 1388.63 149.883C1388.87 150.313 1389.07 150.684 1389.14 150.842C1389.56 151.874 1390.1 152.563 1390.5 153.066C1390.62 153.22 1390.74 153.369 1390.83 153.5C1390.13 153.705 1388.87 154.178 1388.98 156.542C1388.89 157.728 1388.24 163.282 1387.9 165.244C1387.46 167.836 1386.52 168.802 1383.88 169.377V169.377ZM1395.32 156.094C1394.6 156.431 1393.4 156.684 1392.27 156.738C1391.01 156.798 1390.37 156.595 1390.22 156.47C1390.15 154.997 1390.69 154.843 1391.26 154.68C1391.35 154.655 1391.44 154.63 1391.52 154.6C1391.58 154.643 1391.63 154.686 1391.7 154.729C1392.71 155.405 1394.51 155.478 1397.05 154.945L1397.08 154.94C1396.74 155.265 1396.15 155.702 1395.32 156.094Z" fill="#F3F3F6"/>
</g>
<rect x="1137.5" y="691.5" width="64" height="64" rx="32" fill="#072449"/>
<rect x="1137.5" y="691.5" width="64" height="64" rx="32" stroke="#3B526F"/>
<g clip-path="url(#clip2_487_1691)">
<path d="M1169.5 744.158C1168.95 744.158 1168.4 744.012 1167.92 743.734L1162.88 740.753C1162.13 740.332 1162.5 740.184 1162.75 740.097C1163.55 739.85 1164.31 739.504 1165.02 739.067C1165.08 739.04 1165.15 739.028 1165.22 739.033C1165.28 739.038 1165.34 739.059 1165.4 739.095L1169.27 741.394C1169.34 741.432 1169.42 741.452 1169.5 741.452C1169.58 741.452 1169.67 741.432 1169.74 741.394L1184.83 732.684C1184.9 732.642 1184.96 732.582 1185 732.51C1185.04 732.439 1185.06 732.358 1185.06 732.275V714.853C1185.06 714.769 1185.04 714.687 1185 714.614C1184.95 714.541 1184.9 714.48 1184.82 714.436L1169.73 705.734C1169.66 705.694 1169.58 705.673 1169.5 705.673C1169.42 705.673 1169.34 705.694 1169.27 705.734L1154.19 714.439C1154.11 714.482 1154.05 714.542 1154.01 714.615C1153.97 714.687 1153.95 714.769 1153.95 714.853V732.268C1153.95 732.35 1153.97 732.431 1154.01 732.502C1154.05 732.572 1154.11 732.631 1154.19 732.671L1158.32 735.059C1160.57 736.18 1161.94 734.859 1161.94 733.533V716.338C1161.94 716.28 1161.95 716.223 1161.97 716.169C1162 716.116 1162.03 716.067 1162.07 716.026C1162.11 715.985 1162.16 715.953 1162.21 715.93C1162.27 715.908 1162.32 715.897 1162.38 715.897H1164.29C1164.41 715.897 1164.52 715.943 1164.61 716.026C1164.69 716.109 1164.73 716.221 1164.73 716.338V733.534C1164.73 736.527 1163.11 738.241 1160.27 738.241C1159.04 738.262 1157.84 737.935 1156.79 737.297L1152.82 735.021C1152.34 734.741 1151.94 734.339 1151.67 733.856C1151.39 733.373 1151.24 732.825 1151.24 732.268V714.853C1151.24 714.295 1151.39 713.746 1151.66 713.262C1151.94 712.778 1152.34 712.375 1152.82 712.095L1167.92 703.382C1168.4 703.116 1168.95 702.977 1169.5 702.977C1170.06 702.977 1170.6 703.116 1171.09 703.382L1186.18 712.095C1186.66 712.375 1187.06 712.776 1187.34 713.259C1187.61 713.741 1187.76 714.288 1187.76 714.845V732.268C1187.76 732.825 1187.61 733.373 1187.34 733.856C1187.06 734.339 1186.66 734.74 1186.18 735.021L1171.09 743.734C1170.61 744.012 1170.06 744.158 1169.5 744.158Z" fill="#00D486"/>
<path d="M1166.64 726.439C1166.64 726.322 1166.69 726.21 1166.77 726.127C1166.85 726.045 1166.96 725.998 1167.08 725.998H1169.03C1169.14 725.998 1169.24 726.036 1169.32 726.103C1169.4 726.171 1169.45 726.264 1169.47 726.367C1169.76 728.354 1170.64 729.356 1174.63 729.356C1177.81 729.356 1179.17 728.637 1179.17 726.95C1179.17 725.977 1178.78 725.255 1173.84 724.771C1169.71 724.363 1167.16 723.448 1167.16 720.147C1167.16 717.103 1169.72 715.286 1174.03 715.286C1178.86 715.286 1181.25 716.965 1181.56 720.565C1181.56 720.625 1181.55 720.686 1181.53 720.743C1181.51 720.8 1181.48 720.852 1181.44 720.896C1181.4 720.941 1181.35 720.977 1181.3 721.001C1181.24 721.026 1181.18 721.039 1181.12 721.04H1179.16C1179.06 721.039 1178.96 721.004 1178.89 720.943C1178.81 720.881 1178.76 720.795 1178.73 720.699C1178.27 718.609 1177.12 717.941 1174.03 717.941C1170.56 717.941 1170.15 719.15 1170.15 720.056C1170.15 721.153 1170.63 721.474 1175.32 722.093C1179.95 722.707 1182.16 723.574 1182.16 726.833C1182.16 730.122 1179.42 732.005 1174.63 732.005C1168.02 732.014 1166.64 728.982 1166.64 726.439Z" fill="#00D486"/>
</g>
<rect x="797.5" y="226.5" width="64" height="64" rx="32" fill="#072449"/>
<rect x="797.5" y="226.5" width="64" height="64" rx="32" stroke="#3B526F"/>
<path fill-rule="evenodd" clip-rule="evenodd" d="M817.224 243C814.827 243 813.054 244.943 813.133 247.051C813.209 249.076 813.11 251.698 812.398 253.837C811.683 255.982 810.474 257.341 808.5 257.515V259.485C810.474 259.66 811.683 261.018 812.398 263.163C813.11 265.302 813.209 267.924 813.133 269.949C813.054 272.056 814.827 274 817.224 274H841.78C844.176 274 845.949 272.057 845.87 269.949C845.793 267.924 845.892 265.302 846.605 263.163C847.32 261.018 848.526 259.659 850.5 259.485V257.515C848.526 257.34 847.32 255.982 846.605 253.837C845.892 251.699 845.793 249.076 845.87 247.051C845.949 244.944 844.176 243 841.78 243H817.223H817.224ZM836.975 262.083C836.975 264.985 834.638 266.745 830.761 266.745H824.161C823.972 266.745 823.791 266.675 823.658 266.552C823.524 266.428 823.449 266.26 823.449 266.085V250.915C823.449 250.74 823.524 250.572 823.658 250.449C823.791 250.325 823.972 250.255 824.161 250.255H830.723C833.956 250.255 836.078 251.878 836.078 254.369C836.078 256.118 834.651 257.683 832.832 257.957V258.048C835.308 258.3 836.975 259.888 836.975 262.083ZM830.041 252.346H826.278V257.271H829.448C831.898 257.271 833.249 256.357 833.249 254.723C833.249 253.192 832.087 252.346 830.041 252.346ZM826.278 259.226V264.653H830.18C832.731 264.653 834.082 263.705 834.082 261.922C834.082 260.14 832.693 259.225 830.016 259.225H826.278V259.226Z" fill="#7952B3"/>
<rect x="618.5" y="585.5" width="64" height="64" rx="32" fill="#072449"/>
<rect x="618.5" y="585.5" width="64" height="64" rx="32" stroke="#3B526F"/>
<path d="M650.5 636.5C639.971 636.5 631.421 628.108 631.501 617.5C631.58 606.892 639.575 598.5 650.5 598.5C661.426 598.5 669.5 607.05 669.5 617.5C669.5 627.95 661.03 636.5 650.5 636.5ZM656.121 633.571L650.738 619.083L645.671 633.888C649.392 634.759 651.925 634.996 656.121 633.571ZM642.98 632.779L634.905 610.692C633.796 613.067 633.559 615.046 633.401 617.5C633.48 623.991 637.121 629.929 642.98 632.779ZM667.521 617.5C667.6 613.304 665.701 609.979 665.542 609.504C665.701 612.751 665.225 614.412 664.671 616.234L659.13 632.146C666.096 627.95 667.441 621.696 667.6 617.5H667.521ZM649.947 616.788L647.255 609.425L645.275 609.267C644.484 608.713 644.958 607.842 645.513 607.842C649.075 608.079 651.054 608.079 654.617 607.842C655.488 607.842 655.725 609.109 654.696 609.267L652.796 609.425L658.97 627.633L661.899 617.658C662.057 613.304 660.869 612.829 659.286 609.663C658.019 607.208 659.366 604.833 661.82 604.754C659.84 602.854 655.803 600.479 650.499 600.4C645.194 600.321 639.574 603.013 636.249 608.079L642.108 607.921C642.82 608.238 642.503 609.267 642.108 609.346L640.05 609.504L646.225 628.029L649.947 616.788Z" fill="#21759B"/>
<rect x="494.5" y="748.5" width="64" height="64" rx="32" fill="#072449"/>
<rect x="494.5" y="748.5" width="64" height="64" rx="32" stroke="#3B526F"/>
<g clip-path="url(#clip3_487_1691)">
<path d="M506 782V764.004L521.375 773.002V779.001L511.125 773.002V784.999L506 782Z" fill="#00B0FF"/>
<path d="M521.375 773.002L536.75 764.003V782L526.5 787.998L521.375 784.999L531.625 779V773.002L521.375 779V773.002Z" fill="#0081CB"/>
<path d="M521.375 784.999V790.998L531.625 796.997V790.998L521.375 784.999Z" fill="#00B0FF"/>
<path d="M531.625 796.996L547 787.998V776.001L541.875 779V784.999L531.625 790.998V796.996ZM541.875 773.002V767.003L547 764.003V770.002L541.875 773.002Z" fill="#0081CB"/>
</g>
<rect x="874.5" y="704.5" width="76" height="76" rx="38" fill="#072449"/>
<rect x="874.5" y="704.5" width="76" height="76" rx="38" stroke="#3B526F"/>
<g clip-path="url(#clip4_487_1691)">
<path d="M912.5 742.5C912.5 738.726 915.559 735.667 919.333 735.667C923.107 735.667 926.167 738.726 926.167 742.5C926.167 746.274 923.107 749.333 919.333 749.333C915.559 749.333 912.5 746.274 912.5 742.5Z" fill="#1ABCFE"/>
<path d="M898.832 756.167C898.832 752.393 901.891 749.333 905.665 749.333H912.499V756.167C912.499 759.941 909.439 763 905.665 763C901.891 763 898.832 759.941 898.832 756.167Z" fill="#0ACF83"/>
<path d="M912.5 722V735.667H919.333C923.107 735.667 926.167 732.607 926.167 728.833C926.167 725.059 923.107 722 919.333 722H912.5Z" fill="#FF7262"/>
<path d="M898.832 728.833C898.832 732.607 901.891 735.667 905.665 735.667H912.499V722H905.665C901.891 722 898.832 725.059 898.832 728.833Z" fill="#F24E1E"/>
<path d="M898.832 742.5C898.832 746.274 901.891 749.333 905.665 749.333H912.499V735.667H905.665C901.891 735.667 898.832 738.726 898.832 742.5Z" fill="#A259FF"/>
</g>
<rect x="651.5" y="125.5" width="74" height="74" rx="37" fill="#072449"/>
<rect x="651.5" y="125.5" width="74" height="74" rx="37" stroke="#3B526F"/>
<path d="M709.078 146.609C705.935 142.538 701.655 139.492 696.78 137.854C691.905 136.216 686.654 136.061 681.691 137.407C676.728 138.754 672.276 141.542 668.897 145.42C665.519 149.297 663.366 154.089 662.712 159.19C662.057 164.29 662.929 169.471 665.219 174.076C667.509 178.681 671.112 182.503 675.574 185.06C680.037 187.616 685.157 188.792 690.287 188.438C695.417 188.085 700.328 186.218 704.397 183.074C715.756 174.295 717.853 157.971 709.078 146.609Z" fill="#FF6C37"/>
<path d="M697.268 153.066L686.305 164.116L683.207 160.931C693.997 150.141 695.079 151.116 697.268 153.066Z" fill="#F3F3F6"/>
<path d="M686.306 164.418C686.209 164.416 686.116 164.378 686.046 164.31L682.926 161.19C682.856 161.118 682.816 161.021 682.816 160.919C682.816 160.818 682.856 160.721 682.926 160.648C693.564 150.01 695.016 150.508 697.529 152.783C697.571 152.817 697.605 152.86 697.627 152.909C697.65 152.958 697.661 153.012 697.659 153.065C697.675 153.171 697.635 153.279 697.551 153.347L686.588 164.311C686.511 164.382 686.41 164.42 686.306 164.418ZM683.749 160.93L686.306 163.487L696.706 153.087C696.347 152.637 695.834 152.335 695.267 152.24C694.699 152.144 694.116 152.26 693.629 152.567C691.744 153.412 688.711 155.99 683.749 160.93Z" fill="#FF6C37"/>
<path d="M689.447 167.171L686.457 164.116L697.42 153.282C700.367 156.164 695.99 160.975 689.447 167.171Z" fill="#F3F3F6"/>
<path d="M689.447 167.561C689.351 167.554 689.26 167.516 689.187 167.453L686.132 164.463C686.086 164.352 686.086 164.227 686.132 164.116C686.1 164.025 686.1 163.926 686.132 163.834L697.095 152.871C697.171 152.8 697.272 152.76 697.377 152.76C697.481 152.76 697.582 152.8 697.658 152.871C698.013 153.198 698.294 153.597 698.48 154.042C698.667 154.487 698.756 154.967 698.741 155.449C698.741 158.374 695.404 162.057 689.728 167.431C689.652 167.506 689.553 167.552 689.447 167.561ZM687.02 164.116L689.468 166.564C693.801 162.469 697.94 158.244 697.961 155.384C697.985 154.777 697.784 154.183 697.398 153.715L687.02 164.116Z" fill="#FF6C37"/>
<path d="M683.295 160.996L685.462 163.163C685.475 163.175 685.486 163.19 685.494 163.207C685.502 163.224 685.506 163.242 685.506 163.261C685.506 163.279 685.502 163.297 685.494 163.314C685.486 163.331 685.475 163.346 685.462 163.358L680.89 164.333C680.797 164.353 680.701 164.342 680.616 164.302C680.53 164.263 680.46 164.196 680.416 164.112C680.371 164.029 680.356 163.933 680.371 163.84C680.386 163.747 680.431 163.661 680.5 163.596L683.165 160.953C683.165 160.953 683.252 160.953 683.295 160.996Z" fill="#F3F3F6"/>
<path d="M680.78 164.766C680.635 164.764 680.494 164.726 680.369 164.654C680.243 164.581 680.139 164.478 680.065 164.354C679.981 164.197 679.951 164.017 679.979 163.842C680.006 163.666 680.089 163.504 680.217 163.379L682.86 160.714C682.955 160.629 683.078 160.582 683.206 160.582C683.334 160.582 683.457 160.629 683.553 160.714L685.72 162.881C685.848 163.003 685.898 163.188 685.85 163.358C685.801 163.529 685.658 163.665 685.482 163.705L680.91 164.68L680.78 164.766ZM683.207 161.473L680.759 163.921L684.811 163.054L683.207 161.473Z" fill="#FF6C37"/>
<path d="M703.098 146.977C701.529 145.464 699.066 145.401 697.421 146.829C695.777 148.256 695.496 150.707 696.776 152.47C698.057 154.233 700.471 154.727 702.339 153.607L699.393 150.66L703.098 146.977Z" fill="#F3F3F6"/>
<path d="M700.173 154.604C699.273 154.592 698.395 154.316 697.65 153.809C696.905 153.302 696.326 152.587 695.984 151.753C695.643 150.92 695.553 150.005 695.727 149.122C695.9 148.238 696.329 147.425 696.959 146.782C697.827 145.931 698.994 145.454 700.209 145.454C701.425 145.454 702.592 145.931 703.459 146.782C703.542 146.852 703.589 146.956 703.589 147.064C703.589 147.118 703.577 147.171 703.555 147.219C703.532 147.268 703.5 147.311 703.459 147.346L699.949 150.661L702.614 153.283C702.657 153.324 702.69 153.376 702.709 153.432C702.727 153.489 702.732 153.549 702.722 153.608C702.716 153.665 702.697 153.72 702.667 153.768C702.637 153.817 702.597 153.859 702.549 153.89C701.833 154.338 701.01 154.585 700.166 154.605L700.173 154.604ZM700.173 146.197C698.63 146.205 697.248 147.133 696.669 148.553C696.09 149.972 696.405 151.606 697.487 152.697C698.026 153.238 698.715 153.604 699.465 153.747C700.215 153.891 700.991 153.804 701.69 153.499L699.133 150.942C699.093 150.909 699.06 150.868 699.037 150.821C699.015 150.774 699.003 150.723 699.003 150.671C699.003 150.619 699.015 150.567 699.037 150.52C699.06 150.473 699.093 150.432 699.133 150.4L702.513 146.998C701.842 146.483 701.02 146.202 700.173 146.197Z" fill="#FF6C37"/>
<path d="M703.162 147.042L699.457 150.726L702.404 153.672C702.701 153.502 702.977 153.299 703.227 153.066C703.999 152.249 704.424 151.165 704.412 150.041C704.4 148.917 703.952 147.842 703.162 147.042Z" fill="#F3F3F6"/>
<path d="M702.339 153.997C702.29 154 702.242 153.992 702.197 153.973C702.152 153.954 702.112 153.926 702.079 153.889L699.132 150.942C699.092 150.91 699.059 150.869 699.036 150.822C699.014 150.775 699.002 150.723 699.002 150.671C699.002 150.619 699.014 150.568 699.036 150.521C699.059 150.474 699.092 150.433 699.132 150.4L702.815 146.782C702.851 146.729 702.899 146.685 702.956 146.654C703.013 146.624 703.076 146.608 703.14 146.608C703.205 146.608 703.268 146.624 703.325 146.654C703.381 146.685 703.43 146.729 703.465 146.782C703.898 147.206 704.241 147.712 704.476 148.27C704.71 148.828 704.831 149.427 704.831 150.032C704.831 150.638 704.71 151.237 704.476 151.795C704.241 152.353 703.898 152.859 703.465 153.282C703.21 153.553 702.918 153.786 702.598 153.975C702.518 154.016 702.425 154.024 702.339 153.997ZM699.956 150.661L702.404 153.109C702.573 152.991 702.732 152.861 702.881 152.719C703.601 152.002 704.006 151.028 704.008 150.011C704.01 149.102 703.678 148.223 703.076 147.541L699.956 150.661Z" fill="#FF6C37"/>
<path d="M697.723 153.521C697.43 153.246 697.042 153.092 696.64 153.092C696.237 153.092 695.85 153.246 695.556 153.521L685.742 163.314L687.367 164.96L697.745 155.86C697.903 155.709 698.029 155.526 698.114 155.324C698.199 155.122 698.242 154.905 698.24 154.686C698.238 154.466 698.191 154.25 698.102 154.05C698.013 153.849 697.884 153.67 697.723 153.521Z" fill="#F3F3F6"/>
<path d="M687.282 165.351C687.185 165.349 687.092 165.31 687.022 165.243L685.375 163.596C685.305 163.524 685.266 163.426 685.266 163.325C685.266 163.224 685.305 163.127 685.375 163.054L695.19 153.282C695.473 153 695.834 152.809 696.226 152.734C696.619 152.66 697.025 152.705 697.391 152.863C697.758 153.022 698.069 153.287 698.283 153.625C698.497 153.962 698.604 154.356 698.592 154.755C698.581 155.026 698.516 155.293 698.4 155.538C698.285 155.784 698.122 156.004 697.92 156.185L687.542 165.285C687.467 165.339 687.374 165.363 687.282 165.351ZM686.134 163.313L687.217 164.418L697.4 155.557C697.652 155.337 697.802 155.024 697.812 154.69C697.822 154.356 697.69 154.029 697.444 153.802C697.217 153.575 696.909 153.448 696.588 153.448C696.267 153.448 695.959 153.575 695.732 153.802L686.134 163.313Z" fill="#FF6C37"/>
<path d="M678.139 174.472C678.111 174.51 678.096 174.556 678.096 174.602C678.096 174.649 678.111 174.695 678.139 174.732L678.572 176.617C678.589 176.728 678.573 176.842 678.525 176.943C678.476 177.045 678.399 177.129 678.302 177.186C678.205 177.243 678.094 177.267 677.982 177.256C677.871 177.244 677.766 177.198 677.683 177.124L674.715 174.264L683.967 164.938H687.174L689.341 167.105C685.96 170.061 682.191 172.539 678.139 174.472Z" fill="#F3F3F6"/>
<path d="M677.943 177.657C677.697 177.653 677.455 177.552 677.293 177.376L674.454 174.537C674.414 174.505 674.381 174.464 674.358 174.417C674.336 174.37 674.324 174.319 674.324 174.266C674.324 174.214 674.336 174.163 674.358 174.116C674.381 174.069 674.414 174.028 674.454 173.996L683.771 164.657C683.823 164.602 683.891 164.564 683.966 164.549H687.194C687.278 164.52 687.369 164.52 687.454 164.549L689.621 166.716C689.662 166.754 689.693 166.802 689.712 166.855C689.731 166.907 689.736 166.964 689.729 167.019C689.73 167.073 689.719 167.127 689.697 167.176C689.674 167.225 689.641 167.268 689.599 167.301L689.426 167.453C686.032 170.283 682.298 172.677 678.311 174.581L678.723 176.336C678.754 176.472 678.756 176.613 678.726 176.748C678.697 176.884 678.637 177.012 678.552 177.122C678.467 177.232 678.358 177.322 678.234 177.384C678.11 177.447 677.974 177.481 677.834 177.484L677.943 177.657ZM675.299 174.256L677.856 176.834C677.879 176.855 677.91 176.867 677.942 176.867C677.974 176.867 678.005 176.855 678.029 176.834C678.045 176.811 678.053 176.785 678.053 176.758C678.053 176.73 678.045 176.704 678.029 176.682L677.596 174.797C677.561 174.661 677.575 174.518 677.634 174.392C677.694 174.266 677.795 174.164 677.921 174.104C681.801 172.225 685.438 169.882 688.754 167.127L686.977 165.35H684.074L675.299 174.256Z" fill="#FF6C37"/>
<path d="M672.483 176.487L674.65 174.32L677.987 177.657L672.679 177.289C672.588 177.282 672.502 177.246 672.432 177.187C672.362 177.128 672.313 177.048 672.292 176.959C672.27 176.871 672.277 176.777 672.312 176.693C672.346 176.608 672.407 176.536 672.484 176.488L672.483 176.487Z" fill="#F3F3F6"/>
<path d="M678.051 177.982L672.764 177.614C672.45 177.585 672.18 177.371 672.07 177.084C671.959 176.797 672.027 176.456 672.244 176.227L674.411 174.06C674.483 173.99 674.581 173.951 674.682 173.951C674.783 173.951 674.88 173.99 674.953 174.06L678.268 177.375C678.314 177.438 678.338 177.514 678.338 177.592C678.338 177.67 678.314 177.746 678.268 177.808C678.218 177.89 678.141 177.952 678.051 177.982ZM672.764 176.769L677.097 177.051L674.714 174.819L672.764 176.769Z" fill="#FF6C37"/>
<path d="M687.477 165.2L683.1 165.872L685.635 163.359L687.477 165.2Z" fill="#F3F3F6"/>
<path d="M683.1 166.282C683.027 166.284 682.955 166.265 682.893 166.226C682.832 166.188 682.783 166.132 682.753 166.065C682.707 166.003 682.682 165.927 682.682 165.849C682.682 165.771 682.707 165.695 682.753 165.632L685.266 163.097C685.342 163.026 685.443 162.986 685.547 162.986C685.652 162.986 685.753 163.026 685.829 163.097L687.671 164.938C687.708 164.997 687.728 165.064 687.728 165.133C687.728 165.203 687.708 165.27 687.671 165.328C687.653 165.4 687.615 165.464 687.561 165.514C687.508 165.564 687.441 165.598 687.368 165.61L683.035 166.282H683.1ZM685.635 163.92L684.227 165.328L686.653 164.96L685.635 163.92Z" fill="#FF6C37"/>
<path d="M687.477 165.199L684.422 165.589C684.34 165.607 684.254 165.599 684.178 165.565C684.101 165.531 684.037 165.473 683.996 165.4C683.955 165.327 683.938 165.243 683.948 165.16C683.959 165.077 683.996 164.999 684.054 164.939L685.636 163.357L687.477 165.199Z" fill="#F3F3F6"/>
<path d="M684.335 166.001C684.193 166 684.055 165.961 683.933 165.889C683.811 165.816 683.711 165.713 683.642 165.589C683.559 165.441 683.527 165.27 683.55 165.102C683.574 164.933 683.652 164.777 683.772 164.657L685.354 163.076C685.43 163.004 685.531 162.964 685.635 162.964C685.74 162.964 685.841 163.004 685.917 163.076L687.759 164.917C687.813 164.969 687.852 165.036 687.87 165.109C687.887 165.183 687.883 165.26 687.858 165.331C687.833 165.402 687.788 165.464 687.728 165.51C687.668 165.556 687.596 165.584 687.521 165.589L684.488 165.979L684.335 166.001ZM684.335 165.199L686.632 164.917L685.614 163.899L684.314 165.199H684.335ZM703.185 149.534C703.144 149.466 703.079 149.415 703.004 149.391C702.928 149.367 702.845 149.372 702.773 149.404C702.737 149.423 702.705 149.448 702.679 149.478C702.653 149.509 702.634 149.545 702.622 149.583C702.598 149.661 702.605 149.744 702.643 149.816C702.795 150.136 702.752 150.513 702.535 150.791C702.508 150.818 702.487 150.85 702.473 150.886C702.459 150.921 702.452 150.959 702.453 150.997C702.454 151.073 702.483 151.146 702.535 151.202C702.59 151.224 702.652 151.224 702.708 151.202C702.758 151.215 702.811 151.214 702.861 151.198C702.911 151.183 702.955 151.154 702.99 151.116C703.168 150.897 703.281 150.633 703.316 150.353C703.35 150.073 703.305 149.79 703.185 149.534Z" fill="#FF6C37"/>
<rect x="442.5" y="197.5" width="74" height="74" rx="37" fill="#072449"/>
<rect x="442.5" y="197.5" width="74" height="74" rx="37" stroke="#3B526F"/>
<g clip-path="url(#clip5_487_1691)">
<path d="M494.837 220.229C494.805 219.994 494.6 219.864 494.431 219.85C494.262 219.836 490.686 219.569 490.686 219.569C490.686 219.569 488.203 217.091 487.93 216.817C487.658 216.543 487.125 216.626 486.918 216.688C486.888 216.697 486.376 216.856 485.528 217.119C484.699 214.72 483.235 212.515 480.659 212.515C480.588 212.515 480.515 212.518 480.442 212.522C479.709 211.548 478.802 211.125 478.018 211.125C472.019 211.125 469.152 218.664 468.254 222.495C465.922 223.221 464.266 223.737 464.055 223.804C462.753 224.214 462.712 224.255 462.541 225.488C462.413 226.421 459.008 252.887 459.008 252.887L485.54 257.884L499.915 254.758C499.915 254.758 494.869 220.464 494.837 220.229ZM484.062 217.575L481.817 218.273C481.818 218.114 481.819 217.958 481.819 217.787C481.819 216.296 481.613 215.095 481.282 214.143C482.609 214.311 483.493 215.828 484.062 217.575ZM479.636 214.439C480.005 215.368 480.245 216.702 480.245 218.501C480.245 218.593 480.244 218.677 480.243 218.763C478.783 219.217 477.197 219.711 475.607 220.206C476.5 216.743 478.173 215.07 479.636 214.439ZM477.854 212.743C478.113 212.743 478.373 212.831 478.623 213.004C476.7 213.913 474.639 216.204 473.769 220.778L470.104 221.919C471.123 218.43 473.544 212.743 477.854 212.743Z" fill="#95BF46"/>
<path d="M494.431 219.85C494.262 219.836 490.686 219.57 490.686 219.57C490.686 219.57 488.203 217.092 487.93 216.817C487.828 216.715 487.691 216.663 487.547 216.64L485.541 257.883L499.916 254.758C499.916 254.758 494.869 220.464 494.837 220.229C494.805 219.994 494.6 219.864 494.431 219.85Z" fill="#5E8E3E"/>
<path d="M480.66 227.834L478.887 233.134C478.887 233.134 477.334 232.3 475.431 232.3C472.64 232.3 472.499 234.061 472.499 234.504C472.499 236.925 478.777 237.852 478.777 243.522C478.777 247.983 475.962 250.855 472.167 250.855C467.612 250.855 465.283 248.006 465.283 248.006L466.503 243.956C466.503 243.956 468.897 246.022 470.917 246.022C472.237 246.022 472.774 244.978 472.774 244.214C472.774 241.057 467.624 240.916 467.624 235.728C467.624 231.361 470.742 227.136 477.037 227.136C479.462 227.136 480.66 227.834 480.66 227.834Z" fill="#F3F3F6"/>
</g>
<circle cx="480" cy="650" r="4" fill="#B2D2FC"/>
<circle cx="731" cy="794" r="4" fill="#B2D2FC"/>
<circle cx="662" cy="216" r="4" fill="#B2D2FC"/>
<circle cx="929" cy="104" r="4" fill="#B2D2FC"/>
<circle cx="988" cy="559" r="4" fill="#B2D2FC"/>
<circle cx="846" cy="650" r="4" fill="#B2D2FC"/>
<circle cx="1154" cy="148" r="4" fill="#B2D2FC"/>
<path d="M1309.9 355H1277.37C1275.12 355 1273.31 356.84 1273.31 359.14V387.754C1273.94 387.754 1274.57 387.662 1275.12 387.662C1285.69 387.662 1294.27 396.403 1294.27 407.168C1294.27 407.812 1294.27 408.456 1294.18 409.1H1322.36C1324.62 409.1 1326.43 407.26 1326.43 404.96V359.14C1326.43 356.84 1324.62 355 1322.36 355H1309.9Z" fill="#196FDE"/>
<path d="M1323.35 454.459L1305.47 454.736C1302.85 454.736 1302.4 456.484 1302.31 457.496V458.14V465.132C1302.22 479.025 1289.57 490.342 1273.94 490.342C1258.31 490.342 1245.66 479.025 1245.66 465.132V439.278H1275.2V426.765C1267.07 426.765 1260.12 421.521 1257.32 414.252H1245.75V375.794C1245.75 373.585 1244.04 371.837 1241.87 371.837H1224.88C1222.72 371.837 1221 373.585 1221 375.794V458.6C1221 466.052 1222.17 473.137 1224.61 479.669C1232.2 500.279 1250.27 513.896 1271.59 515C1271.86 515 1272.58 515 1273.49 515C1279.45 515 1296.98 513.804 1310.71 500.371C1321.1 490.25 1326.52 475.989 1326.97 458.048C1326.97 456.024 1325.34 454.367 1323.35 454.367V454.459Z" fill="#4293FC"/>
<path d="M1322.36 355H1302.49V375.15C1302.49 377.45 1304.29 379.29 1306.55 379.29H1326.43V359.14C1326.43 356.84 1324.62 355 1322.36 355Z" fill="#4293FC"/>
</g>
</g>
<defs>
<clipPath id="clip0_487_1691">
<rect width="1440" height="859" fill="white"/>
</clipPath>
<clipPath id="clip1_487_1691">
<rect width="43" height="45" fill="white" transform="translate(1357 127)"/>
</clipPath>
<clipPath id="clip2_487_1691">
<rect width="36.522" height="45" fill="white" transform="translate(1151.24 701)"/>
</clipPath>
<clipPath id="clip3_487_1691">
<rect width="41" height="33" fill="white" transform="translate(506 764)"/>
</clipPath>
<clipPath id="clip4_487_1691">
<rect width="27.3388" height="41" fill="white" transform="translate(898.83 722)"/>
</clipPath>
<clipPath id="clip5_487_1691">
<rect width="41" height="47" fill="white" transform="translate(459 211)"/>
</clipPath>
</defs>
</svg>
