<svg width="29" height="41" viewBox="0 0 29 41" fill="none" xmlns="http://www.w3.org/2000/svg">
<g clip-path="url(#clip0_40_6754)">
<path d="M14.5 20.5C14.5 16.7261 17.5594 13.6667 21.3333 13.6667C25.1072 13.6667 28.1667 16.7261 28.1667 20.5C28.1667 24.274 25.1072 27.3334 21.3333 27.3334C17.5594 27.3334 14.5 24.274 14.5 20.5Z" fill="#1ABCFE"/>
<path d="M0.832031 34.1666C0.832031 30.3928 3.89139 27.3333 7.66536 27.3333H14.4987V34.1666C14.4987 37.9406 11.4393 41 7.66536 41C3.89139 41 0.832031 37.9406 0.832031 34.1666Z" fill="#0ACF83"/>
<path d="M14.5 0.00012207V13.6667H21.3333C25.1073 13.6667 28.1667 10.6073 28.1667 6.83336C28.1667 3.05938 25.1073 0.00012207 21.3333 0.00012207H14.5Z" fill="#FF7262"/>
<path d="M0.832031 6.83333C0.832031 10.6073 3.89139 13.6667 7.66536 13.6667H14.4987V0H7.66536C3.89139 0 0.832031 3.05945 0.832031 6.83333Z" fill="#F24E1E"/>
<path d="M0.832031 20.5C0.832031 24.274 3.89139 27.3334 7.66536 27.3334H14.4987V13.6667H7.66536C3.89139 13.6667 0.832031 16.7261 0.832031 20.5Z" fill="#A259FF"/>
</g>
<defs>
<clipPath id="clip0_40_6754">
<rect width="27.3388" height="41" fill="white" transform="translate(0.830078)"/>
</clipPath>
</defs>
</svg>
