<svg width="32" height="43" viewBox="0 0 32 43" fill="none" xmlns="http://www.w3.org/2000/svg">
<g clip-path="url(#clip0_41_7205)">
<path d="M16 21.4999C16 17.5419 19.581 14.3333 23.9984 14.3333C28.4157 14.3333 31.9968 17.5419 31.9968 21.4999C31.9968 25.458 28.4157 28.6666 23.9984 28.6666C19.581 28.6666 16 25.458 16 21.4999Z" fill="#1ABCFE"/>
<path d="M0.00292969 35.8334C0.00292969 31.8754 3.5839 28.6667 8.00133 28.6667H15.9997V35.8334C15.9997 39.7915 12.4188 43.0001 8.00133 43.0001C3.5839 43.0001 0.00292969 39.7915 0.00292969 35.8334Z" fill="#0ACF83"/>
<path d="M16 0V14.3332H23.9984C28.4158 14.3332 31.9968 11.1246 31.9968 7.16657C31.9968 3.20849 28.4158 0 23.9984 0H16Z" fill="#FF7262"/>
<path d="M0.00390625 7.16667C0.00390625 11.1247 3.58488 14.3333 8.00231 14.3333H16.0007V0H8.00231C3.58488 0 0.00390625 3.20869 0.00390625 7.16667Z" fill="#F24E1E"/>
<path d="M0.00292969 21.4999C0.00292969 25.458 3.5839 28.6666 8.00133 28.6666H15.9997V14.3333H8.00133C3.5839 14.3333 0.00292969 17.5419 0.00292969 21.4999Z" fill="#A259FF"/>
</g>
<defs>
<clipPath id="clip0_41_7205">
<rect width="32" height="43" fill="white"/>
</clipPath>
</defs>
</svg>
