<svg width="24" height="24" viewBox="0 0 24 24" fill="none" xmlns="http://www.w3.org/2000/svg">
<path d="M12.606 3.74041C12.422 3.63262 12.2126 3.57581 11.9994 3.57581C11.7861 3.57581 11.5768 3.63262 11.3928 3.74041L4.18078 7.96441C4.00023 8.07053 3.8506 8.22204 3.74675 8.4039C3.64291 8.58576 3.58846 8.79163 3.58882 9.00105C3.58919 9.21047 3.64435 9.41614 3.74883 9.59764C3.85331 9.77914 4.00347 9.93013 4.18438 10.0356L11.3952 14.238C11.5786 14.3449 11.7871 14.4012 11.9994 14.4012C12.2117 14.4012 12.4202 14.3449 12.6036 14.238L19.8144 10.0356C19.9954 9.93 20.1457 9.77879 20.2502 9.59705C20.3546 9.41531 20.4096 9.20938 20.4098 8.99976C20.4099 8.79014 20.3551 8.58414 20.2508 8.40228C20.1466 8.22042 19.9965 8.06904 19.8156 7.96321L12.606 3.74041ZM11.3928 5.13121C11.5766 5.02365 11.7858 4.96696 11.9988 4.96696C12.2118 4.96696 12.4209 5.02365 12.6048 5.13121L19.2096 8.99881L12.6036 12.8496C12.4202 12.9565 12.2117 13.0128 11.9994 13.0128C11.7871 13.0128 11.5786 12.9565 11.3952 12.8496L4.78798 8.99881L11.3928 5.13121ZM3.68398 11.58L11.4096 15.9276C11.5891 16.0285 11.7916 16.0815 11.9976 16.0815C12.2035 16.0815 12.406 16.0285 12.5856 15.9276L20.3112 11.58C20.4273 11.8494 20.4407 12.1519 20.349 12.4305C20.2572 12.7091 20.0666 12.9444 19.8132 13.092L12.6012 17.2944C12.4179 17.4011 12.2096 17.4573 11.9976 17.4573C11.7855 17.4573 11.5773 17.4011 11.394 17.2944L4.18198 13.092C3.92853 12.9444 3.73792 12.7091 3.64617 12.4305C3.55441 12.1519 3.56786 11.8494 3.68398 11.58ZM3.68398 14.5236L11.4096 18.87C11.5891 18.9709 11.7916 19.0239 11.9976 19.0239C12.2035 19.0239 12.406 18.9709 12.5856 18.87L20.3112 14.5236C20.4273 14.793 20.4407 15.0955 20.349 15.3741C20.2572 15.6527 20.0666 15.888 19.8132 16.0356L12.6012 20.238C12.4179 20.3447 12.2096 20.4009 11.9976 20.4009C11.7855 20.4009 11.5773 20.3447 11.394 20.238L4.18198 16.0356C3.92853 15.888 3.73792 15.6527 3.64617 15.3741C3.55441 15.0955 3.56786 14.793 3.68398 14.5236Z" fill="#05408E"/>
</svg>
