<svg width="32" height="32" viewBox="0 0 32 32" fill="none" xmlns="http://www.w3.org/2000/svg">
<rect width="32" height="32" fill="#F3F3F6"/>
<path d="M19.7183 12.5713C20.4003 12.5713 21.0543 12.8422 21.5366 13.3245C22.0188 13.8067 22.2897 14.4608 22.2897 15.1428V22.2845C22.2897 23.9518 21.6274 25.5509 20.4484 26.7299C19.2693 27.909 17.6703 28.5713 16.0029 28.5713C14.3355 28.5713 12.7364 27.909 11.5574 26.7299C10.3784 25.5509 9.71602 23.9518 9.71602 22.2845V15.1428C9.71602 14.4608 9.98693 13.8067 10.4692 13.3245C10.9514 12.8422 11.6055 12.5713 12.2874 12.5713H19.7183ZM19.7183 14.2856H12.2874C12.0601 14.2856 11.8421 14.3759 11.6814 14.5367C11.5206 14.6974 11.4303 14.9154 11.4303 15.1428V22.2845C11.4303 23.4972 11.9121 24.6602 12.7696 25.5178C13.6271 26.3753 14.7902 26.857 16.0029 26.857C17.2156 26.857 18.3786 26.3753 19.2362 25.5178C20.0937 24.6602 20.5754 23.4972 20.5754 22.2845V15.1428C20.5754 14.9154 20.4851 14.6974 20.3244 14.5367C20.1636 14.3759 19.9456 14.2856 19.7183 14.2856ZM4.85659 12.5713H9.6063C9.14733 13.049 8.82489 13.641 8.67259 14.2856H4.85659C4.62926 14.2856 4.41124 14.3759 4.25049 14.5367C4.08975 14.6974 3.99944 14.9154 3.99944 15.1428V21.1416C3.99899 21.7152 4.14243 22.2796 4.41662 22.7834C4.69082 23.2871 5.087 23.7141 5.56891 24.0251C6.05081 24.3361 6.60303 24.5212 7.17501 24.5635C7.74699 24.6058 8.32044 24.504 8.84287 24.2673C8.99487 24.8273 9.21316 25.3599 9.48744 25.8582C8.70446 26.2004 7.84855 26.342 6.99706 26.2704C6.14557 26.1988 5.32535 25.9162 4.6105 25.4481C3.89565 24.9799 3.30871 24.3411 2.90272 23.5892C2.49673 22.8373 2.28448 21.9961 2.28516 21.1416V15.1428C2.28516 14.4608 2.55608 13.8067 3.03831 13.3245C3.52055 12.8422 4.1746 12.5713 4.85659 12.5713ZM27.1423 12.5713C27.8243 12.5713 28.4783 12.8422 28.9606 13.3245C29.4428 13.8067 29.7137 14.4608 29.7137 15.1428V21.1428C29.7141 21.9967 29.5018 22.8372 29.096 23.5885C28.6903 24.3399 28.1039 24.9784 27.3896 25.4464C26.6754 25.9144 25.8559 26.1972 25.0051 26.2693C24.1542 26.3414 23.2988 26.2005 22.516 25.8593L22.58 25.7428C22.8246 25.2788 23.0223 24.7862 23.164 24.2696C23.6862 24.5046 24.2589 24.605 24.8298 24.5618C25.4008 24.5185 25.9518 24.333 26.4326 24.022C26.9134 23.7111 27.3087 23.2847 27.5824 22.7818C27.8561 22.2788 27.9995 21.7153 27.9994 21.1428V15.1428C27.9994 14.9156 27.9093 14.6978 27.7488 14.5371C27.5883 14.3764 27.3706 14.2859 27.1434 14.2856H23.3343C23.1817 13.6408 22.8588 13.0488 22.3994 12.5713H27.1423ZM15.9994 3.42847C16.5247 3.42847 17.0449 3.53193 17.5302 3.73295C18.0155 3.93397 18.4564 4.22861 18.8279 4.60004C19.1993 4.97147 19.4939 5.41243 19.695 5.89773C19.896 6.38304 19.9994 6.90318 19.9994 7.42847C19.9994 7.95375 19.896 8.4739 19.695 8.9592C19.4939 9.4445 19.1993 9.88546 18.8279 10.2569C18.4564 10.6283 18.0155 10.923 17.5302 11.124C17.0449 11.325 16.5247 11.4285 15.9994 11.4285C14.9386 11.4285 13.9212 11.007 13.171 10.2569C12.4209 9.50675 11.9994 8.48933 11.9994 7.42847C11.9994 6.3676 12.4209 5.35019 13.171 4.60004C13.9212 3.84989 14.9386 3.42847 15.9994 3.42847ZM25.1457 4.57132C25.596 4.57132 26.0418 4.66001 26.4578 4.83231C26.8738 5.00461 27.2517 5.25716 27.5701 5.57553C27.8885 5.8939 28.141 6.27186 28.3133 6.68784C28.4856 7.10381 28.5743 7.54965 28.5743 7.9999C28.5743 8.45014 28.4856 8.89598 28.3133 9.31195C28.141 9.72793 27.8885 10.1059 27.5701 10.4243C27.2517 10.7426 26.8738 10.9952 26.4578 11.1675C26.0418 11.3398 25.596 11.4285 25.1457 11.4285C24.2364 11.4285 23.3643 11.0672 22.7214 10.4243C22.0784 9.78128 21.7172 8.90921 21.7172 7.9999C21.7172 7.09058 22.0784 6.21851 22.7214 5.57553C23.3643 4.93255 24.2364 4.57132 25.1457 4.57132ZM6.85316 4.57132C7.3034 4.57132 7.74924 4.66001 8.16522 4.83231C8.58119 5.00461 8.95915 5.25716 9.27752 5.57553C9.5959 5.8939 9.84844 6.27186 10.0207 6.68784C10.193 7.10381 10.2817 7.54965 10.2817 7.9999C10.2817 8.45014 10.193 8.89598 10.0207 9.31195C9.84844 9.72793 9.5959 10.1059 9.27752 10.4243C8.95915 10.7426 8.58119 10.9952 8.16522 11.1675C7.74924 11.3398 7.3034 11.4285 6.85316 11.4285C5.94384 11.4285 5.07177 11.0672 4.42879 10.4243C3.78581 9.78128 3.42459 8.90921 3.42459 7.9999C3.42459 7.09058 3.78581 6.21851 4.42879 5.57553C5.07177 4.93255 5.94384 4.57132 6.85316 4.57132ZM15.9994 5.14275C15.3932 5.14275 14.8119 5.38357 14.3832 5.81222C13.9545 6.24088 13.7137 6.82226 13.7137 7.42847C13.7137 8.03468 13.9545 8.61606 14.3832 9.04471C14.8119 9.47337 15.3932 9.71418 15.9994 9.71418C16.6057 9.71418 17.187 9.47337 17.6157 9.04471C18.0443 8.61606 18.2852 8.03468 18.2852 7.42847C18.2852 6.82226 18.0443 6.24088 17.6157 5.81222C17.187 5.38357 16.6057 5.14275 15.9994 5.14275ZM25.1457 6.28561C24.9206 6.28561 24.6977 6.32995 24.4897 6.4161C24.2817 6.50225 24.0927 6.62853 23.9335 6.78771C23.7744 6.9469 23.6481 7.13588 23.5619 7.34387C23.4758 7.55185 23.4314 7.77477 23.4314 7.9999C23.4314 8.22502 23.4758 8.44794 23.5619 8.65592C23.6481 8.86391 23.7744 9.05289 23.9335 9.21208C24.0927 9.37126 24.2817 9.49754 24.4897 9.58369C24.6977 9.66984 24.9206 9.71418 25.1457 9.71418C25.6004 9.71418 26.0364 9.53357 26.3579 9.21208C26.6794 8.89059 26.86 8.45455 26.86 7.9999C26.86 7.54524 26.6794 7.1092 26.3579 6.78771C26.0364 6.46622 25.6004 6.28561 25.1457 6.28561ZM6.85316 6.28561C6.62804 6.28561 6.40512 6.32995 6.19713 6.4161C5.98914 6.50225 5.80016 6.62853 5.64097 6.78771C5.48179 6.9469 5.35552 7.13588 5.26936 7.34387C5.18321 7.55185 5.13887 7.77477 5.13887 7.9999C5.13887 8.22502 5.18321 8.44794 5.26936 8.65592C5.35552 8.86391 5.48179 9.05289 5.64097 9.21208C5.80016 9.37126 5.98914 9.49754 6.19713 9.58369C6.40512 9.66984 6.62804 9.71418 6.85316 9.71418C7.30782 9.71418 7.74385 9.53357 8.06534 9.21208C8.38683 8.89059 8.56744 8.45455 8.56744 7.9999C8.56744 7.54524 8.38683 7.1092 8.06534 6.78771C7.74385 6.46622 7.30782 6.28561 6.85316 6.28561Z" fill="#05408E"/>
</svg>
