<svg width="64" height="64" viewBox="0 0 64 64" fill="none" xmlns="http://www.w3.org/2000/svg">
<rect width="64" height="64" rx="16" fill="#1B5093"/>
<path d="M31.5014 54.0349C30.9081 54.0351 30.3253 53.8793 29.8115 53.5831L24.4339 50.4031C23.6313 49.9544 24.0224 49.7959 24.2878 49.7034C25.1414 49.44 25.9586 49.0711 26.7206 48.6052C26.7844 48.5757 26.8547 48.563 26.9247 48.5682C26.9948 48.5734 27.0624 48.5964 27.1211 48.635L31.2532 51.0871C31.3302 51.1277 31.4159 51.149 31.503 51.149C31.59 51.149 31.6757 51.1277 31.7527 51.0871L47.8666 41.7965C47.942 41.7514 48.0044 41.6875 48.0476 41.611C48.0908 41.5346 48.1134 41.4482 48.1132 41.3604V22.7762C48.1132 22.687 48.0903 22.5993 48.0465 22.5216C48.0028 22.4438 47.9397 22.3786 47.8634 22.3322L31.7495 13.0496C31.6735 13.0068 31.5878 12.9844 31.5006 12.9844C31.4134 12.9844 31.3277 13.0068 31.2517 13.0496L15.1472 22.3354C15.0704 22.3808 15.0066 22.4452 14.962 22.5224C14.9174 22.5997 14.8936 22.6871 14.8928 22.7762V41.3526C14.893 41.4402 14.9165 41.5261 14.9609 41.6017C15.0054 41.6772 15.0691 41.7396 15.1456 41.7824L19.5652 44.3302C21.9603 45.5256 23.4272 44.1168 23.4272 42.7017V24.3607C23.4272 24.2989 23.4393 24.2377 23.463 24.1806C23.4867 24.1235 23.5214 24.0716 23.5652 24.0279C23.6089 23.9842 23.6609 23.9496 23.718 23.9259C23.7752 23.9023 23.8365 23.8901 23.8983 23.8901H25.94C26.065 23.8901 26.1849 23.9397 26.2732 24.0279C26.3616 24.1162 26.4112 24.2359 26.4112 24.3607V42.7033C26.4112 45.8959 24.671 47.7235 21.6399 47.7235C20.3322 47.7463 19.045 47.397 17.9286 46.7163L13.6929 44.2894C13.1786 43.9903 12.752 43.5616 12.4554 43.0463C12.1589 42.531 12.0029 41.947 12.0029 41.3526V22.7762C12.0014 22.1809 12.1568 21.5957 12.4534 21.0793C12.7501 20.563 13.1775 20.1337 13.6929 19.8347L29.8083 10.541C30.3274 10.2573 30.9097 10.1086 31.5014 10.1086C32.0931 10.1086 32.6753 10.2573 33.1944 10.541L49.3083 19.8347C49.8225 20.1332 50.2493 20.5612 50.5461 21.076C50.8429 21.5908 50.9994 22.1743 50.9998 22.7684V41.3526C50.999 41.947 50.8424 42.5308 50.5456 43.046C50.2489 43.5612 49.8223 43.9899 49.3083 44.2894L33.1944 53.5831C32.6797 53.8797 32.0957 54.0356 31.5014 54.0349Z" fill="#00D486"/>
<path d="M28.4453 35.1353C28.4453 35.0105 28.495 34.8908 28.5833 34.8025C28.6717 34.7143 28.7915 34.6647 28.9165 34.6647H31.0006C31.112 34.6651 31.2196 34.7048 31.3044 34.7769C31.3892 34.849 31.4457 34.9487 31.4639 35.0585C31.778 37.1779 32.7204 38.2463 36.9813 38.2463C40.3753 38.2463 41.8217 37.4792 41.8217 35.6797C41.8217 34.6427 41.4118 33.8724 36.1363 33.3563C31.7262 32.9202 28.9997 31.9444 28.9997 28.424C28.9997 25.1765 31.7403 23.239 36.3342 23.239C41.4966 23.239 44.0519 25.029 44.3755 28.8695C44.3804 28.9336 44.3721 28.9981 44.3512 29.0589C44.3302 29.1197 44.297 29.1755 44.2536 29.223C44.2102 29.2705 44.1575 29.3086 44.0987 29.3349C44.04 29.3613 43.9765 29.3753 43.9121 29.3762H41.8139C41.7086 29.3747 41.6069 29.3381 41.5249 29.2721C41.4429 29.2062 41.3854 29.1147 41.3616 29.0123C40.8606 26.783 39.6339 26.0707 36.3358 26.0707C32.6293 26.0707 32.1989 27.3603 32.1989 28.3267C32.1989 29.497 32.7078 29.839 37.7116 30.4995C42.6636 31.1537 45.0162 32.0793 45.0162 35.5558C45.0162 39.0637 42.0887 41.0717 36.9829 41.0717C29.9232 41.0812 28.4453 37.8478 28.4453 35.1353Z" fill="#00D486"/>
</svg>
