<svg width="53" height="53" viewBox="0 0 53 53" fill="none" xmlns="http://www.w3.org/2000/svg">
<path d="M47.078 10.6086C43.9347 6.53835 39.6551 3.49165 34.7803 1.85383C29.9055 0.216004 24.6544 0.0606181 19.6913 1.40732C14.7281 2.75403 10.2758 5.54233 6.89744 9.41959C3.51906 13.2968 1.36637 18.0889 0.711614 23.1897C0.0568581 28.2905 0.929452 33.4709 3.21904 38.0757C5.50862 42.6805 9.11235 46.5029 13.5745 49.0595C18.0366 51.6161 23.1566 52.792 28.287 52.4385C33.4175 52.085 38.3279 50.218 42.3972 47.0736C53.7559 38.2953 55.8529 21.9714 47.078 10.6086Z" fill="#FF6C37"/>
<path d="M35.269 17.0663L24.3061 28.1163L21.208 24.9313C31.9979 14.1413 33.0802 15.1163 35.269 17.0663Z" fill="#F3F3F6"/>
<path d="M24.3059 28.4186C24.2088 28.4162 24.1161 28.3776 24.0459 28.3105L20.9259 25.1905C20.8557 25.1178 20.8164 25.0206 20.8164 24.9195C20.8164 24.8184 20.8557 24.7213 20.9259 24.6486C31.5639 14.0105 33.0158 14.5086 35.5289 16.7836C35.571 16.8172 35.6046 16.8602 35.6272 16.9092C35.6497 16.9581 35.6606 17.0116 35.6589 17.0655C35.6751 17.1711 35.6345 17.2792 35.5508 17.3474L24.5878 28.3113C24.511 28.3818 24.4102 28.4196 24.3059 28.4186ZM21.749 24.9305L24.3059 27.4874L34.7058 17.0874C34.3467 16.6374 33.8344 16.3356 33.2667 16.2397C32.699 16.1437 32.1159 16.2604 31.6289 16.5674C29.7439 17.4124 26.7109 19.9905 21.749 24.9305Z" fill="#FF6C37"/>
<path d="M27.448 31.1714L24.458 28.1164L35.421 17.2825C38.3679 20.1645 33.991 24.9753 27.448 31.1714Z" fill="#F3F3F6"/>
<path d="M27.448 31.5613C27.3521 31.5536 27.261 31.5158 27.188 31.4532L24.133 28.4632C24.0872 28.3521 24.0872 28.2274 24.133 28.1163C24.1005 28.0251 24.1005 27.9255 24.133 27.8343L35.096 16.8713C35.1722 16.7996 35.2729 16.7598 35.3775 16.7598C35.4821 16.7598 35.5828 16.7996 35.6591 16.8713C36.0141 17.198 36.2946 17.5974 36.4815 18.0423C36.6684 18.4872 36.7572 18.967 36.7421 19.4493C36.7421 22.3743 33.4052 26.0574 27.7291 31.4313C27.6533 31.5063 27.5543 31.5523 27.448 31.5613ZM25.0211 28.1163L27.4691 30.5635C31.8021 26.4685 35.941 22.2435 35.9621 19.3835C35.9857 18.7772 35.7852 18.1834 35.3991 17.7155L25.0211 28.1163Z" fill="#FF6C37"/>
<path d="M21.2946 24.9963L23.4616 27.1632C23.4754 27.1754 23.4865 27.1904 23.4941 27.2072C23.5017 27.224 23.5056 27.2423 23.5056 27.2607C23.5056 27.2791 23.5017 27.2974 23.4941 27.3142C23.4865 27.331 23.4754 27.346 23.4616 27.3582L18.8897 28.3332C18.7974 28.3531 18.7011 28.3423 18.6155 28.3025C18.5299 28.2626 18.4597 28.1959 18.4155 28.1125C18.3714 28.029 18.3557 27.9334 18.3709 27.8402C18.3861 27.747 18.4313 27.6614 18.4997 27.5963L21.1646 24.9532C21.1646 24.9532 21.2516 24.9532 21.2946 24.9963Z" fill="#F3F3F6"/>
<path d="M18.7807 28.7663C18.6362 28.7644 18.4947 28.7256 18.3695 28.6535C18.2443 28.5814 18.1397 28.4784 18.0657 28.3543C17.9824 28.1972 17.9522 28.0173 17.9796 27.8416C18.0069 27.6658 18.0905 27.5037 18.2176 27.3793L20.8607 24.7143C20.956 24.6291 21.0794 24.582 21.2072 24.582C21.3351 24.582 21.4584 24.6291 21.5537 24.7143L23.7207 26.8813C23.849 27.0031 23.8994 27.1876 23.8507 27.3582C23.8019 27.5288 23.6589 27.6645 23.4826 27.7051L18.9107 28.6801L18.7807 28.7663ZM21.2076 25.4732L18.7596 27.9213L22.8115 27.0543L21.2076 25.4732Z" fill="#FF6C37"/>
<path d="M41.0975 10.9774C39.5294 9.46452 37.0659 9.40114 35.4214 10.8287C33.7769 12.2563 33.4958 14.7068 34.7763 16.4699C36.0568 18.233 38.4707 18.727 40.3395 17.6074L37.3926 14.6605L41.0975 10.9774Z" fill="#F3F3F6"/>
<path d="M38.1735 18.6036C37.2725 18.5921 36.3949 18.3157 35.65 17.8089C34.9051 17.302 34.3257 16.5872 33.9842 15.7534C33.643 14.9202 33.5534 14.0053 33.7267 13.1218C33.9 12.2383 34.3285 11.425 34.9592 10.7825C35.8267 9.931 36.9937 9.45393 38.2092 9.45393C39.4247 9.45393 40.5917 9.931 41.4592 10.7825C41.5421 10.8524 41.5892 10.9556 41.5892 11.0645C41.589 11.118 41.5773 11.1709 41.5548 11.2196C41.5324 11.2682 41.4998 11.3115 41.4592 11.3464L37.9492 14.6614L40.6142 17.2833C40.6574 17.3246 40.6898 17.3757 40.7086 17.4324C40.7275 17.4891 40.7321 17.5495 40.7223 17.6083C40.7158 17.6651 40.697 17.7198 40.6671 17.7686C40.6372 17.8173 40.5969 17.8588 40.5492 17.8903C39.8332 18.3378 39.0102 18.5847 38.1661 18.6053L38.1735 18.6036ZM38.1735 10.1967C36.6297 10.2048 35.2485 11.1335 34.6692 12.553C34.0899 13.9724 34.4051 15.6063 35.4873 16.6967C36.0257 17.2381 36.7149 17.6044 37.4649 17.7475C38.2148 17.8906 38.9905 17.8038 39.6904 17.4986L37.1335 14.9417C37.0928 14.9092 37.06 14.868 37.0374 14.8211C37.0149 14.7742 37.0032 14.7228 37.0032 14.6707C37.0032 14.6187 37.0149 14.5673 37.0374 14.5204C37.06 14.4735 37.0928 14.4323 37.1335 14.3998L40.5134 10.9978C39.8416 10.4829 39.02 10.2021 38.1735 10.1967Z" fill="#FF6C37"/>
<path d="M41.162 11.0424L37.457 14.7254L40.4039 17.6724C40.7005 17.5021 40.9767 17.2985 41.227 17.0654C41.9994 16.2491 42.4243 15.1645 42.4122 14.0408C42.4001 12.917 41.9518 11.8419 41.162 11.0424Z" fill="#F3F3F6"/>
<path d="M40.3391 17.9974C40.2905 18.0001 40.2418 17.9917 40.1968 17.973C40.1518 17.9543 40.1116 17.9257 40.0791 17.8894L37.1322 14.9424C37.0916 14.9099 37.0588 14.8687 37.0362 14.8218C37.0137 14.7749 37.002 14.7235 37.002 14.6715C37.002 14.6194 37.0137 14.568 37.0362 14.5211C37.0588 14.4742 37.0916 14.433 37.1322 14.4005L40.8153 10.7824C40.8508 10.7288 40.8991 10.6848 40.9558 10.6544C41.0126 10.6239 41.0759 10.608 41.1403 10.608C41.2046 10.608 41.268 10.6239 41.3247 10.6544C41.3814 10.6848 41.4297 10.7288 41.4653 10.7824C41.8976 11.2061 42.2411 11.7117 42.4756 12.2698C42.7101 12.8279 42.8309 13.4271 42.8309 14.0324C42.8309 14.6378 42.7101 15.237 42.4756 15.7951C42.2411 16.3531 41.8976 16.8588 41.4653 17.2824C41.2102 17.553 40.9184 17.7863 40.5983 17.9755C40.5178 18.0161 40.4254 18.024 40.3391 17.9974ZM37.9561 14.6613L40.4041 17.1094C40.5725 16.9913 40.732 16.861 40.8811 16.7194C41.6007 16.0017 42.0061 15.0277 42.008 14.0113C42.0097 13.1018 41.6781 12.2231 41.0761 11.5413L37.9561 14.6613Z" fill="#FF6C37"/>
<path d="M35.7242 17.5214C35.4308 17.2458 35.0433 17.0924 34.6408 17.0924C34.2382 17.0924 33.8507 17.2458 33.5573 17.5214L23.7432 27.3136L25.3682 28.9605L35.7462 19.8605C35.9044 19.7089 36.03 19.5264 36.115 19.3243C36.2001 19.1223 36.243 18.905 36.2409 18.6858C36.2389 18.4666 36.192 18.2501 36.1031 18.0497C36.0142 17.8493 35.8853 17.67 35.7242 17.5214Z" fill="#F3F3F6"/>
<path d="M25.2811 29.3513C25.184 29.3489 25.0913 29.3103 25.0211 29.2432L23.3742 27.5963C23.3039 27.5236 23.2646 27.4264 23.2646 27.3253C23.2646 27.2242 23.3039 27.127 23.3742 27.0543L33.1891 17.2824C33.4718 17 33.8328 16.8091 34.2253 16.7344C34.6178 16.6597 35.0237 16.7046 35.3904 16.8634C35.7571 17.0222 36.0676 17.2875 36.2816 17.6248C36.4957 17.9622 36.6035 18.3561 36.591 18.7555C36.5798 19.0265 36.5145 19.2926 36.3992 19.5382C36.2838 19.7837 36.1206 20.0038 35.9191 20.1855L25.5411 29.2855C25.4656 29.3389 25.3728 29.3629 25.2811 29.3513ZM24.133 27.3135L25.2161 28.4185L35.3991 19.5566C35.651 19.3372 35.8013 19.0236 35.811 18.6896C35.8208 18.3557 35.6891 18.0291 35.443 17.8016C35.2156 17.5752 34.9078 17.4481 34.587 17.4481C34.2661 17.4481 33.9584 17.5752 33.731 17.8016L24.133 27.3135Z" fill="#FF6C37"/>
<path d="M16.1377 38.4723C16.11 38.51 16.0951 38.5556 16.0951 38.6023C16.0951 38.6491 16.11 38.6947 16.1377 38.7323L16.5708 40.6173C16.5881 40.7283 16.5717 40.8418 16.5236 40.9433C16.4755 41.0447 16.3979 41.1293 16.301 41.1861C16.2045 41.2425 16.0925 41.2669 15.9813 41.2557C15.87 41.2444 15.7652 41.1982 15.6819 41.1235L12.7139 38.2635L21.9657 28.9385H25.1727L27.3396 31.1054C23.9594 34.0608 20.1904 36.5395 16.1377 38.4723Z" fill="#F3F3F6"/>
<path d="M15.9425 41.6575C15.6972 41.6526 15.455 41.5519 15.2925 41.3756L12.4545 38.5375C12.4138 38.505 12.381 38.4638 12.3585 38.4169C12.3359 38.3699 12.3242 38.3186 12.3242 38.2665C12.3242 38.2145 12.3359 38.1631 12.3585 38.1162C12.381 38.0693 12.4138 38.0281 12.4545 37.9956L21.7706 28.6575C21.8227 28.6021 21.8909 28.5643 21.9656 28.5494H25.1936C25.2777 28.5197 25.3695 28.5197 25.4536 28.5494L27.6205 30.7164C27.6617 30.7544 27.6931 30.8018 27.7119 30.8546C27.7307 30.9074 27.7365 30.9639 27.7286 31.0194C27.7301 31.0733 27.7192 31.1267 27.6966 31.1756C27.6741 31.2245 27.6405 31.2676 27.5986 31.3014L27.4255 31.4533C24.0317 34.2827 20.2978 36.6772 16.3106 38.5814L16.7225 40.3364C16.7544 40.4718 16.7556 40.6125 16.7261 40.7485C16.6966 40.8844 16.6371 41.012 16.552 41.122C16.467 41.232 16.3584 41.3216 16.2342 41.3843C16.1101 41.447 15.9735 41.4812 15.8345 41.4844L15.9425 41.6575ZM13.2995 38.2556L15.8556 40.8336C15.8794 40.8549 15.9102 40.8666 15.9421 40.8666C15.974 40.8666 16.0048 40.8549 16.0287 40.8336C16.0446 40.8115 16.0532 40.7849 16.0532 40.7577C16.0532 40.7304 16.0446 40.7038 16.0287 40.6817L15.5956 38.7967C15.5615 38.6614 15.5752 38.5185 15.6344 38.3922C15.6937 38.2658 15.7948 38.1639 15.9206 38.1036C19.8006 36.2249 23.4382 33.8821 26.7536 31.1267L24.9767 29.3497H22.0736L13.2995 38.2556Z" fill="#FF6C37"/>
<path d="M10.4835 40.4873L12.6504 38.3204L15.9873 41.6573L10.6793 41.2893C10.5881 41.2821 10.5016 41.2464 10.432 41.1871C10.3623 41.1279 10.3132 41.0482 10.2916 40.9593C10.27 40.8705 10.277 40.7771 10.3116 40.6925C10.3462 40.6079 10.4066 40.5364 10.4843 40.4882L10.4835 40.4873Z" fill="#F3F3F6"/>
<path d="M16.0507 41.9823L10.7638 41.6143C10.4502 41.585 10.1804 41.3705 10.0699 41.0837C9.95943 40.7969 10.0269 40.4565 10.2438 40.2273L12.4107 38.0604C12.4834 37.9902 12.5806 37.9509 12.6817 37.9509C12.7828 37.9509 12.8799 37.9902 12.9527 38.0604L16.2676 41.3754C16.3135 41.4383 16.3383 41.5141 16.3383 41.5919C16.3383 41.6698 16.3135 41.7456 16.2676 41.8085C16.2175 41.8895 16.1409 41.9515 16.0507 41.9823ZM10.7638 40.7693L15.0968 41.0512L12.7138 38.8193L10.7638 40.7693Z" fill="#FF6C37"/>
<path d="M25.4765 29.2001L21.0996 29.8721L23.6346 27.359L25.4765 29.2001Z" fill="#F3F3F6"/>
<path d="M21.0996 30.2824C21.0268 30.2843 20.9552 30.2648 20.8935 30.2262C20.8318 30.1876 20.7828 30.1317 20.7527 30.0655C20.7065 30.0027 20.6816 29.9268 20.6816 29.8489C20.6816 29.771 20.7065 29.6952 20.7527 29.6324L23.2657 27.0974C23.3419 27.0258 23.4426 26.9859 23.5472 26.9859C23.6518 26.9859 23.7525 27.0258 23.8288 27.0974L25.6715 28.9385C25.7083 28.9969 25.7278 29.0645 25.7278 29.1335C25.7278 29.2025 25.7083 29.2701 25.6715 29.3285C25.6534 29.3997 25.6152 29.4641 25.5615 29.5141C25.5077 29.5641 25.4407 29.5976 25.3684 29.6105L21.0354 30.2824H21.0996ZM23.6346 27.9205L22.2265 29.3285L24.6534 28.9605L23.6346 27.9205Z" fill="#FF6C37"/>
<path d="M25.4766 29.1985L22.4216 29.5885C22.3399 29.6071 22.2543 29.5988 22.1776 29.5649C22.101 29.531 22.0373 29.4733 21.9959 29.4004C21.9546 29.3274 21.9379 29.2431 21.9483 29.1599C21.9587 29.0767 21.9956 28.9991 22.0536 28.9385L23.6355 27.3566L25.4766 29.1985Z" fill="#F3F3F6"/>
<path d="M22.3339 30.0014C22.1923 30 22.0536 29.9612 21.9318 29.8888C21.8101 29.8165 21.7097 29.7132 21.6408 29.5894C21.5581 29.4411 21.526 29.2698 21.5495 29.1016C21.5729 28.9334 21.6507 28.7775 21.7708 28.6575L23.3528 27.0756C23.429 27.0039 23.5297 26.964 23.6343 26.964C23.7389 26.964 23.8396 27.0039 23.9158 27.0756L25.7577 28.9175C25.8125 28.9694 25.8511 29.0361 25.8687 29.1094C25.8863 29.1828 25.8823 29.2597 25.8571 29.3308C25.8319 29.402 25.7866 29.4643 25.7267 29.5101C25.6668 29.556 25.5949 29.5836 25.5197 29.5894L22.4866 29.9794L22.3339 30.0014ZM22.3339 29.1994L24.6308 28.9175L23.6128 27.8994L22.3128 29.1994H22.3339ZM41.1838 13.5344C41.143 13.4661 41.0785 13.4151 41.0025 13.3911C40.9266 13.3671 40.8445 13.3719 40.7718 13.4044C40.736 13.4226 40.7041 13.4478 40.6782 13.4785C40.6522 13.5092 40.6327 13.5448 40.6207 13.5832C40.5966 13.6606 40.6042 13.7445 40.6418 13.8164C40.7938 14.1357 40.7515 14.5135 40.5338 14.7914C40.5067 14.8181 40.4855 14.8502 40.4716 14.8856C40.4576 14.921 40.4511 14.9589 40.4525 14.9969C40.4533 15.0731 40.4822 15.1463 40.5338 15.2025C40.5894 15.2244 40.6512 15.2244 40.7068 15.2025C40.7573 15.2152 40.8102 15.2138 40.86 15.1984C40.9097 15.1831 40.9542 15.1544 40.9888 15.1156C41.1672 14.8971 41.2802 14.6327 41.3147 14.3527C41.3492 14.0728 41.3038 13.7897 41.1838 13.5344Z" fill="#FF6C37"/>
</svg>
