<svg width="64" height="64" viewBox="0 0 64 64" fill="none" xmlns="http://www.w3.org/2000/svg">
<rect width="64" height="64" rx="16" fill="#1B5093"/>
<path d="M49.4123 18.5534C46.7527 15.1094 43.1314 12.5314 39.0066 11.1455C34.8817 9.7597 30.4385 9.62822 26.2389 10.7677C22.0393 11.9073 18.2719 14.2666 15.4133 17.5473C12.5546 20.8281 10.7331 24.8829 10.1791 29.199C9.62503 33.515 10.3634 37.8984 12.3007 41.7948C14.2381 45.6912 17.2874 48.9256 21.0631 51.0888C24.8387 53.2521 29.1711 54.2471 33.5123 53.948C37.8534 53.6488 42.0084 52.0691 45.4517 49.4084C55.0629 41.9807 56.8373 28.1681 49.4123 18.5534Z" fill="#FF6C37"/>
<path d="M39.4194 24.0178L30.1429 33.3677L27.5215 30.6727C36.6515 21.5428 37.5672 22.3678 39.4194 24.0178Z" fill="#F3F3F6"/>
<path d="M30.1441 33.6235C30.0619 33.6215 29.9835 33.5889 29.9241 33.5321L27.2841 30.8921C27.2246 30.8306 27.1914 30.7484 27.1914 30.6628C27.1914 30.5773 27.2246 30.4951 27.2841 30.4335C36.2855 21.4321 37.5141 21.8535 39.6405 23.7785C39.6761 23.807 39.7046 23.8434 39.7237 23.8848C39.7428 23.9262 39.752 23.9715 39.7505 24.0171C39.7643 24.1065 39.7299 24.1979 39.6591 24.2557L30.3826 33.5328C30.3176 33.5924 30.2323 33.6244 30.1441 33.6235ZM27.9805 30.6721L30.1441 32.8357L38.9441 24.0357C38.6402 23.6549 38.2067 23.3995 37.7263 23.3183C37.246 23.2371 36.7526 23.3359 36.3405 23.5957C34.7455 24.3107 32.1791 26.4921 27.9805 30.6721Z" fill="#FF6C37"/>
<path d="M32.8015 35.9528L30.2715 33.3678L39.5479 24.2007C42.0415 26.6392 38.3379 30.7099 32.8015 35.9528Z" fill="#F3F3F6"/>
<path d="M32.8028 36.2824C32.7217 36.276 32.6446 36.244 32.5828 36.191L29.9978 33.661C29.9591 33.567 29.9591 33.4614 29.9978 33.3674C29.9703 33.2903 29.9703 33.206 29.9978 33.1289L39.2743 23.8524C39.3388 23.7918 39.424 23.7581 39.5125 23.7581C39.601 23.7581 39.6862 23.7918 39.7507 23.8524C40.0511 24.1289 40.2885 24.4669 40.4466 24.8433C40.6047 25.2197 40.6799 25.6258 40.6671 26.0339C40.6671 28.5089 37.8436 31.6253 33.0407 36.1724C32.9765 36.2359 32.8928 36.2749 32.8028 36.2824ZM30.7493 33.3674L32.8207 35.4382C36.4871 31.9732 39.9893 28.3982 40.0071 25.9782C40.0271 25.4651 39.8575 24.9627 39.5307 24.5667L30.7493 33.3674Z" fill="#FF6C37"/>
<path d="M27.5959 30.7276L29.4295 32.5612C29.4412 32.5715 29.4506 32.5842 29.457 32.5984C29.4634 32.6126 29.4667 32.6281 29.4667 32.6437C29.4667 32.6593 29.4634 32.6747 29.457 32.6889C29.4506 32.7031 29.4412 32.7158 29.4295 32.7262L25.5609 33.5512C25.4828 33.568 25.4014 33.5589 25.329 33.5252C25.2565 33.4914 25.1971 33.435 25.1597 33.3644C25.1224 33.2938 25.1091 33.2129 25.122 33.134C25.1348 33.0552 25.1731 32.9827 25.2309 32.9276L27.4859 30.6912C27.4859 30.6912 27.5595 30.6912 27.5959 30.7276Z" fill="#F3F3F6"/>
<path d="M25.4675 33.9175C25.3452 33.9159 25.2254 33.8831 25.1195 33.822C25.0136 33.761 24.9251 33.6739 24.8625 33.5689C24.792 33.4359 24.7664 33.2837 24.7896 33.135C24.8127 32.9863 24.8834 32.8491 24.991 32.7439L27.2275 30.4889C27.3081 30.4168 27.4125 30.377 27.5207 30.377C27.6289 30.377 27.7332 30.4168 27.8139 30.4889L29.6475 32.3225C29.7561 32.4256 29.7987 32.5816 29.7575 32.726C29.7162 32.8704 29.5952 32.9852 29.446 33.0196L25.5775 33.8446L25.4675 33.9175ZM27.521 31.131L25.4496 33.2025L28.8781 32.4689L27.521 31.131Z" fill="#FF6C37"/>
<path d="M44.3533 18.8653C43.0264 17.5852 40.9419 17.5316 39.5504 18.7395C38.1589 19.9474 37.921 22.0209 39.0045 23.5128C40.088 25.0047 42.1306 25.4227 43.7119 24.4753L41.2183 21.9817L44.3533 18.8653Z" fill="#F3F3F6"/>
<path d="M41.8785 25.3185C41.1161 25.3087 40.3735 25.0748 39.7432 24.646C39.1129 24.2171 38.6227 23.6122 38.3337 22.9067C38.0449 22.2018 37.9692 21.4276 38.1158 20.68C38.2625 19.9324 38.625 19.2443 39.1587 18.7006C39.8927 17.9801 40.8802 17.5764 41.9087 17.5764C42.9373 17.5764 43.9247 17.9801 44.6587 18.7006C44.7288 18.7597 44.7687 18.847 44.7687 18.9392C44.7685 18.9845 44.7586 19.0293 44.7397 19.0704C44.7207 19.1116 44.6931 19.1482 44.6587 19.1777L41.6887 21.9827L43.9437 24.2013C43.9802 24.2362 44.0077 24.2795 44.0236 24.3274C44.0396 24.3754 44.0435 24.4265 44.0352 24.4763C44.0297 24.5244 44.0138 24.5706 43.9885 24.6119C43.9632 24.6531 43.9291 24.6883 43.8887 24.7149C43.2829 25.0935 42.5865 25.3025 41.8723 25.3199L41.8785 25.3185ZM41.8785 18.2049C40.5722 18.2118 39.4035 18.9976 38.9133 20.1987C38.4231 21.3997 38.6898 22.7823 39.6056 23.7049C40.0611 24.1631 40.6443 24.473 41.2789 24.594C41.9135 24.7151 42.5699 24.6417 43.162 24.3835L40.9985 22.2199C40.9641 22.1924 40.9363 22.1575 40.9172 22.1178C40.8981 22.0781 40.8882 22.0347 40.8882 21.9906C40.8882 21.9466 40.8981 21.9031 40.9172 21.8634C40.9363 21.8237 40.9641 21.7889 40.9985 21.7614L43.8585 18.8828C43.2899 18.4471 42.5947 18.2095 41.8785 18.2049Z" fill="#FF6C37"/>
<path d="M44.4084 18.9204L41.2734 22.0368L43.767 24.5304C44.018 24.3863 44.2516 24.214 44.4634 24.0168C45.117 23.3261 45.4766 22.4084 45.4663 21.4575C45.456 20.5066 45.0767 19.5969 44.4084 18.9204Z" fill="#F3F3F6"/>
<path d="M43.7105 24.8056C43.6693 24.8078 43.6282 24.8007 43.5901 24.7849C43.552 24.7691 43.518 24.7449 43.4905 24.7141L40.997 22.2206C40.9626 22.1931 40.9348 22.1582 40.9157 22.1185C40.8966 22.0788 40.8867 22.0353 40.8867 21.9913C40.8867 21.9472 40.8966 21.9038 40.9157 21.8641C40.9348 21.8244 40.9626 21.7895 40.997 21.762L44.1134 18.7006C44.1435 18.6552 44.1844 18.618 44.2323 18.5922C44.2803 18.5665 44.3339 18.553 44.3884 18.553C44.4428 18.553 44.4965 18.5665 44.5444 18.5922C44.5924 18.618 44.6333 18.6552 44.6634 18.7006C45.0292 19.059 45.3199 19.4869 45.5183 19.9591C45.7167 20.4313 45.8189 20.9384 45.8189 21.4506C45.8189 21.9628 45.7167 22.4698 45.5183 22.942C45.3199 23.4142 45.0292 23.8421 44.6634 24.2006C44.4476 24.4295 44.2006 24.6269 43.9298 24.787C43.8616 24.8214 43.7835 24.828 43.7105 24.8056ZM41.6941 21.9827L43.7655 24.0541C43.908 23.9543 44.0429 23.8439 44.1691 23.7241C44.778 23.1168 45.121 22.2927 45.1226 21.4327C45.124 20.6631 44.8435 19.9196 44.3341 19.3427L41.6941 21.9827Z" fill="#FF6C37"/>
<path d="M39.8039 24.4025C39.5556 24.1693 39.2277 24.0396 38.8871 24.0396C38.5465 24.0396 38.2186 24.1693 37.9703 24.4025L29.666 32.6883L31.041 34.0818L39.8224 26.3818C39.9564 26.2535 40.0626 26.0991 40.1346 25.9281C40.2066 25.7572 40.2428 25.5733 40.2411 25.3878C40.2394 25.2023 40.1997 25.0192 40.1245 24.8496C40.0493 24.68 39.9402 24.5283 39.8039 24.4025Z" fill="#F3F3F6"/>
<path d="M30.9679 34.4126C30.8858 34.4106 30.8073 34.378 30.7479 34.3211L29.3544 32.9276C29.2949 32.8661 29.2617 32.7839 29.2617 32.6983C29.2617 32.6128 29.2949 32.5306 29.3544 32.469L37.6594 24.2005C37.8986 23.9615 38.2041 23.8 38.5362 23.7368C38.8683 23.6736 39.2118 23.7116 39.522 23.8459C39.8323 23.9803 40.095 24.2047 40.2762 24.4902C40.4573 24.7757 40.5485 25.109 40.5379 25.4469C40.5284 25.6763 40.4732 25.9014 40.3756 26.1092C40.278 26.317 40.1399 26.5032 39.9694 26.6569L31.1879 34.3569C31.1241 34.4021 31.0456 34.4224 30.9679 34.4126ZM29.9965 32.6883L30.9129 33.6233L39.5294 26.1248C39.7425 25.9392 39.8697 25.6738 39.8779 25.3912C39.8862 25.1087 39.7748 24.8323 39.5665 24.6398C39.3741 24.4482 39.1137 24.3407 38.8422 24.3407C38.5707 24.3407 38.3103 24.4482 38.1179 24.6398L29.9965 32.6883Z" fill="#FF6C37"/>
<path d="M23.2331 42.1304C23.2096 42.1622 23.197 42.2008 23.197 42.2404C23.197 42.2799 23.2096 42.3185 23.2331 42.3504L23.5995 43.9454C23.6142 44.0392 23.6003 44.1353 23.5596 44.2212C23.5188 44.307 23.4532 44.3786 23.3712 44.4266C23.2896 44.4744 23.1948 44.495 23.1007 44.4855C23.0065 44.476 22.9178 44.4368 22.8474 44.3737L20.3359 41.9537L28.1645 34.0632H30.8781L32.7116 35.8968C29.8514 38.3975 26.6623 40.4949 23.2331 42.1304Z" fill="#F3F3F6"/>
<path d="M23.0675 44.8256C22.8599 44.8215 22.655 44.7363 22.5175 44.5871L20.1161 42.1856C20.0817 42.1581 20.0539 42.1233 20.0348 42.0836C20.0158 42.0439 20.0059 42.0004 20.0059 41.9564C20.0059 41.9123 20.0158 41.8688 20.0348 41.8292C20.0539 41.7895 20.0817 41.7546 20.1161 41.7271L27.999 33.8256C28.0431 33.7787 28.1008 33.7468 28.164 33.7342H30.8954C30.9666 33.709 31.0442 33.709 31.1154 33.7342L32.949 35.5678C32.9838 35.5999 33.0104 35.64 33.0263 35.6847C33.0422 35.7294 33.0471 35.7773 33.0404 35.8242C33.0417 35.8698 33.0324 35.915 33.0134 35.9564C32.9943 35.9978 32.9659 36.0342 32.9304 36.0628L32.784 36.1913C29.9122 38.5854 26.7528 40.6116 23.379 42.2228L23.7275 43.7078C23.7545 43.8223 23.7555 43.9414 23.7306 44.0565C23.7056 44.1715 23.6553 44.2794 23.5833 44.3725C23.5113 44.4656 23.4194 44.5414 23.3144 44.5945C23.2093 44.6476 23.0937 44.6765 22.9761 44.6792L23.0675 44.8256ZM20.8311 41.9471L22.994 44.1285C23.0141 44.1465 23.0402 44.1564 23.0672 44.1564C23.0942 44.1564 23.1203 44.1465 23.1404 44.1285C23.1539 44.1098 23.1611 44.0873 23.1611 44.0642C23.1611 44.0412 23.1539 44.0187 23.1404 44L22.774 42.405C22.7451 42.2905 22.7567 42.1695 22.8068 42.0627C22.8569 41.9558 22.9425 41.8695 23.049 41.8185C26.3321 40.2288 29.4101 38.2465 32.2154 35.915L30.7118 34.4114H28.2554L20.8311 41.9471Z" fill="#FF6C37"/>
<path d="M18.4481 43.8355L20.2817 42.002L23.1053 44.8255L18.6138 44.5141C18.5367 44.508 18.4635 44.4778 18.4046 44.4276C18.3457 44.3775 18.3041 44.3101 18.2858 44.2349C18.2675 44.1597 18.2734 44.0807 18.3027 44.0091C18.332 43.9375 18.3831 43.877 18.4488 43.8362L18.4481 43.8355Z" fill="#F3F3F6"/>
<path d="M23.1577 45.1004L18.6842 44.789C18.4188 44.7642 18.1905 44.5827 18.097 44.3401C18.0035 44.0974 18.0606 43.8093 18.2442 43.6154L20.0777 41.7819C20.1392 41.7224 20.2215 41.6892 20.307 41.6892C20.3925 41.6892 20.4748 41.7224 20.5363 41.7819L23.3413 44.5869C23.3801 44.6401 23.401 44.7042 23.401 44.7701C23.401 44.836 23.3801 44.9001 23.3413 44.9533C23.2989 45.0219 23.234 45.0743 23.1577 45.1004ZM18.6842 44.074L22.3506 44.3126L20.3342 42.424L18.6842 44.074Z" fill="#FF6C37"/>
<path d="M31.1332 34.2847L27.4297 34.8532L29.5747 32.7268L31.1332 34.2847Z" fill="#F3F3F6"/>
<path d="M27.4298 35.2005C27.3683 35.2021 27.3076 35.1856 27.2554 35.1529C27.2032 35.1203 27.1618 35.073 27.1363 35.0169C27.0972 34.9638 27.0762 34.8996 27.0762 34.8337C27.0762 34.7678 27.0972 34.7036 27.1363 34.6505L29.2627 32.5055C29.3272 32.4449 29.4124 32.4111 29.5009 32.4111C29.5894 32.4111 29.6746 32.4449 29.7391 32.5055L31.2984 34.0634C31.3295 34.1128 31.3461 34.17 31.3461 34.2284C31.3461 34.2868 31.3295 34.344 31.2984 34.3934C31.2831 34.4536 31.2508 34.5081 31.2053 34.5504C31.1598 34.5927 31.1031 34.621 31.0419 34.6319L27.3755 35.2005H27.4298ZM29.5748 33.2019L28.3834 34.3934L30.4369 34.0819L29.5748 33.2019Z" fill="#FF6C37"/>
<path d="M31.1345 34.2834L28.5495 34.6134C28.4804 34.6291 28.408 34.6221 28.3431 34.5934C28.2782 34.5648 28.2243 34.5159 28.1893 34.4542C28.1544 34.3925 28.1402 34.3211 28.149 34.2507C28.1578 34.1803 28.189 34.1147 28.2381 34.0634L29.5767 32.7249L31.1345 34.2834Z" fill="#F3F3F6"/>
<path d="M28.4748 34.9629C28.3549 34.9617 28.2376 34.9289 28.1345 34.8676C28.0315 34.8064 27.9466 34.719 27.8883 34.6143C27.8183 34.4888 27.7912 34.3439 27.811 34.2016C27.8309 34.0592 27.8966 33.9273 27.9983 33.8257L29.3369 32.4872C29.4014 32.4266 29.4866 32.3928 29.5751 32.3928C29.6636 32.3928 29.7488 32.4266 29.8133 32.4872L31.3719 34.0457C31.4182 34.0896 31.4508 34.1461 31.4658 34.2081C31.4807 34.2702 31.4773 34.3353 31.456 34.3955C31.4346 34.4557 31.3963 34.5084 31.3456 34.5472C31.295 34.5861 31.2341 34.6094 31.1704 34.6143L28.604 34.9443L28.4748 34.9629ZM28.4748 34.2843L30.4183 34.0457L29.5569 33.1843L28.4569 34.2843H28.4748ZM44.4248 21.0293C44.3902 20.9714 44.3356 20.9283 44.2714 20.908C44.2071 20.8877 44.1377 20.8918 44.0762 20.9193C44.0458 20.9347 44.0189 20.956 43.9969 20.982C43.975 21.0079 43.9584 21.0381 43.9483 21.0706C43.9279 21.1361 43.9343 21.2071 43.9662 21.2679C44.0947 21.5381 44.059 21.8577 43.8748 22.0929C43.8519 22.1155 43.8339 22.1427 43.8221 22.1726C43.8103 22.2026 43.8048 22.2346 43.806 22.2668C43.8067 22.3313 43.8312 22.3932 43.8748 22.4407C43.9218 22.4593 43.9741 22.4593 44.0212 22.4407C44.0639 22.4515 44.1087 22.4503 44.1508 22.4373C44.1928 22.4243 44.2305 22.4001 44.2598 22.3672C44.4107 22.1823 44.5063 21.9586 44.5355 21.7217C44.5647 21.4849 44.5263 21.2453 44.4248 21.0293Z" fill="#FF6C37"/>
</svg>
