<svg width="64" height="64" viewBox="0 0 64 64" fill="none" xmlns="http://www.w3.org/2000/svg">
<rect width="64" height="64" rx="16" fill="#1B5093"/>
<g clip-path="url(#clip0_41_7213)">
<path d="M32 31.4999C32 27.5419 35.581 24.3333 39.9984 24.3333C44.4157 24.3333 47.9968 27.5419 47.9968 31.4999C47.9968 35.458 44.4157 38.6666 39.9984 38.6666C35.581 38.6666 32 35.458 32 31.4999Z" fill="#1ABCFE"/>
<path d="M16.0029 45.8334C16.0029 41.8754 19.5839 38.6667 24.0013 38.6667H31.9997V45.8334C31.9997 49.7915 28.4188 53.0001 24.0013 53.0001C19.5839 53.0001 16.0029 49.7915 16.0029 45.8334Z" fill="#0ACF83"/>
<path d="M32 10V24.3332H39.9984C44.4158 24.3332 47.9968 21.1246 47.9968 17.1666C47.9968 13.2085 44.4158 10 39.9984 10H32Z" fill="#FF7262"/>
<path d="M16.0039 17.1667C16.0039 21.1247 19.5849 24.3333 24.0023 24.3333H32.0007V10H24.0023C19.5849 10 16.0039 13.2087 16.0039 17.1667Z" fill="#F24E1E"/>
<path d="M16.0029 31.4999C16.0029 35.458 19.5839 38.6666 24.0013 38.6666H31.9997V24.3333H24.0013C19.5839 24.3333 16.0029 27.5419 16.0029 31.4999Z" fill="#A259FF"/>
</g>
<defs>
<clipPath id="clip0_41_7213">
<rect width="32" height="43" fill="white" transform="translate(16 10)"/>
</clipPath>
</defs>
</svg>
