<svg width="64" height="64" viewBox="0 0 64 64" fill="none" xmlns="http://www.w3.org/2000/svg">
<rect width="64" height="64" rx="16" fill="#1B5093"/>
<g clip-path="url(#clip0_40_7178)">
<path d="M46.0892 18.6403C46.0586 18.4203 45.8637 18.2986 45.7027 18.2852C45.542 18.2719 42.1408 18.0225 42.1408 18.0225C42.1408 18.0225 39.7787 15.7027 39.5194 15.446C39.26 15.1893 38.7533 15.2674 38.5567 15.3247C38.5277 15.3331 38.0406 15.4818 37.2348 15.7285C36.4457 13.4824 35.0531 11.4183 32.6032 11.4183C32.5356 11.4183 32.466 11.421 32.3964 11.4249C31.6996 10.5134 30.8365 10.1174 30.091 10.1174C24.384 10.1174 21.6575 17.1748 20.8027 20.7611C18.5851 21.4408 17.0097 21.924 16.8084 21.9866C15.5706 22.3707 15.5315 22.4093 15.3689 23.563C15.2466 24.4366 12.0078 49.2135 12.0078 49.2135L37.2453 53.8911L50.9198 50.9648C50.9198 50.9648 46.1193 18.8603 46.0892 18.6403ZM35.8399 16.1552L33.7044 16.809C33.7052 16.6602 33.7059 16.5137 33.7059 16.3535C33.7059 14.9576 33.51 13.8336 33.1958 12.9426C34.4581 13.0993 35.2988 14.5201 35.8399 16.1552ZM31.6299 13.2194C31.9808 14.0893 32.209 15.3378 32.209 17.0224C32.209 17.1086 32.2082 17.1874 32.2075 17.2671C30.8187 17.6927 29.3096 18.1547 27.7971 18.6182C28.6464 15.376 30.2382 13.8101 31.6299 13.2194ZM29.9343 11.6317C30.1806 11.6317 30.4287 11.7144 30.6662 11.8761C28.8372 12.7274 26.8767 14.8717 26.0488 19.1537L22.5627 20.2218C23.5324 16.9557 25.8351 11.6317 29.9343 11.6317Z" fill="#95BF46"/>
<path d="M45.7023 18.2851C45.5416 18.2718 42.1404 18.0224 42.1404 18.0224C42.1404 18.0224 39.7783 15.7026 39.519 15.4459C39.422 15.3503 39.2911 15.3014 39.1543 15.2803L37.2461 53.8907L50.9194 50.9647C50.9194 50.9647 46.1189 18.8602 46.0888 18.6402C46.0581 18.4202 45.8633 18.2985 45.7023 18.2851Z" fill="#5E8E3E"/>
<path d="M32.6033 25.7594L30.9172 30.7208C30.9172 30.7208 29.4399 29.9409 27.629 29.9409C24.9742 29.9409 24.8406 31.5889 24.8406 32.0042C24.8406 34.2702 30.8119 35.1385 30.8119 40.4462C30.8119 44.6221 28.1344 47.3111 24.5243 47.3111C20.192 47.3111 17.9766 44.644 17.9766 44.644L19.1365 40.8527C19.1365 40.8527 21.4139 42.7868 23.3355 42.7868C24.5911 42.7868 25.1019 41.8088 25.1019 41.0943C25.1019 38.1385 20.203 38.0066 20.203 33.1496C20.203 29.0616 23.1691 25.1057 29.1566 25.1057C31.4636 25.1057 32.6033 25.7594 32.6033 25.7594Z" fill="#F3F3F6"/>
</g>
<defs>
<clipPath id="clip0_40_7178">
<rect width="39" height="44" fill="white" transform="translate(12 10)"/>
</clipPath>
</defs>
</svg>
