<svg width="24" height="19" viewBox="0 0 24 19" fill="none" xmlns="http://www.w3.org/2000/svg">
<path d="M1 3.04V12.56C1 13.101 1.16556 13.6199 1.46026 14.0025C1.75496 14.3851 2.15466 14.6 2.57143 14.6H10.9524L15.6667 18L14.619 14.6H21.4286C21.8453 14.6 22.245 14.3851 22.5397 14.0025C22.8344 13.6199 23 13.101 23 12.56V3.04C23 2.49896 22.8344 1.98008 22.5397 1.5975C22.245 1.21493 21.8453 1 21.4286 1H2.57143C2.15466 1 1.75496 1.21493 1.46026 1.5975C1.16556 1.98008 1 2.49896 1 3.04Z" stroke="#05408E" stroke-width="1.5" stroke-linejoin="round"/>
<path d="M3.88086 4.97299C4.33586 8.98399 5.08686 11.197 5.08686 11.197L7.66686 6.38599C7.83486 8.21899 8.46186 9.82599 9.69086 11.198C9.48486 8.93799 9.77786 6.77199 10.7779 4.73599M15.1129 8.21799C15.3679 6.95999 14.8579 5.79599 13.9729 5.61699C13.0899 5.43699 12.1669 6.31199 11.9119 7.56899C11.6569 8.82599 12.1669 9.99099 13.0519 10.17C13.9349 10.35 14.8579 9.47499 15.1129 8.21799ZM20.1409 8.27799C20.4009 6.99699 19.9179 5.81799 19.0609 5.64499C18.2019 5.47299 17.2949 6.37199 17.0339 7.65299C16.7729 8.93399 17.2559 10.114 18.1139 10.287C18.9719 10.459 19.8789 9.55999 20.1409 8.27799Z" stroke="#05408E" stroke-linecap="round" stroke-linejoin="round"/>
</svg>
