<svg width="64" height="64" viewBox="0 0 64 64" fill="none" xmlns="http://www.w3.org/2000/svg">
<rect width="64" height="64" rx="16" fill="#1B5093"/>
<path d="M55.7896 32.2351C55.7896 29.0766 51.825 26.0832 45.7466 24.227C47.1493 18.046 46.5259 13.1284 43.7789 11.554C43.1458 11.1847 42.4054 11.0097 41.5969 11.0097V13.177C42.045 13.177 42.4054 13.2644 42.7074 13.4296C44.0322 14.1877 44.6069 17.0741 44.1588 20.7866C44.0517 21.7002 43.8763 22.6623 43.662 23.6439C41.7528 23.1774 39.6682 22.8178 37.4765 22.5846C36.1614 20.7866 34.7977 19.1539 33.4242 17.7253C36.5998 14.7805 39.5805 13.1672 41.6067 13.1672V11C38.9279 11 35.4211 12.9048 31.8753 16.2092C28.3296 12.9243 24.8228 11.0389 22.144 11.0389V13.2061C24.1604 13.2061 27.1509 14.8097 30.3265 17.735C28.9628 19.1636 27.599 20.7866 26.3035 22.5846C24.102 22.8178 22.0174 23.1774 20.1081 23.6536C19.8841 22.6817 19.7185 21.739 19.6016 20.8352C19.1438 17.1227 19.7088 14.2363 21.0238 13.4685C21.316 13.2936 21.6959 13.2158 22.144 13.2158V11.0486C21.3258 11.0486 20.5855 11.2235 19.9425 11.5928C17.2053 13.1672 16.5916 18.0751 18.0041 24.2367C11.9451 26.1027 8 29.0863 8 32.2351C8 35.3937 11.9646 38.387 18.043 40.2432C16.6403 46.4242 17.2638 51.3418 20.0107 52.9163C20.6439 53.2856 21.3842 53.4605 22.2025 53.4605C24.8813 53.4605 28.388 51.5557 31.9338 48.2513C35.4795 51.5362 38.9863 53.4216 41.6651 53.4216C42.4834 53.4216 43.2237 53.2467 43.8666 52.8774C46.6038 51.303 47.2175 46.3951 45.8051 40.2335C51.8445 38.3773 55.7896 35.3839 55.7896 32.2351ZM43.1068 25.7528C42.7464 27.0065 42.2983 28.2991 41.7917 29.5917C41.3924 28.8142 40.9735 28.0367 40.5157 27.2592C40.0676 26.4817 39.5903 25.7237 39.113 24.985C40.4962 25.1891 41.8307 25.4418 43.1068 25.7528ZM38.6454 36.1031C37.8856 37.4151 37.1063 38.6591 36.2978 39.8156C34.8464 39.9419 33.3755 40.01 31.8948 40.01C30.4239 40.01 28.953 39.9419 27.5113 39.8253C26.7028 38.6688 25.9138 37.4346 25.154 36.1323C24.4137 34.8591 23.7416 33.5666 23.1279 32.2643C23.7318 30.962 24.4137 29.6597 25.1443 28.3865C25.9041 27.0745 26.6834 25.8306 27.4919 24.6741C28.9433 24.5477 30.4142 24.4797 31.8948 24.4797C33.3657 24.4797 34.8366 24.5477 36.2783 24.6643C37.0868 25.8208 37.8758 27.0551 38.6356 28.3574C39.376 29.6305 40.0481 30.9231 40.6618 32.2254C40.0481 33.5277 39.376 34.83 38.6454 36.1031ZM41.7917 34.8397C42.3178 36.142 42.7659 37.4443 43.136 38.7077C41.8599 39.0187 40.5157 39.2811 39.1227 39.4852C39.6 38.7368 40.0773 37.9691 40.5254 37.1819C40.9735 36.4044 41.3924 35.6172 41.7917 34.8397ZM31.9143 45.2094C31.0084 44.2764 30.1025 43.2365 29.2063 42.0995C30.083 42.1383 30.9792 42.1675 31.8851 42.1675C32.8007 42.1675 33.7067 42.1481 34.5931 42.0995C33.7164 43.2365 32.8105 44.2764 31.9143 45.2094ZM24.667 39.4852C23.2837 39.2811 21.9492 39.0284 20.6731 38.7174C21.0335 37.4637 21.4816 36.1711 21.9882 34.8786C22.3875 35.6561 22.8064 36.4335 23.2642 37.211C23.7221 37.9885 24.1896 38.7466 24.667 39.4852ZM31.8656 19.2608C32.7715 20.1938 33.6774 21.2337 34.5736 22.3707C33.6969 22.3319 32.8007 22.3027 31.8948 22.3027C30.9792 22.3027 30.0732 22.3222 29.1868 22.3707C30.0635 21.2337 30.9694 20.1938 31.8656 19.2608ZM24.6572 24.985C24.1799 25.7334 23.7026 26.5011 23.2545 27.2884C22.8064 28.0658 22.3875 28.8433 21.9882 29.6208C21.4621 28.3185 21.0141 27.0162 20.6439 25.7528C21.92 25.4515 23.2642 25.1891 24.6572 24.985ZM15.8416 37.1527C12.3932 35.6852 10.1625 33.7609 10.1625 32.2351C10.1625 30.7093 12.3932 28.7753 15.8416 27.3175C16.6793 26.9579 17.5949 26.6372 18.5398 26.3359C19.0951 28.2408 19.8257 30.2234 20.7316 32.2545C19.8354 34.276 19.1146 36.2489 18.5691 38.144C17.6047 37.8427 16.689 37.5123 15.8416 37.1527ZM21.0822 51.0406C19.7575 50.2825 19.1827 47.3961 19.6308 43.6836C19.738 42.7701 19.9133 41.8079 20.1276 40.8263C22.0369 41.2928 24.1215 41.6524 26.3132 41.8857C27.6282 43.6836 28.992 45.3163 30.3655 46.745C27.1899 49.6897 24.2091 51.303 22.183 51.303C21.7446 51.2933 21.3745 51.2058 21.0822 51.0406ZM44.188 43.635C44.6459 47.3475 44.0809 50.2339 42.7659 51.0017C42.4736 51.1766 42.0937 51.2544 41.6456 51.2544C39.6292 51.2544 36.6387 49.6508 33.4631 46.7255C34.8269 45.2969 36.1906 43.6739 37.4862 41.8759C39.6877 41.6427 41.7723 41.2831 43.6815 40.8069C43.9056 41.7885 44.0809 42.7312 44.188 43.635ZM47.9384 37.1527C47.1006 37.5123 46.185 37.833 45.2401 38.1343C44.6848 36.2295 43.9543 34.2469 43.0483 32.2157C43.9445 30.1942 44.6654 28.2213 45.2109 26.3262C46.1752 26.6275 47.0909 26.9579 47.9481 27.3175C51.3964 28.785 53.6271 30.7093 53.6271 32.2351C53.6174 33.7609 51.3867 35.6949 47.9384 37.1527Z" fill="#61DAFB"/>
<path d="M31.8843 36.6765C34.3429 36.6765 36.3359 34.688 36.3359 32.2351C36.3359 29.7822 34.3429 27.7937 31.8843 27.7937C29.4257 27.7937 27.4326 29.7822 27.4326 32.2351C27.4326 34.688 29.4257 36.6765 31.8843 36.6765Z" fill="#61DAFB"/>
</svg>
