<svg width="40" height="40" viewBox="0 0 40 40" fill="none" xmlns="http://www.w3.org/2000/svg">
<rect width="40" height="40" rx="8" fill="#F3F3F6"/>
<path d="M28 11H12C11.4477 11 11 11.4477 11 12V17C11 17.5523 11.4477 18 12 18H28C28.5523 18 29 17.5523 29 17V12C29 11.4477 28.5523 11 28 11Z" stroke="#05408E" stroke-width="1.5" stroke-linecap="round" stroke-linejoin="round"/>
<path d="M19 22H12C11.4477 22 11 22.4477 11 23V28C11 28.5523 11.4477 29 12 29H19C19.5523 29 20 28.5523 20 28V23C20 22.4477 19.5523 22 19 22Z" stroke="#05408E" stroke-width="1.5" stroke-linecap="round" stroke-linejoin="round"/>
<path d="M28 22H25C24.4477 22 24 22.4477 24 23V28C24 28.5523 24.4477 29 25 29H28C28.5523 29 29 28.5523 29 28V23C29 22.4477 28.5523 22 28 22Z" stroke="#05408E" stroke-width="1.5" stroke-linecap="round" stroke-linejoin="round"/>
</svg>
