<svg width="64" height="64" viewBox="0 0 64 64" fill="none" xmlns="http://www.w3.org/2000/svg">
<rect width="64" height="64" rx="16" fill="#1B5093"/>
<g clip-path="url(#clip0_41_7204)">
<path d="M31.3401 8.18042L32.7529 10.5335C33.0705 10.9677 33.4146 11.3521 33.8199 11.71C35.0081 12.7506 36.1157 13.8612 37.1351 15.0343C39.5288 17.8216 41.1434 20.917 42.2965 24.2647C42.988 26.3097 43.3635 28.4075 43.3916 30.5288C43.5074 36.8707 41.0557 42.3162 36.1127 46.8419C35.3087 47.5596 34.4401 48.2181 33.5155 48.8107C33.0258 48.8107 32.7942 48.4777 32.5924 48.1711C32.2249 47.6025 31.9803 46.9781 31.8712 46.33C31.6975 45.5627 31.5833 44.7955 31.6395 44.0033V43.6453C31.5998 43.569 31.1681 8.36086 31.3401 8.18042Z" fill="#599636"/>
<path d="M31.3403 8.10272C31.2824 8.00003 31.2245 8.07778 31.1666 8.12765C31.1947 8.64111 30.9929 9.09881 30.6769 9.53598C30.3295 9.97022 29.8696 10.3032 29.4081 10.6612C26.8439 12.6299 24.8257 15.0079 23.2094 17.6676C21.0589 21.2471 19.9505 25.0833 19.6362 29.122C19.4923 30.5787 20.1556 35.7191 20.6734 37.2023C22.0862 41.1397 24.6239 44.439 27.9109 47.3026C28.7182 47.9921 29.5818 48.6317 30.4751 49.2464C30.7348 49.2464 30.7629 49.041 30.8225 48.8885C30.9363 48.562 31.0231 48.2286 31.0822 47.8909L31.6612 44.0561L31.3403 8.10272Z" fill="#6CAC48"/>
<path d="M32.7535 50.3688C32.8114 49.782 33.1291 49.2949 33.4748 48.8093C33.1274 48.6817 32.8693 48.4279 32.6675 48.1448C32.4935 47.8767 32.3494 47.5942 32.2374 47.3013C31.8338 46.2274 31.7477 45.1007 31.6319 44.0034V43.3389C31.488 43.4416 31.4582 44.31 31.4582 44.4391C31.3741 45.5989 31.2005 46.7522 30.9388 47.891C30.8528 48.3516 30.7949 48.8108 30.4756 49.2201C30.4756 49.2714 30.4756 49.3228 30.5037 49.3991C31.0232 50.7546 31.1654 52.135 31.2531 53.5419V54.0554C31.2531 54.6686 31.225 54.5395 31.799 54.7449C32.0306 54.8211 32.2887 54.8475 32.5203 55.0001C32.694 55.0001 32.7221 54.8725 32.7221 54.7698L32.6361 53.9263V51.5732C32.608 51.1624 32.694 50.7546 32.7519 50.3702L32.7535 50.3688Z" fill="#C2BFBF"/>
</g>
<defs>
<clipPath id="clip0_41_7204">
<rect width="53" height="47" fill="white" transform="translate(5 8)"/>
</clipPath>
</defs>
</svg>
