<svg width="40" height="40" viewBox="0 0 40 40" fill="none" xmlns="http://www.w3.org/2000/svg">
<rect width="40" height="40" rx="8" fill="#F3F3F6"/>
<path fill-rule="evenodd" clip-rule="evenodd" d="M27.8725 13.35L29.1425 21.75V21.74C29.5425 24.39 29.7525 27.11 29.7525 29.8C29.7525 30.13 29.5425 30.42 29.2225 30.52L24.2225 32.02C24.1051 32.0509 23.9826 32.0577 23.8625 32.04L10.8625 29.54C10.6806 29.5082 10.5172 29.4095 10.4043 29.2633C10.2914 29.1171 10.2373 28.934 10.2525 28.75L11.2725 15.76C11.3025 15.45 11.5125 15.19 11.8125 15.1L14.3425 14.36C14.3725 14.12 14.4125 13.88 14.4525 13.66C15.1125 10.45 17.1625 8.23 19.1625 8.62C19.8225 8.74 20.3825 9.14 20.8125 9.72H20.9025C21.0255 9.718 21.1525 9.717 21.2725 9.74C22.1725 9.91 22.9125 10.63 23.3625 11.73L23.8025 11.6H23.8225C23.9225 11.57 24.0225 11.56 24.1225 11.58C24.1425 11.59 24.1525 11.59 24.1725 11.59C24.2625 11.61 24.3625 11.65 24.4425 11.71H24.4525L25.7525 12.71H27.1325C27.5025 12.71 27.8225 12.98 27.8725 13.35ZM21.6925 12.2L21.9025 12.14C21.8125 11.94 21.7125 11.78 21.6025 11.64L21.6305 11.8C21.6545 11.931 21.6785 12.066 21.6925 12.2ZM20.0275 11.505C19.5985 11.805 19.1715 12.324 18.8025 13.051L20.2325 12.631C20.2002 12.25 20.1316 11.8729 20.0275 11.505ZM19.2225 10.241C19.1158 10.1617 18.9929 10.1071 18.8625 10.081H18.8725C17.8925 9.891 16.4425 11.411 15.9225 13.891L16.9725 13.581C17.4725 12.071 18.2925 10.881 19.2225 10.241ZM23.2525 13.311L12.7125 16.39L11.8025 28.2L23.2525 30.4V13.311ZM24.7525 30.298V13.83L25.0425 14.05C25.1725 14.15 25.3325 14.21 25.5025 14.21H26.4825L27.6525 21.97C28.0125 24.37 28.2125 26.82 28.2425 29.25L24.7525 30.298ZM17.1935 16.76C18.6435 16.11 20.5335 16.81 21.0835 17.04V17.06C21.4635 17.22 21.6435 17.66 21.4835 18.04C21.4063 18.2227 21.2598 18.3674 21.0761 18.4424C20.8925 18.5173 20.6866 18.5165 20.5035 18.44C19.7035 18.11 18.5135 17.83 17.8035 18.15C17.5235 18.28 17.3335 18.5 17.2135 18.84C16.9035 19.74 17.8435 20.71 18.6835 21.37C21.0535 23.24 20.6835 25.03 20.0935 25.79C19.5835 26.46 18.8435 26.88 17.9635 26.98C17.8035 27.01 17.6535 27.01 17.4935 27.01C16.1635 27.01 14.9035 26.38 14.3235 25.91C14.1698 25.783 14.0722 25.6008 14.0516 25.4025C14.031 25.2042 14.0892 25.0058 14.2135 24.85C14.3405 24.6963 14.5227 24.5987 14.721 24.5781C14.9193 24.5575 15.1177 24.6157 15.2735 24.74C15.7235 25.1 16.8435 25.6 17.7935 25.48C18.2735 25.42 18.6435 25.22 18.9135 24.86C19.1435 24.55 19.2135 23.67 17.7635 22.53C15.5435 20.8 15.4635 19.3 15.7935 18.34C16.0435 17.6 16.5235 17.06 17.1935 16.76Z" fill="#05408E"/>
</svg>
