<svg width="44" height="44" viewBox="0 0 44 44" fill="none" xmlns="http://www.w3.org/2000/svg">
<path d="M39.4123 8.55342C36.7527 5.10937 33.1314 2.5314 29.0066 1.14555C24.8817 -0.240304 20.4385 -0.371785 16.2389 0.767735C12.0393 1.90725 8.2719 4.26659 5.41325 7.54734C2.55461 10.8281 0.733086 14.8829 0.179059 19.199C-0.374968 23.515 0.363385 27.8984 2.30074 31.7948C4.23809 35.6912 7.28742 38.9256 11.0631 41.0888C14.8387 43.2521 19.1711 44.2471 23.5123 43.948C27.8534 43.6488 32.0084 42.0691 35.4517 39.4084C45.0629 31.9807 46.8373 18.1681 39.4123 8.55342Z" fill="#FF6C37"/>
<path d="M29.4194 14.0178L20.1429 23.3677L17.5215 20.6727C26.6515 11.5428 27.5672 12.3678 29.4194 14.0178Z" fill="#F3F3F6"/>
<path d="M20.1441 23.6235C20.0619 23.6215 19.9835 23.5889 19.9241 23.5321L17.2841 20.8921C17.2246 20.8306 17.1914 20.7484 17.1914 20.6628C17.1914 20.5773 17.2246 20.4951 17.2841 20.4335C26.2855 11.4321 27.5141 11.8535 29.6405 13.7785C29.6761 13.807 29.7046 13.8434 29.7237 13.8848C29.7428 13.9262 29.752 13.9715 29.7505 14.0171C29.7643 14.1065 29.7299 14.1979 29.6591 14.2557L20.3826 23.5328C20.3176 23.5924 20.2323 23.6244 20.1441 23.6235ZM17.9805 20.6721L20.1441 22.8357L28.9441 14.0357C28.6402 13.6549 28.2067 13.3995 27.7263 13.3183C27.246 13.2371 26.7526 13.3359 26.3405 13.5957C24.7455 14.3107 22.1791 16.4921 17.9805 20.6721Z" fill="#FF6C37"/>
<path d="M22.8015 25.9528L20.2715 23.3678L29.5479 14.2007C32.0415 16.6392 28.3379 20.7099 22.8015 25.9528Z" fill="#F3F3F6"/>
<path d="M22.8028 26.2824C22.7217 26.276 22.6446 26.244 22.5828 26.191L19.9978 23.661C19.9591 23.567 19.9591 23.4614 19.9978 23.3674C19.9703 23.2903 19.9703 23.206 19.9978 23.1289L29.2743 13.8524C29.3388 13.7918 29.424 13.7581 29.5125 13.7581C29.601 13.7581 29.6862 13.7918 29.7507 13.8524C30.0511 14.1289 30.2885 14.4669 30.4466 14.8433C30.6047 15.2197 30.6799 15.6258 30.6671 16.0339C30.6671 18.5089 27.8436 21.6253 23.0407 26.1724C22.9765 26.2359 22.8928 26.2749 22.8028 26.2824ZM20.7493 23.3674L22.8207 25.4382C26.4871 21.9732 29.9893 18.3982 30.0071 15.9782C30.0271 15.4651 29.8575 14.9627 29.5307 14.5667L20.7493 23.3674Z" fill="#FF6C37"/>
<path d="M17.5959 20.7276L19.4295 22.5612C19.4412 22.5715 19.4506 22.5842 19.457 22.5984C19.4634 22.6126 19.4667 22.6281 19.4667 22.6437C19.4667 22.6593 19.4634 22.6747 19.457 22.6889C19.4506 22.7031 19.4412 22.7158 19.4295 22.7262L15.5609 23.5512C15.4828 23.568 15.4014 23.5589 15.329 23.5252C15.2565 23.4914 15.1971 23.435 15.1597 23.3644C15.1224 23.2938 15.1091 23.2129 15.122 23.134C15.1348 23.0552 15.1731 22.9827 15.2309 22.9276L17.4859 20.6912C17.4859 20.6912 17.5595 20.6912 17.5959 20.7276Z" fill="#F3F3F6"/>
<path d="M15.4675 23.9175C15.3452 23.9159 15.2254 23.8831 15.1195 23.822C15.0136 23.761 14.9251 23.6739 14.8625 23.5689C14.792 23.4359 14.7664 23.2837 14.7896 23.135C14.8127 22.9863 14.8834 22.8491 14.991 22.7439L17.2275 20.4889C17.3081 20.4168 17.4125 20.377 17.5207 20.377C17.6289 20.377 17.7332 20.4168 17.8139 20.4889L19.6475 22.3225C19.7561 22.4256 19.7987 22.5816 19.7575 22.726C19.7162 22.8704 19.5952 22.9852 19.446 23.0196L15.5775 23.8446L15.4675 23.9175ZM17.521 21.131L15.4496 23.2025L18.8781 22.4689L17.521 21.131Z" fill="#FF6C37"/>
<path d="M34.3533 8.86531C33.0264 7.58518 30.9419 7.53156 29.5504 8.73949C28.1589 9.94743 27.921 12.0209 29.0045 13.5128C30.088 15.0047 32.1306 15.4227 33.7119 14.4753L31.2183 11.9817L34.3533 8.86531Z" fill="#F3F3F6"/>
<path d="M31.8785 15.3185C31.1161 15.3087 30.3735 15.0748 29.7432 14.646C29.1129 14.2171 28.6227 13.6122 28.3337 12.9067C28.0449 12.2018 27.9692 11.4276 28.1158 10.68C28.2625 9.93245 28.625 9.24426 29.1587 8.70061C29.8927 7.98009 30.8802 7.57642 31.9087 7.57642C32.9373 7.57642 33.9247 7.98009 34.6587 8.70061C34.7288 8.75973 34.7687 8.84704 34.7687 8.93917C34.7685 8.98449 34.7586 9.02925 34.7397 9.07041C34.7207 9.11157 34.6931 9.14817 34.6587 9.17773L31.6887 11.9827L33.9437 14.2013C33.9802 14.2362 34.0077 14.2795 34.0236 14.3274C34.0396 14.3754 34.0435 14.4265 34.0352 14.4763C34.0297 14.5244 34.0138 14.5706 33.9885 14.6119C33.9632 14.6531 33.9291 14.6883 33.8887 14.7149C33.2829 15.0935 32.5865 15.3025 31.8723 15.3199L31.8785 15.3185ZM31.8785 8.20492C30.5722 8.21179 29.4035 8.99761 28.9133 10.1987C28.4231 11.3997 28.6898 12.7823 29.6056 13.7049C30.0611 14.1631 30.6443 14.473 31.2789 14.594C31.9135 14.7151 32.5699 14.6417 33.162 14.3835L30.9985 12.2199C30.9641 12.1924 30.9363 12.1575 30.9172 12.1178C30.8981 12.0781 30.8882 12.0347 30.8882 11.9906C30.8882 11.9466 30.8981 11.9031 30.9172 11.8634C30.9363 11.8237 30.9641 11.7889 30.9985 11.7614L33.8585 8.88279C33.2899 8.44708 32.5947 8.20951 31.8785 8.20492Z" fill="#FF6C37"/>
<path d="M34.4084 8.92041L31.2734 12.0368L33.767 14.5304C34.018 14.3863 34.2516 14.214 34.4634 14.0168C35.117 13.3261 35.4766 12.4084 35.4663 11.4575C35.456 10.5066 35.0767 9.59692 34.4084 8.92041Z" fill="#F3F3F6"/>
<path d="M33.7105 14.8056C33.6693 14.8078 33.6282 14.8007 33.5901 14.7849C33.552 14.7691 33.518 14.7449 33.4905 14.7141L30.997 12.2206C30.9626 12.1931 30.9348 12.1582 30.9157 12.1185C30.8966 12.0788 30.8867 12.0353 30.8867 11.9913C30.8867 11.9472 30.8966 11.9038 30.9157 11.8641C30.9348 11.8244 30.9626 11.7895 30.997 11.762L34.1134 8.70056C34.1435 8.65518 34.1844 8.61796 34.2323 8.59221C34.2803 8.56645 34.3339 8.55298 34.3884 8.55298C34.4428 8.55298 34.4965 8.56645 34.5444 8.59221C34.5924 8.61796 34.6333 8.65518 34.6634 8.70056C35.0292 9.05903 35.3199 9.4869 35.5183 9.9591C35.7167 10.4313 35.8189 10.9384 35.8189 11.4506C35.8189 11.9628 35.7167 12.4698 35.5183 12.942C35.3199 13.4142 35.0292 13.8421 34.6634 14.2006C34.4476 14.4295 34.2006 14.6269 33.9298 14.787C33.8616 14.8214 33.7835 14.828 33.7105 14.8056ZM31.6941 11.9827L33.7655 14.0541C33.908 13.9543 34.0429 13.8439 34.1691 13.7241C34.778 13.1168 35.121 12.2927 35.1226 11.4327C35.124 10.6631 34.8435 9.91957 34.3341 9.34269L31.6941 11.9827Z" fill="#FF6C37"/>
<path d="M29.8039 14.4025C29.5556 14.1693 29.2277 14.0396 28.8871 14.0396C28.5465 14.0396 28.2186 14.1693 27.9703 14.4025L19.666 22.6883L21.041 24.0818L29.8224 16.3818C29.9564 16.2535 30.0626 16.0991 30.1346 15.9281C30.2066 15.7572 30.2428 15.5733 30.2411 15.3878C30.2394 15.2023 30.1997 15.0192 30.1245 14.8496C30.0493 14.68 29.9402 14.5283 29.8039 14.4025Z" fill="#F3F3F6"/>
<path d="M20.9679 24.4126C20.8858 24.4106 20.8073 24.378 20.7479 24.3211L19.3544 22.9276C19.2949 22.8661 19.2617 22.7839 19.2617 22.6983C19.2617 22.6128 19.2949 22.5306 19.3544 22.469L27.6594 14.2005C27.8986 13.9615 28.2041 13.8 28.5362 13.7368C28.8683 13.6736 29.2118 13.7116 29.522 13.8459C29.8323 13.9803 30.095 14.2047 30.2762 14.4902C30.4573 14.7757 30.5485 15.109 30.5379 15.4469C30.5284 15.6763 30.4732 15.9014 30.3756 16.1092C30.278 16.317 30.1399 16.5032 29.9694 16.6569L21.1879 24.3569C21.1241 24.4021 21.0456 24.4224 20.9679 24.4126ZM19.9965 22.6883L20.9129 23.6233L29.5294 16.1248C29.7425 15.9392 29.8697 15.6738 29.8779 15.3912C29.8862 15.1087 29.7748 14.8323 29.5665 14.6398C29.3741 14.4482 29.1137 14.3407 28.8422 14.3407C28.5707 14.3407 28.3103 14.4482 28.1179 14.6398L19.9965 22.6883Z" fill="#FF6C37"/>
<path d="M13.2331 32.1304C13.2096 32.1622 13.197 32.2008 13.197 32.2404C13.197 32.2799 13.2096 32.3185 13.2331 32.3504L13.5995 33.9454C13.6142 34.0392 13.6003 34.1353 13.5596 34.2212C13.5188 34.307 13.4532 34.3786 13.3712 34.4266C13.2896 34.4744 13.1948 34.495 13.1007 34.4855C13.0065 34.476 12.9178 34.4368 12.8474 34.3737L10.3359 31.9537L18.1645 24.0632H20.8781L22.7116 25.8968C19.8514 28.3975 16.6623 30.4949 13.2331 32.1304Z" fill="#F3F3F6"/>
<path d="M13.0675 34.8256C12.8599 34.8215 12.655 34.7363 12.5175 34.5871L10.1161 32.1856C10.0817 32.1581 10.0539 32.1233 10.0348 32.0836C10.0158 32.0439 10.0059 32.0004 10.0059 31.9564C10.0059 31.9123 10.0158 31.8688 10.0348 31.8292C10.0539 31.7895 10.0817 31.7546 10.1161 31.7271L17.999 23.8256C18.0431 23.7787 18.1008 23.7468 18.164 23.7342H20.8954C20.9666 23.709 21.0442 23.709 21.1154 23.7342L22.949 25.5678C22.9838 25.5999 23.0104 25.64 23.0263 25.6847C23.0422 25.7294 23.0471 25.7773 23.0404 25.8242C23.0417 25.8698 23.0324 25.915 23.0134 25.9564C22.9943 25.9978 22.9659 26.0342 22.9304 26.0628L22.784 26.1913C19.9122 28.5854 16.7528 30.6116 13.379 32.2228L13.7275 33.7078C13.7545 33.8223 13.7555 33.9414 13.7306 34.0565C13.7056 34.1715 13.6553 34.2794 13.5833 34.3725C13.5113 34.4656 13.4194 34.5414 13.3144 34.5945C13.2093 34.6476 13.0937 34.6765 12.9761 34.6792L13.0675 34.8256ZM10.8311 31.9471L12.994 34.1285C13.0141 34.1465 13.0402 34.1564 13.0672 34.1564C13.0942 34.1564 13.1203 34.1465 13.1404 34.1285C13.1539 34.1098 13.1611 34.0873 13.1611 34.0642C13.1611 34.0412 13.1539 34.0187 13.1404 34L12.774 32.405C12.7451 32.2905 12.7567 32.1695 12.8068 32.0627C12.8569 31.9558 12.9425 31.8695 13.049 31.8185C16.3321 30.2288 19.4101 28.2465 22.2154 25.915L20.7118 24.4114H18.2554L10.8311 31.9471Z" fill="#FF6C37"/>
<path d="M8.44814 33.8355L10.2817 32.002L13.1053 34.8255L8.61382 34.5141C8.53671 34.508 8.46348 34.4778 8.40457 34.4276C8.34566 34.3775 8.3041 34.3101 8.28581 34.2349C8.26751 34.1597 8.27342 34.0807 8.3027 34.0091C8.33197 33.9375 8.38311 33.877 8.44882 33.8362L8.44814 33.8355Z" fill="#F3F3F6"/>
<path d="M13.1577 35.1004L8.68416 34.789C8.41878 34.7642 8.19053 34.5827 8.09703 34.3401C8.00353 34.0974 8.06059 33.8093 8.24416 33.6154L10.0777 31.7819C10.1392 31.7224 10.2215 31.6892 10.307 31.6892C10.3925 31.6892 10.4748 31.7224 10.5363 31.7819L13.3413 34.5869C13.3801 34.6401 13.401 34.7042 13.401 34.7701C13.401 34.836 13.3801 34.9001 13.3413 34.9533C13.2989 35.0219 13.234 35.0743 13.1577 35.1004ZM8.68416 34.074L12.3506 34.3126L10.3342 32.424L8.68416 34.074Z" fill="#FF6C37"/>
<path d="M21.1332 24.2847L17.4297 24.8532L19.5747 22.7268L21.1332 24.2847Z" fill="#F3F3F6"/>
<path d="M17.4298 25.2005C17.3683 25.2021 17.3076 25.1856 17.2554 25.1529C17.2032 25.1203 17.1618 25.073 17.1363 25.0169C17.0972 24.9638 17.0762 24.8996 17.0762 24.8337C17.0762 24.7678 17.0972 24.7036 17.1363 24.6505L19.2627 22.5055C19.3272 22.4449 19.4124 22.4111 19.5009 22.4111C19.5894 22.4111 19.6746 22.4449 19.7391 22.5055L21.2984 24.0634C21.3295 24.1128 21.3461 24.17 21.3461 24.2284C21.3461 24.2868 21.3295 24.344 21.2984 24.3934C21.2831 24.4536 21.2508 24.5081 21.2053 24.5504C21.1598 24.5927 21.1031 24.621 21.0419 24.6319L17.3755 25.2005H17.4298ZM19.5748 23.2019L18.3834 24.3934L20.4369 24.0819L19.5748 23.2019Z" fill="#FF6C37"/>
<path d="M21.1345 24.2834L18.5495 24.6134C18.4804 24.6291 18.408 24.6221 18.3431 24.5934C18.2782 24.5648 18.2243 24.5159 18.1893 24.4542C18.1544 24.3925 18.1402 24.3211 18.149 24.2507C18.1578 24.1803 18.189 24.1147 18.2381 24.0634L19.5767 22.7249L21.1345 24.2834Z" fill="#F3F3F6"/>
<path d="M18.4748 24.9629C18.3549 24.9617 18.2376 24.9289 18.1345 24.8676C18.0315 24.8064 17.9466 24.719 17.8883 24.6143C17.8183 24.4888 17.7912 24.3439 17.811 24.2016C17.8309 24.0592 17.8966 23.9273 17.9983 23.8257L19.3369 22.4872C19.4014 22.4266 19.4866 22.3928 19.5751 22.3928C19.6636 22.3928 19.7488 22.4266 19.8133 22.4872L21.3719 24.0457C21.4182 24.0896 21.4508 24.1461 21.4658 24.2081C21.4807 24.2702 21.4773 24.3353 21.456 24.3955C21.4346 24.4557 21.3963 24.5084 21.3456 24.5472C21.295 24.5861 21.2341 24.6094 21.1704 24.6143L18.604 24.9443L18.4748 24.9629ZM18.4748 24.2843L20.4183 24.0457L19.5569 23.1843L18.4569 24.2843H18.4748ZM34.4248 11.0293C34.3902 10.9714 34.3356 10.9283 34.2714 10.908C34.2071 10.8877 34.1377 10.8918 34.0762 10.9193C34.0458 10.9347 34.0189 10.956 33.9969 10.982C33.975 11.0079 33.9584 11.0381 33.9483 11.0706C33.9279 11.1361 33.9343 11.2071 33.9662 11.2679C34.0947 11.5381 34.059 11.8577 33.8748 12.0929C33.8519 12.1155 33.8339 12.1427 33.8221 12.1726C33.8103 12.2026 33.8048 12.2346 33.806 12.2668C33.8067 12.3313 33.8312 12.3932 33.8748 12.4407C33.9218 12.4593 33.9741 12.4593 34.0212 12.4407C34.0639 12.4515 34.1087 12.4503 34.1508 12.4373C34.1928 12.4243 34.2305 12.4001 34.2598 12.3672C34.4107 12.1823 34.5063 11.9586 34.5355 11.7217C34.5647 11.4849 34.5263 11.2453 34.4248 11.0293Z" fill="#FF6C37"/>
</svg>
