<svg width="40" height="40" viewBox="0 0 40 40" fill="none" xmlns="http://www.w3.org/2000/svg">
<rect width="40" height="40" rx="8" fill="white"/>
<path d="M20 16C24.9706 16 29 14.6569 29 13C29 11.3431 24.9706 10 20 10C15.0294 10 11 11.3431 11 13C11 14.6569 15.0294 16 20 16Z" stroke="#05408E" stroke-width="1.5" stroke-linecap="round" stroke-linejoin="round"/>
<path d="M11.0001 13V27C10.9945 27.4809 11.3359 27.9552 11.9954 28.383C12.6549 28.8107 13.6133 29.1793 14.7897 29.4577C15.9661 29.7361 17.3261 29.9162 18.755 29.9827C20.1839 30.0493 21.6398 30.0003 23.0001 29.84M29.0001 13V16M29.0001 20L26.0001 25H30.0001L27.0001 30" stroke="#05408E" stroke-width="1.5" stroke-linecap="round" stroke-linejoin="round"/>
<path d="M11 20C11.0014 20.4675 11.3307 20.9285 11.9615 21.3461C12.5922 21.7636 13.5071 22.1263 14.633 22.4051C15.7589 22.6839 17.0647 22.8711 18.4462 22.9519C19.8277 23.0326 21.2467 23.0045 22.59 22.87" stroke="#05408E" stroke-width="1.5" stroke-linecap="round" stroke-linejoin="round"/>
</svg>
