<svg width="64" height="64" viewBox="0 0 64 64" fill="none" xmlns="http://www.w3.org/2000/svg">
<rect width="64" height="64" rx="16" fill="#1B5093"/>
<path d="M31.5003 51C20.6939 51 11.9191 42.3872 12.0006 31.5C12.0821 20.6128 20.2879 12 31.5003 12C42.7134 12 51 20.775 51 31.5C51 42.225 42.3066 51 31.5003 51ZM37.2687 47.9935L31.744 33.1247L26.5439 48.3188C30.3631 49.213 32.9628 49.456 37.2687 47.9935ZM23.7819 47.1815L15.4945 24.5128C14.3565 26.9503 14.1135 28.9818 13.9505 31.5C14.032 38.162 17.769 44.2557 23.7819 47.1815ZM48.9693 31.5C49.05 27.194 47.1008 23.7815 46.9378 23.294C47.1008 26.6258 46.6126 28.3312 46.0443 30.2005L40.3567 46.5318C47.5068 42.225 48.887 35.806 49.05 31.5H48.9693ZM30.9321 30.7688L28.1693 23.2125L26.1379 23.0503C25.3259 22.4813 25.8126 21.5878 26.3816 21.5878C30.0378 21.8315 32.0685 21.8315 35.7255 21.5878C36.6197 21.5878 36.8627 22.888 35.8062 23.0503L33.8562 23.2125L40.1929 41.8997L43.1986 31.6622C43.3616 27.194 42.1421 26.7065 40.5174 23.4563C39.2171 20.9372 40.5989 18.4997 43.1178 18.419C41.0856 16.469 36.9427 14.0315 31.4988 13.95C26.0548 13.8685 20.2864 16.6312 16.874 21.8315L22.8869 21.6693C23.6181 21.9945 23.2929 23.0503 22.8869 23.1318L20.7747 23.294L27.1121 42.3065L30.9321 30.7688Z" fill="#62CAF9"/>
</svg>
