<svg width="48" height="43" viewBox="0 0 48 43" fill="none" xmlns="http://www.w3.org/2000/svg">
<path d="M47.7896 21.2351C47.7896 18.0766 43.825 15.0832 37.7466 13.227C39.1493 7.04598 38.5259 2.12837 35.7789 0.553959C35.1458 0.184653 34.4054 0.00971844 33.5969 0.00971844V2.17696C34.045 2.17696 34.4054 2.26443 34.7074 2.42965C36.0322 3.1877 36.6069 6.07412 36.1588 9.78662C36.0517 10.7002 35.8763 11.6623 35.662 12.6439C33.7528 12.1774 31.6682 11.8178 29.4765 11.5846C28.1614 9.78662 26.7977 8.15389 25.4242 6.72526C28.5998 3.78053 31.5805 2.16724 33.6067 2.16724V0C30.9279 0 27.4211 1.90484 23.8753 5.20916C20.3296 1.92428 16.8228 0.0388745 14.144 0.0388745V2.20612C16.1604 2.20612 19.1509 3.80969 22.3265 6.73498C20.9628 8.16361 19.599 9.78662 18.3035 11.5846C16.102 11.8178 14.0174 12.1774 12.1081 12.6536C11.8841 11.6817 11.7185 10.739 11.6016 9.83521C11.1438 6.12271 11.7088 3.23629 13.0238 2.46852C13.316 2.29359 13.6959 2.21584 14.144 2.21584V0.0485929C13.3258 0.0485929 12.5855 0.223527 11.9425 0.592834C9.2053 2.16724 8.59162 7.07513 10.0041 13.2367C3.94513 15.1027 0 18.0863 0 21.2351C0 24.3937 3.96461 27.387 10.043 29.2432C8.64032 35.4242 9.26375 40.3418 12.0107 41.9163C12.6439 42.2856 13.3842 42.4605 14.2025 42.4605C16.8813 42.4605 20.388 40.5557 23.9338 37.2513C27.4795 40.5362 30.9863 42.4216 33.6651 42.4216C34.4834 42.4216 35.2237 42.2467 35.8666 41.8774C38.6038 40.303 39.2175 35.3951 37.8051 29.2335C43.8445 27.3773 47.7896 24.3839 47.7896 21.2351ZM35.1068 14.7528C34.7464 16.0065 34.2983 17.2991 33.7917 18.5917C33.3924 17.8142 32.9735 17.0367 32.5157 16.2592C32.0676 15.4817 31.5903 14.7237 31.113 13.985C32.4962 14.1891 33.8307 14.4418 35.1068 14.7528ZM30.6454 25.1031C29.8856 26.4151 29.1063 27.6591 28.2978 28.8156C26.8464 28.9419 25.3755 29.01 23.8948 29.01C22.4239 29.01 20.953 28.9419 19.5113 28.8253C18.7028 27.6688 17.9138 26.4346 17.154 25.1323C16.4137 23.8591 15.7416 22.5666 15.1279 21.2643C15.7318 19.962 16.4137 18.6597 17.1443 17.3865C17.9041 16.0745 18.6834 14.8306 19.4919 13.6741C20.9433 13.5477 22.4142 13.4797 23.8948 13.4797C25.3657 13.4797 26.8366 13.5477 28.2783 13.6643C29.0868 14.8208 29.8758 16.0551 30.6356 17.3574C31.376 18.6305 32.0481 19.9231 32.6618 21.2254C32.0481 22.5277 31.376 23.83 30.6454 25.1031ZM33.7917 23.8397C34.3178 25.142 34.7659 26.4443 35.136 27.7077C33.8599 28.0187 32.5157 28.2811 31.1227 28.4852C31.6 27.7368 32.0773 26.9691 32.5254 26.1819C32.9735 25.4044 33.3924 24.6172 33.7917 23.8397ZM23.9143 34.2094C23.0084 33.2764 22.1025 32.2365 21.2063 31.0995C22.083 31.1383 22.9792 31.1675 23.8851 31.1675C24.8007 31.1675 25.7067 31.1481 26.5931 31.0995C25.7164 32.2365 24.8105 33.2764 23.9143 34.2094ZM16.667 28.4852C15.2837 28.2811 13.9492 28.0284 12.6731 27.7174C13.0335 26.4637 13.4816 25.1711 13.9882 23.8786C14.3875 24.6561 14.8064 25.4335 15.2642 26.211C15.7221 26.9885 16.1896 27.7466 16.667 28.4852ZM23.8656 8.2608C24.7715 9.19378 25.6774 10.2337 26.5736 11.3707C25.6969 11.3319 24.8007 11.3027 23.8948 11.3027C22.9792 11.3027 22.0732 11.3222 21.1868 11.3707C22.0635 10.2337 22.9694 9.19378 23.8656 8.2608ZM16.6572 13.985C16.1799 14.7334 15.7026 15.5011 15.2545 16.2884C14.8064 17.0658 14.3875 17.8433 13.9882 18.6208C13.4621 17.3185 13.0141 16.0162 12.6439 14.7528C13.92 14.4515 15.2642 14.1891 16.6572 13.985ZM7.84156 26.1527C4.39322 24.6852 2.16252 22.7609 2.16252 21.2351C2.16252 19.7093 4.39322 17.7753 7.84156 16.3175C8.67929 15.9579 9.59495 15.6372 10.5398 15.3359C11.0951 17.2408 11.8257 19.2234 12.7316 21.2545C11.8354 23.276 11.1146 25.2489 10.5691 27.144C9.60469 26.8427 8.68903 26.5123 7.84156 26.1527ZM13.0822 40.0406C11.7575 39.2825 11.1827 36.3961 11.6308 32.6836C11.738 31.7701 11.9133 30.8079 12.1276 29.8263C14.0369 30.2928 16.1215 30.6524 18.3132 30.8857C19.6282 32.6836 20.992 34.3163 22.3655 35.745C19.1899 38.6897 16.2091 40.303 14.183 40.303C13.7446 40.2933 13.3745 40.2058 13.0822 40.0406ZM36.188 32.635C36.6459 36.3475 36.0809 39.2339 34.7659 40.0017C34.4736 40.1766 34.0937 40.2544 33.6456 40.2544C31.6292 40.2544 28.6387 38.6508 25.4631 35.7255C26.8269 34.2969 28.1906 32.6739 29.4862 30.8759C31.6877 30.6427 33.7723 30.2831 35.6815 29.8069C35.9056 30.7885 36.0809 31.7312 36.188 32.635ZM39.9384 26.1527C39.1006 26.5123 38.185 26.833 37.2401 27.1343C36.6848 25.2295 35.9543 23.2469 35.0483 21.2157C35.9445 19.1942 36.6654 17.2213 37.2109 15.3262C38.1752 15.6275 39.0909 15.9579 39.9481 16.3175C43.3964 17.785 45.6271 19.7093 45.6271 21.2351C45.6174 22.7609 43.3867 24.6949 39.9384 26.1527Z" fill="#61DAFB"/>
<path d="M23.8843 25.6765C26.3429 25.6765 28.3359 23.688 28.3359 21.2351C28.3359 18.7822 26.3429 16.7937 23.8843 16.7937C21.4257 16.7937 19.4326 18.7822 19.4326 21.2351C19.4326 23.688 21.4257 25.6765 23.8843 25.6765Z" fill="#61DAFB"/>
</svg>
