<svg width="40" height="40" viewBox="0 0 40 40" fill="none" xmlns="http://www.w3.org/2000/svg">
<rect width="40" height="40" rx="8" fill="#F3F3F6"/>
<path d="M16.25 11.75H13.75C12.6454 11.75 11.75 12.6454 11.75 13.75V16.25C11.75 17.3546 12.6454 18.25 13.75 18.25H16.25C17.3546 18.25 18.25 17.3546 18.25 16.25V13.75C18.25 12.6454 17.3546 11.75 16.25 11.75Z" stroke="#05408E" stroke-width="1.5" stroke-linecap="round" stroke-linejoin="round"/>
<path d="M23.586 11.818C23.9611 11.4431 24.4697 11.2324 25 11.2324C25.5303 11.2324 26.0389 11.4431 26.414 11.818L28.182 13.586C28.5569 13.9611 28.7676 14.4697 28.7676 15C28.7676 15.5303 28.5569 16.0389 28.182 16.414L26.414 18.182C26.0389 18.5569 25.5303 18.7676 25 18.7676C24.4697 18.7676 23.9611 18.5569 23.586 18.182L21.818 16.414C21.4431 16.0389 21.2324 15.5303 21.2324 15C21.2324 14.4697 21.4431 13.9611 21.818 13.586L23.586 11.818Z" stroke="#05408E" stroke-width="1.5" stroke-linecap="round" stroke-linejoin="round"/>
<path d="M16.75 21.75H13.25C12.4216 21.75 11.75 22.4216 11.75 23.25V26.75C11.75 27.5784 12.4216 28.25 13.25 28.25H16.75C17.5784 28.25 18.25 27.5784 18.25 26.75V23.25C18.25 22.4216 17.5784 21.75 16.75 21.75Z" stroke="#05408E" stroke-width="1.5" stroke-linecap="round" stroke-linejoin="round"/>
<path d="M26.25 21.75H23.75C22.6454 21.75 21.75 22.6454 21.75 23.75V26.25C21.75 27.3546 22.6454 28.25 23.75 28.25H26.25C27.3546 28.25 28.25 27.3546 28.25 26.25V23.75C28.25 22.6454 27.3546 21.75 26.25 21.75Z" stroke="#05408E" stroke-width="1.5" stroke-linecap="round" stroke-linejoin="round"/>
</svg>
