<svg width="32" height="32" viewBox="0 0 32 32" fill="none" xmlns="http://www.w3.org/2000/svg">
<path d="M23.9993 21.3335L26.4527 23.4482C27.4833 24.3375 27.9993 24.7815 27.9993 25.3335C27.9993 25.8855 27.4833 26.3295 26.4527 27.2188L23.9993 29.3335M18.666 21.3335L16.2127 23.4482C15.182 24.3375 14.666 24.7815 14.666 25.3335C14.666 25.8855 15.182 26.3295 16.2127 27.2188L18.666 29.3335" stroke="#05408E" stroke-width="1.5" stroke-linecap="round" stroke-linejoin="round"/>
<path d="M26.6667 17.3374V10.4267C26.6667 8.16808 26.6667 7.04008 26.3093 6.13741C25.736 4.68808 24.52 3.54408 22.98 3.00408C22.0227 2.66675 20.8227 2.66675 18.424 2.66675C14.2267 2.66675 12.128 2.66675 10.4507 3.25475C7.75733 4.20141 5.63067 6.20275 4.624 8.74008C4 10.3201 4 12.2947 4 16.2467V19.6414C4 23.7347 4 25.7814 5.13067 27.2041C5.45467 27.6107 5.83733 27.9721 6.27067 28.2774C7.48667 29.1347 9.13333 29.3014 12 29.3334" stroke="#05408E" stroke-width="1.5" stroke-linecap="round" stroke-linejoin="round"/>
<path d="M4 16.0001C4 14.8215 4.46821 13.6911 5.30162 12.8577C6.13503 12.0243 7.26538 11.5561 8.444 11.5561C9.332 11.5561 10.3787 11.7107 11.2413 11.4801C11.6183 11.3786 11.9619 11.1799 12.2378 10.9037C12.5137 10.6276 12.7122 10.2838 12.8133 9.90675C13.044 9.04408 12.8893 7.99741 12.8893 7.10941C12.8897 5.93102 13.358 4.80102 14.1914 3.96789C15.0248 3.13477 16.1549 2.66675 17.3333 2.66675" stroke="#05408E" stroke-width="1.5" stroke-linecap="round" stroke-linejoin="round"/>
</svg>
