<svg width="24" height="25" viewBox="0 0 24 25" fill="none" xmlns="http://www.w3.org/2000/svg">
<path fill-rule="evenodd" clip-rule="evenodd" d="M19.8725 5.35L21.1425 13.75V13.74C21.5425 16.39 21.7525 19.11 21.7525 21.8C21.7525 22.13 21.5425 22.42 21.2225 22.52L16.2225 24.02C16.1051 24.0509 15.9826 24.0577 15.8625 24.04L2.86252 21.54C2.68061 21.5082 2.51716 21.4095 2.40429 21.2633C2.29142 21.1171 2.23729 20.934 2.25253 20.75L3.27253 7.76C3.30253 7.45 3.51253 7.19 3.81253 7.1L6.34253 6.36C6.37253 6.12 6.41253 5.88 6.45253 5.66C7.11252 2.45 9.16252 0.229999 11.1625 0.619999C11.8225 0.739999 12.3825 1.14 12.8125 1.72H12.9025C13.0255 1.718 13.1525 1.717 13.2725 1.74C14.1725 1.91 14.9125 2.63 15.3625 3.73L15.8025 3.6H15.8225C15.9225 3.57 16.0225 3.56 16.1225 3.58C16.1425 3.59 16.1525 3.59 16.1725 3.59C16.2625 3.61 16.3625 3.65 16.4425 3.71H16.4525L17.7525 4.71H19.1325C19.5025 4.71 19.8225 4.98 19.8725 5.35ZM13.6925 4.2L13.9025 4.14C13.8125 3.94 13.7125 3.78 13.6025 3.64L13.6305 3.8C13.6545 3.931 13.6785 4.066 13.6925 4.2ZM12.0275 3.505C11.5985 3.805 11.1715 4.324 10.8025 5.051L12.2325 4.631C12.2002 4.24999 12.1316 3.87294 12.0275 3.505ZM11.2225 2.241C11.1158 2.16173 10.9929 2.10709 10.8625 2.081H10.8725C9.89252 1.891 8.44252 3.411 7.92252 5.891L8.97253 5.581C9.47253 4.071 10.2925 2.881 11.2225 2.241ZM15.2525 5.311L4.71252 8.39L3.80253 20.2L15.2525 22.4V5.311ZM16.7525 22.298V5.83L17.0425 6.05C17.1725 6.15 17.3325 6.21 17.5025 6.21H18.4825L19.6525 13.97C20.0125 16.37 20.2125 18.82 20.2425 21.25L16.7525 22.298ZM9.19352 8.76C10.6435 8.11 12.5335 8.81 13.0835 9.04V9.06C13.4635 9.22 13.6435 9.66 13.4835 10.04C13.4063 10.2227 13.2598 10.3674 13.0761 10.4424C12.8925 10.5173 12.6866 10.5165 12.5035 10.44C11.7035 10.11 10.5135 9.83 9.80353 10.15C9.52353 10.28 9.33353 10.5 9.21353 10.84C8.90353 11.74 9.84352 12.71 10.6835 13.37C13.0535 15.24 12.6835 17.03 12.0935 17.79C11.5835 18.46 10.8435 18.88 9.96353 18.98C9.80353 19.01 9.65352 19.01 9.49353 19.01C8.16353 19.01 6.90352 18.38 6.32352 17.91C6.16984 17.783 6.07218 17.6008 6.05161 17.4025C6.03103 17.2042 6.08918 17.0058 6.21352 16.85C6.34048 16.6963 6.52274 16.5987 6.72101 16.5781C6.91929 16.5575 7.11772 16.6157 7.27352 16.74C7.72352 17.1 8.84353 17.6 9.79353 17.48C10.2735 17.42 10.6435 17.22 10.9135 16.86C11.1435 16.55 11.2135 15.67 9.76352 14.53C7.54352 12.8 7.46353 11.3 7.79353 10.34C8.04353 9.6 8.52352 9.06 9.19352 8.76Z" fill="#05408E"/>
</svg>
