<svg width="57" height="56" viewBox="0 0 57 56" fill="none" xmlns="http://www.w3.org/2000/svg">
<path d="M49.5 7H7.5V49H49.5V7Z" fill="#1976D2"/>
<path d="M32.5712 25.6666H17.0977V29.4746H22.6475V46.6666H27.0447V29.4746H32.5712V25.6666Z" fill="white"/>
<path d="M46.2256 30.4313C46.2256 30.4313 44.1408 29.0407 41.7841 29.0407C39.4275 29.0407 38.5793 30.1607 38.5793 31.3577C38.5793 34.447 47.1905 34.1378 47.1905 40.355C47.1905 49.9322 34.0608 45.6843 34.0608 45.6843V41.09C34.0608 41.09 36.5715 42.9823 39.5826 42.9823C42.5938 42.9823 42.4795 41.013 42.4795 40.7423C42.4795 37.8852 33.9453 37.8852 33.9453 31.5513C33.9453 22.9402 46.3796 26.3375 46.3796 26.3375L46.2256 30.4313Z" fill="white"/>
</svg>
