<svg width="57" height="56" viewBox="0 0 57 56" fill="none" xmlns="http://www.w3.org/2000/svg">
<path d="M48.3327 5.83337H8.66602L12.166 45.5L28.4993 50.1667L44.8327 45.5L48.3327 5.83337Z" fill="#E65100"/>
<path d="M28.5 9.33337V46.55L41.5667 42.8167L44.4833 9.33337H28.5Z" fill="#FF6D00"/>
<path d="M28.5 29.1666V24.5H38.5333L37.7167 37.9166L28.5 40.95V36.05L33.2833 34.4166L33.6333 29.1666H28.5ZM38.8833 19.8333L39.2333 15.1666H28.5V19.8333H38.8833Z" fill="white"/>
<path d="M28.4995 36.05V40.95L19.2828 37.9166L18.8161 31.5H23.4828L23.7161 34.4166L28.4995 36.05ZM22.7828 19.8333H28.4995V15.1666H17.8828L18.6995 29.1666H28.4995V24.5H23.1328L22.7828 19.8333Z" fill="#EEEEEE"/>
</svg>
