<svg width="57" height="56" viewBox="0 0 57 56" fill="none" xmlns="http://www.w3.org/2000/svg">
<path d="M48.3327 5.83325H8.66602L12.166 45.4999L28.4993 50.1666L44.8327 45.4999L48.3327 5.83325Z" fill="#0277BD"/>
<path d="M28.5 9.33325V46.5499L41.5667 42.8166L44.4833 9.33325H28.5Z" fill="#039BE5"/>
<path d="M39.1167 15.1667H28.5V19.8334H34.2167L33.8667 24.5001H28.5V29.1667H33.6333L33.2833 34.4167L28.5 36.0501V40.9501L37.7167 37.9167L38.5333 24.5001L39.1167 15.1667Z" fill="white"/>
<path d="M28.5009 15.1667V19.8334H18.1176L17.7676 15.1667H28.5009ZM23.1342 24.5001L23.3676 29.1667H28.5009V24.5001H23.1342ZM23.6009 31.5001H18.9342L19.2842 37.9167L28.5009 40.9501V36.0501L23.7176 34.4167L23.6009 31.5001Z" fill="#EEEEEE"/>
</svg>
