<svg width="57" height="56" viewBox="0 0 57 56" fill="none" xmlns="http://www.w3.org/2000/svg">
<path d="M1.66602 5.83325L8.66602 10.4999V33.8333L1.66602 29.1666V5.83325Z" fill="#29B6F6"/>
<path d="M55.334 23.3333L48.334 27.9999V43.1666L55.334 38.4999V23.3333Z" fill="#0288D1"/>
<path d="M55.334 7L48.334 11.6667V19.8333L55.334 15.1667V7Z" fill="#0288D1"/>
<path d="M41.334 5.83325L34.334 10.4999V33.8333L41.334 29.1666V5.83325Z" fill="#0288D1"/>
<path d="M1.66602 13.9999L21.4993 26.8333V18.6666L1.66602 5.83325V13.9999Z" fill="#29B6F6"/>
<path d="M41.3333 13.9999L21.5 26.8333V18.6666L41.3333 5.83325V13.9999Z" fill="#0288D1"/>
<path d="M41.3333 30.3334L21.5 43.1667V35.0001L41.3333 22.1667V30.3334Z" fill="#0288D1"/>
<path d="M55.3333 39.6667L35.5 52.5V44.3333L55.3333 31.5V39.6667Z" fill="#0288D1"/>
<path d="M35.5 44.0592L21.5 35V43.1667L35.5 52.2258V44.0592Z" fill="#29B6F6"/>
</svg>
