<svg width="57" height="56" viewBox="0 0 57 56" fill="none" xmlns="http://www.w3.org/2000/svg">
<path d="M7.5 49V7H49.5V49H7.5Z" fill="#FFD600"/>
<path d="M34.9612 38.4381C35.7685 39.7495 36.6458 41.006 38.5043 41.006C40.0653 41.006 40.8843 40.2301 40.8843 39.1568C40.8843 37.8723 40.0373 37.4161 38.32 36.6683L37.3785 36.267C34.6613 35.1143 32.8542 33.67 32.8542 30.6191C32.8542 27.8075 35.0067 25.6678 38.3702 25.6678C40.7653 25.6678 42.4862 26.4973 43.7275 28.6696L40.7945 30.5445C40.1493 29.3918 39.4517 28.938 38.3702 28.938C37.2665 28.938 36.5677 29.6345 36.5677 30.5445C36.5677 31.6691 37.2677 32.1241 38.8835 32.8206L39.825 33.222C43.0275 34.5858 44.8335 35.9788 44.8335 39.1101C44.8335 42.4841 42.1688 44.3333 38.5918 44.3333C35.093 44.3333 33.1062 42.5775 32.0002 40.404L34.9612 38.4381ZM21.4442 38.5338C22.0345 39.5908 22.9317 40.404 24.222 40.404C25.4563 40.404 26.1668 39.9163 26.1668 38.0205V25.6666H30.0553V38.6178C30.0553 42.546 27.7768 44.3333 24.4495 44.3333C21.443 44.3333 19.273 42.2963 18.3887 40.404L21.4442 38.5338Z" fill="#000001"/>
</svg>
