<svg width="158" height="50" viewBox="0 0 158 50" fill="none" xmlns="http://www.w3.org/2000/svg">
<g clip-path="url(#clip0_503_2962)">
<path d="M18.957 0H12.0213C11.5396 0 11.1543 0.381679 11.1543 0.858779V6.79389C11.2892 6.79389 11.424 6.77481 11.5396 6.77481C13.7937 6.77481 15.624 8.58779 15.624 10.8206C15.624 10.9542 15.624 11.0878 15.6047 11.2214H21.6157C22.0974 11.2214 22.4827 10.8397 22.4827 10.3626V0.858779C22.4827 0.381679 22.0974 0 21.6157 0H18.957Z" fill="#E7F1FF"/>
<path d="M21.6155 0H17.377V4.17939C17.377 4.65649 17.7623 5.03817 18.2439 5.03817H22.4824V0.858779C22.4824 0.381679 22.0971 0 21.6155 0Z" fill="#3082EC"/>
<path d="M33.5622 33.2634C30.8264 33.2634 28.6494 32.4427 27.031 30.8015C25.4127 29.1603 24.6035 26.9466 24.6035 24.1794C24.6035 21.4122 25.4512 19.3702 27.1274 17.6718C28.8035 15.9924 30.9805 15.1336 33.6585 15.1336C35.5273 15.1336 37.1264 15.5344 38.4557 16.3359C39.7851 17.1374 40.7869 18.2443 41.4612 19.6565C42.1163 21.0687 42.463 22.7099 42.463 24.5611V24.6565C42.463 24.9046 42.386 25.0763 42.2511 25.2099C42.097 25.3435 41.9236 25.4008 41.6924 25.4008H29.6897C29.7861 26.6603 30.1906 27.6527 30.942 28.3588C31.6741 29.084 32.6181 29.4466 33.7548 29.4466C35.0842 29.4466 36.0475 29.0076 36.7025 28.1489C36.953 27.8244 37.2612 27.6718 37.6273 27.6718H41.3264C41.808 27.6718 42.0392 27.8053 42.0392 28.0725C42.0392 28.2061 41.9814 28.3779 41.8851 28.5878C41.2493 29.9809 40.2282 31.1069 38.8218 31.9466C37.3961 32.7863 35.6622 33.2252 33.62 33.2252L33.5622 33.2634ZM29.7861 22.271H37.2998C37.1649 21.145 36.7989 20.2863 36.1438 19.6756C35.4888 19.0649 34.6603 18.7405 33.6007 18.7405C32.5411 18.7405 31.6934 19.0458 30.9998 19.6756C30.3062 20.3053 29.9016 21.1641 29.7668 22.271H29.7861Z" fill="#E7F1FF"/>
<path d="M50.9006 33.0534C49.0318 33.0534 47.5291 32.6145 46.3924 31.7176C45.2557 30.8206 44.6777 29.5801 44.6777 28.0153C44.6777 27.2137 44.8704 26.4885 45.2364 25.8588C45.6218 25.229 46.1034 24.6947 46.7007 24.2939C47.2979 23.8931 48.0493 23.5305 48.9162 23.2252C49.8025 22.9198 50.6694 22.6908 51.5557 22.5382C52.4419 22.3855 53.4052 22.271 54.4456 22.1756C54.5612 22.1756 54.8116 22.1374 55.1969 22.1183C55.5823 22.0992 55.8327 22.0801 55.9483 22.0801C55.9483 20.8969 55.7364 20.0191 55.3125 19.4656C54.8887 18.8931 54.1758 18.626 53.2125 18.626C51.7483 18.626 50.8428 19.2176 50.496 20.3817C50.3612 20.8397 50.0915 21.0687 49.6869 21.0687H46.2768C45.7759 21.0687 45.5254 20.8779 45.5254 20.5153C45.5254 20.4198 45.5447 20.2863 45.5832 20.1145C45.9493 18.5878 46.7777 17.3855 48.0685 16.5267C49.3594 15.6679 51.074 15.229 53.1933 15.229C54.4648 15.229 55.563 15.3626 56.4685 15.6107C57.374 15.8588 58.1639 16.2786 58.8189 16.8702C59.474 17.4618 59.9556 18.2443 60.2639 19.2366C60.5721 20.229 60.7455 21.4504 60.7455 22.8817V28.0725C60.7455 29.4847 60.8033 30.6679 60.8997 31.6412C60.9382 31.9275 60.9575 32.1183 60.9575 32.1947C60.9575 32.5763 60.7263 32.7863 60.2639 32.7863H57.2006C56.7189 32.7863 56.4492 32.5572 56.4107 32.0801C56.3722 31.5458 56.3529 31.145 56.3722 30.8779C56.0254 31.2214 55.7171 31.4885 55.4474 31.6985C55.1777 31.9084 54.8116 32.1374 54.3878 32.3855C53.9447 32.6336 53.4245 32.8053 52.8465 32.9389C52.2685 33.0725 51.5942 33.1298 50.8428 33.1298L50.9006 33.0534ZM52.4804 29.8282C54.7924 29.8282 55.9483 28.4733 55.9483 25.7824C55.9483 25.5343 55.9483 25.3435 55.9868 25.1908L55.1006 25.2863C53.1547 25.5153 51.8061 25.8015 51.0355 26.1641C50.2649 26.5267 49.8795 27.0992 49.8795 27.8435C49.8795 28.4542 50.1107 28.9313 50.5924 29.2939C51.074 29.6565 51.6905 29.8282 52.4612 29.8282H52.4804Z" fill="#E7F1FF"/>
<path d="M65.9095 32.7481C65.4086 32.7481 65.1582 32.5 65.1582 32.0038V16.4885C65.1196 15.9924 65.3701 15.7443 65.871 15.7443H69.2425C69.7435 15.7443 69.9939 15.9924 69.9939 16.4885V18.0725C70.3985 17.2901 71.0343 16.6221 71.9012 16.1069C72.7682 15.5916 73.8471 15.3244 75.1765 15.3244C77.4691 15.3244 79.126 16.2786 80.1471 18.1679H80.2049C80.648 17.4046 81.3416 16.7366 82.3049 16.1641C83.2489 15.6107 84.4241 15.3244 85.8305 15.3244C86.6782 15.3244 87.4489 15.458 88.1424 15.7061C88.836 15.9542 89.4718 16.374 90.0498 16.9275C90.6277 17.4809 91.0709 18.2443 91.3791 19.2176C91.7066 20.1908 91.8608 21.355 91.8608 22.6718V32.0038C91.8608 32.5 91.6103 32.7481 91.1094 32.7481H87.5067C87.0057 32.7481 86.7553 32.5 86.7553 32.0038V24.5229C86.7553 22.6527 86.5626 21.2977 86.1966 20.4962C85.8305 19.6756 85.1369 19.2748 84.1351 19.2748C83.0755 19.2748 82.2856 19.6756 81.8039 20.4771C81.303 21.2786 81.0526 22.4618 81.0526 24.0458V32.0229C81.0526 32.5191 80.8021 32.7672 80.3012 32.7672H76.6985C76.1976 32.7672 75.9471 32.5191 75.9471 32.0229V24.542C75.9471 22.6718 75.7737 21.3168 75.3884 20.5153C75.0223 19.6947 74.3288 19.2939 73.3269 19.2939C72.2673 19.2939 71.4774 19.6947 70.9957 20.4962C70.4948 21.2977 70.2636 22.4809 70.2636 24.0649V32.042C70.2636 32.5382 70.0132 32.7863 69.5123 32.7863H65.9095V32.7481Z" fill="#E7F1FF"/>
<path d="M118.544 32.7481C118.043 32.7481 117.793 32.5 117.793 32.0038V16.4885C117.754 15.9924 118.005 15.7443 118.506 15.7443H121.742C122.243 15.7443 122.494 16.0114 122.494 16.5267C122.494 17.1565 122.475 17.7863 122.436 18.4351H122.494C123.322 16.355 124.902 15.3244 127.272 15.3244C127.638 15.3244 127.908 15.3817 128.062 15.4771C128.216 15.5725 128.312 15.7824 128.312 16.1069V19.0649C128.312 19.4084 128.216 19.6183 128.042 19.7137C127.85 19.8092 127.503 19.8664 126.983 19.8664C126.463 19.8664 125.981 19.9237 125.576 20.0191C125.172 20.1145 124.825 20.2672 124.536 20.4389C124.247 20.6107 123.997 20.8779 123.804 21.2214C123.611 21.5649 123.457 21.9084 123.322 22.271C123.207 22.6336 123.11 23.0916 123.053 23.6641C122.995 24.2366 122.956 24.7901 122.937 25.3435C122.918 25.8969 122.898 26.584 122.898 27.4046V32.0038C122.898 32.5 122.648 32.7481 122.147 32.7481H118.544Z" fill="#E7F1FF"/>
<path d="M132.163 13.7214C131.663 13.7214 131.412 13.4733 131.412 12.9771V10.3244C131.412 9.82825 131.663 9.58015 132.163 9.58015H135.766C136.267 9.58015 136.518 9.82825 136.518 10.3244V12.9771C136.518 13.4733 136.267 13.7214 135.766 13.7214H132.163ZM132.163 32.7481C131.663 32.7481 131.412 32.5 131.412 32.0038V16.4886C131.412 15.9924 131.663 15.7443 132.163 15.7443H135.766C136.267 15.7443 136.518 15.9924 136.518 16.4886V32.0038C136.518 32.5 136.267 32.7481 135.766 32.7481H132.163Z" fill="#E7F1FF"/>
<path d="M147.828 33.1679C145.497 33.1679 143.647 32.3664 142.241 30.7443C140.834 29.1221 140.141 26.9657 140.141 24.2557C140.141 21.5458 140.853 19.3321 142.26 17.7099C143.666 16.0878 145.497 15.2481 147.77 15.2481C150.043 15.2481 151.7 16.0115 152.933 17.5191L152.895 14.0458V10.3244C152.895 9.82825 153.145 9.58015 153.646 9.58015H157.249C157.75 9.58015 158 9.82825 158 10.3244V32.0038C158 32.5 157.75 32.7481 157.249 32.7481H153.935C153.434 32.7481 153.184 32.5 153.184 32.0038C153.184 31.2405 153.184 30.7252 153.222 30.4771C152.76 31.2023 152.086 31.8321 151.18 32.3664C150.275 32.9008 149.157 33.1679 147.828 33.1679ZM149.388 29.2557C150.583 29.2557 151.527 28.7786 152.201 27.8435C152.875 26.8893 153.222 25.6489 153.222 24.0649C153.222 22.4809 152.875 21.374 152.163 20.458C151.469 19.5611 150.525 19.1031 149.388 19.1031C148.252 19.1031 147.25 19.5802 146.575 20.5153C145.882 21.4504 145.535 22.6718 145.535 24.1603C145.535 25.6489 145.882 26.8702 146.575 27.8244C147.269 28.7786 148.213 29.2557 149.388 29.2557Z" fill="#E7F1FF"/>
<path d="M21.8283 20.6298L18.0137 20.687C17.4549 20.687 17.3586 21.0496 17.3393 21.2595V21.3931V22.8435C17.3201 25.7252 14.6228 28.0725 11.2898 28.0725C7.95683 28.0725 5.2596 25.7252 5.2596 22.8435V17.4809H11.5596V14.8855C9.82563 14.8855 8.34215 13.7977 7.74491 12.2901H5.27887V4.31297C5.27887 3.85496 4.91281 3.49236 4.45043 3.49236H0.828435C0.366053 3.49236 0 3.85496 0 4.31297V21.4885C0 23.0343 0.250457 24.5038 0.770638 25.8588C2.38898 30.1336 6.24216 32.958 10.7889 33.187C10.8467 33.187 11.0009 33.187 11.1935 33.187C12.4651 33.187 16.2027 32.9389 19.1311 30.1527C21.3467 28.0534 22.5026 25.0954 22.5989 21.374C22.5989 20.9542 22.2522 20.6107 21.8283 20.6107V20.6298Z" fill="#3082EC"/>
<path d="M110.491 32.7586V37.2822C110.491 40.09 108.597 42.6377 105.835 43.2097C102.046 43.9896 98.7101 41.0952 98.7101 37.4555V37.2996C98.7101 36.8316 98.1888 36.8663 98.1888 36.8663H94.4355C93.8795 36.8663 93.7752 37.1782 93.7578 37.3862C93.9142 42.7591 97.8065 47.4906 103.176 48.1839C109.796 49.0332 115.461 43.8856 115.461 37.4555V33.3306C115.461 33.0186 115.218 32.776 114.905 32.776H110.491V32.7586Z" fill="#3082EC"/>
<path d="M113.707 15.7252H109.68C108.601 15.7252 108.717 16.7176 108.717 16.7176C106.829 15.8015 104.633 15.4771 102.321 15.9733C98.583 16.7557 95.5968 19.8092 94.8647 23.5114C94.1326 27.271 95.6353 30.7634 98.2748 32.9008L110.663 32.8817C112.84 31.1069 114.227 28.416 114.227 25.4198V16.2405C114.227 15.9542 113.996 15.7252 113.707 15.7252ZM108.582 26.4885C108.216 27.958 107.002 29.1794 105.499 29.542C102.321 30.3053 99.5271 27.5382 100.298 24.3893C100.664 22.9198 101.878 21.6985 103.38 21.3359C106.559 20.5725 109.353 23.3397 108.582 26.4885Z" fill="#3082EC"/>
</g>
<defs>
<clipPath id="clip0_503_2962">
<rect width="158" height="50" fill="white"/>
</clipPath>
</defs>
</svg>
