<svg width="68" height="67" viewBox="0 0 68 67" fill="none" xmlns="http://www.w3.org/2000/svg">
<path d="M54.9393 66.0607C55.5251 66.6464 56.4749 66.6464 57.0607 66.0607L66.6066 56.5147C67.1924 55.9289 67.1924 54.9792 66.6066 54.3934C66.0208 53.8076 65.0711 53.8076 64.4853 54.3934L56 62.8787L47.5147 54.3934C46.9289 53.8076 45.9792 53.8076 45.3934 54.3934C44.8076 54.9792 44.8076 55.9289 45.3934 56.5147L54.9393 66.0607ZM0 2L-2.56251e-06 3.5C18.3083 3.50003 31.7306 5.15715 40.6854 13.3988C49.6208 21.6227 54.5 36.7915 54.5 65H56H57.5C57.5 36.6622 52.6474 20.331 42.717 11.1914C32.806 2.06974 18.2282 0.500031 2.56251e-06 0.5L0 2Z" fill="#61DAFB"/>
</svg>
