<svg width="24" height="24" viewBox="0 0 24 24" fill="none" xmlns="http://www.w3.org/2000/svg">
<path d="M12.9998 6.99999L8.6998 2.69999C8.24818 2.25054 7.63695 1.99823 6.9998 1.99823C6.36265 1.99823 5.75143 2.25054 5.2998 2.69999L2.6998 5.29999C2.25036 5.75161 1.99805 6.36283 1.99805 6.99999C1.99805 7.63714 2.25036 8.24836 2.6998 8.69999L6.9998 13M7.9998 5.99999L9.9998 3.99999M17.9998 16L19.9998 14M16.9998 11L21.2998 15.3C22.2398 16.24 22.2398 17.76 21.2998 18.7L18.6998 21.3C17.7598 22.24 16.2398 22.24 15.2998 21.3L10.9998 17M14.9998 4.99999L18.9998 8.99999M21.1738 6.81199C21.7025 6.28341 21.9996 5.56645 21.9997 4.81884C21.9998 4.07122 21.7029 3.35419 21.1743 2.82549C20.6457 2.29678 19.9288 1.9997 19.1812 1.9996C18.4335 1.99951 17.7165 2.29641 17.1878 2.82499L3.8418 16.174C3.60962 16.4055 3.43792 16.6905 3.3418 17.004L2.0208 21.356C1.99496 21.4425 1.99301 21.5343 2.01515 21.6218C2.0373 21.7093 2.08272 21.7892 2.1466 21.853C2.21047 21.9168 2.29042 21.9621 2.37796 21.9841C2.4655 22.0061 2.55736 22.004 2.6438 21.978L6.9968 20.658C7.30997 20.5627 7.59498 20.3921 7.8268 20.161L21.1738 6.81199Z" stroke="#05408E" stroke-width="1.5" stroke-linecap="round" stroke-linejoin="round"/>
</svg>
