<svg width="32" height="32" viewBox="0 0 32 32" fill="none" xmlns="http://www.w3.org/2000/svg">
<path d="M15.6036 26.5893C15.7778 26.5893 15.9565 26.5502 16.1396 26.4719C16.3227 26.3937 16.4707 26.2982 16.5836 26.1853L26.9782 15.7893C27.3134 15.4542 27.572 15.1119 27.7542 14.7626C27.9356 14.4115 28.0262 14.0266 28.0262 13.6079C28.0262 13.1839 27.9356 12.7724 27.7542 12.3733C27.572 11.9733 27.3134 11.6088 26.9782 11.2799L21.9782 6.27994C21.6485 5.94483 21.3094 5.69905 20.9609 5.54261C20.6134 5.38617 20.2276 5.30794 19.8036 5.30794C19.3849 5.30794 18.996 5.38617 18.6369 5.54261C18.2778 5.69905 17.9396 5.94439 17.6222 6.27861L16.4596 7.44128L18.9262 9.91461C19.1911 10.1751 19.3889 10.4711 19.5196 10.8026C19.6494 11.1342 19.7142 11.4706 19.7142 11.8119C19.7142 12.5062 19.4871 13.0804 19.0329 13.5346C18.5787 13.9888 18.0049 14.2155 17.3116 14.2146C16.9694 14.2146 16.6356 14.1626 16.3102 14.0586C15.9849 13.9546 15.692 13.7724 15.4316 13.5119L13.4702 11.5599C13.3165 11.4062 13.12 11.3293 12.8809 11.3293C12.6409 11.3293 12.444 11.4062 12.2902 11.5599L7.12358 16.7266C6.98935 16.8617 6.88846 17.0151 6.82091 17.1866C6.75335 17.3582 6.71958 17.5315 6.71958 17.7066C6.71958 18.0213 6.82046 18.2804 7.02224 18.4839C7.22313 18.6884 7.48091 18.7906 7.79558 18.7906C7.9698 18.7906 8.14847 18.7515 8.33158 18.6733C8.51469 18.5942 8.66269 18.4982 8.77558 18.3853L12.5289 14.6319C12.6534 14.5075 12.8054 14.4395 12.9849 14.4279C13.1645 14.4164 13.3271 14.4844 13.4729 14.6319C13.6151 14.7742 13.6862 14.9315 13.6862 15.1039C13.6862 15.2764 13.6151 15.4337 13.4729 15.5759L9.72624 19.3293C9.59113 19.4644 9.4898 19.6177 9.42224 19.7893C9.35558 19.9617 9.32224 20.1351 9.32224 20.3093C9.32224 20.6071 9.42713 20.8608 9.63691 21.0706C9.84669 21.2804 10.1005 21.3857 10.3982 21.3866C10.5725 21.3866 10.7511 21.3471 10.9342 21.2679C11.1174 21.1888 11.2654 21.0933 11.3782 20.9813L15.4396 16.9279C15.564 16.8026 15.7156 16.7342 15.8942 16.7226C16.0729 16.7111 16.2356 16.7791 16.3822 16.9266C16.5245 17.0688 16.5956 17.2262 16.5956 17.3986C16.5956 17.5711 16.5245 17.7284 16.3822 17.8706L12.3289 21.9319C12.2116 22.0448 12.1147 22.1928 12.0382 22.3759C11.9618 22.5591 11.9236 22.7377 11.9236 22.9119C11.9236 23.2088 12.0289 23.4622 12.2396 23.6719C12.4502 23.8835 12.704 23.9893 13.0009 23.9893C13.1751 23.9893 13.3485 23.9555 13.5209 23.8879C13.6934 23.8204 13.8462 23.7191 13.9796 23.5839L18.0422 19.5306C18.1667 19.4053 18.3182 19.3368 18.4969 19.3253C18.6756 19.3146 18.8387 19.3826 18.9862 19.5293C19.1276 19.6715 19.1982 19.8288 19.1982 20.0013C19.1982 20.1737 19.1271 20.3311 18.9849 20.4733L14.9249 24.5333C14.7907 24.6684 14.6898 24.8306 14.6222 25.0199C14.5547 25.2093 14.5209 25.3822 14.5209 25.5386C14.5209 25.8533 14.6316 26.1071 14.8529 26.2999C15.0742 26.4928 15.3249 26.5893 15.6049 26.5893M15.5969 27.9226C14.9116 27.9226 14.3249 27.6719 13.8369 27.1706C13.3489 26.6693 13.1347 26.0497 13.1942 25.3119C12.4387 25.3208 11.8098 25.0955 11.3076 24.6359C10.8054 24.1764 10.5667 23.5346 10.5916 22.7106C9.76846 22.7195 9.11958 22.4839 8.64491 22.0039C8.17024 21.5239 7.95424 20.8919 7.99691 20.1079C7.25558 20.1168 6.63513 19.9079 6.13558 19.4813C5.63691 19.0564 5.38758 18.4644 5.38758 17.7053C5.38758 17.3631 5.4538 17.0208 5.58624 16.6786C5.71869 16.3355 5.91424 16.0342 6.17291 15.7746L11.3662 10.5813C11.7751 10.1733 12.2791 9.96928 12.8782 9.96928C13.4774 9.96928 13.9814 10.1737 14.3902 10.5826L16.3249 12.5173C16.4378 12.6355 16.5774 12.7328 16.7436 12.8093C16.9098 12.8857 17.0969 12.9235 17.3049 12.9226C17.5902 12.9226 17.8422 12.8231 18.0609 12.6239C18.2796 12.4248 18.3894 12.1653 18.3902 11.8453C18.3902 11.6373 18.352 11.4506 18.2756 11.2853C18.1991 11.1191 18.1022 10.9795 17.9849 10.8666L13.3982 6.27994C13.0676 5.94483 12.724 5.69905 12.3676 5.54261C12.0111 5.38617 11.6209 5.30794 11.1969 5.30794C10.7782 5.30794 10.3978 5.38617 10.0556 5.54261C9.71424 5.69905 9.37602 5.94483 9.04091 6.27994L4.98091 10.3466C4.51513 10.8115 4.21558 11.3791 4.08224 12.0493C3.94891 12.7195 4.0098 13.3595 4.26491 13.9693C4.31469 14.1417 4.29246 14.3084 4.19824 14.4693C4.10402 14.6302 3.97069 14.7324 3.79824 14.7759C3.6258 14.8195 3.45469 14.7964 3.28491 14.7066C3.11513 14.6168 3.00846 14.4848 2.96491 14.3106C2.6778 13.4484 2.61513 12.5777 2.77691 11.6986C2.93869 10.8195 3.35646 10.0431 4.03024 9.36928L8.06224 5.33594C8.52713 4.8755 9.01913 4.53328 9.53824 4.30928C10.0574 4.08617 10.6187 3.97461 11.2222 3.97461C11.8258 3.97461 12.3822 4.08661 12.8916 4.31061C13.4018 4.53372 13.8871 4.8755 14.3476 5.33594L15.5076 6.49728L16.6702 5.33594C17.1351 4.8755 17.6227 4.53328 18.1329 4.30928C18.6431 4.08617 19.2 3.97461 19.8036 3.97461C20.4071 3.97461 20.9685 4.08661 21.4876 4.31061C22.0058 4.53372 22.4947 4.8755 22.9542 5.33594L27.9222 10.3026C28.3818 10.7622 28.7365 11.2782 28.9862 11.8506C29.236 12.4231 29.3605 13.0111 29.3596 13.6146C29.3596 14.2191 29.2351 14.7759 28.9862 15.2853C28.7374 15.7946 28.3827 16.2799 27.9222 16.7413L17.5262 27.1279C17.2498 27.4053 16.9485 27.6071 16.6222 27.7333C16.2969 27.8595 15.956 27.9226 15.5969 27.9226Z" fill="#05408E"/>
</svg>
