<svg width="53" height="47" viewBox="0 0 53 47" fill="none" xmlns="http://www.w3.org/2000/svg">
<g clip-path="url(#clip0_41_7199)">
<path d="M26.3401 0.18042L27.7529 2.5335C28.0705 2.96773 28.4146 3.35209 28.8199 3.71004C30.0081 4.75063 31.1157 5.86124 32.1351 7.03428C34.5288 9.8216 36.1434 12.917 37.2965 16.2647C37.988 18.3097 38.3635 20.4075 38.3916 22.5288C38.5074 28.8707 36.0557 34.3162 31.1127 38.8419C30.3087 39.5596 29.4401 40.2181 28.5155 40.8107C28.0258 40.8107 27.7942 40.4777 27.5924 40.1711C27.2249 39.6025 26.9803 38.9781 26.8712 38.33C26.6975 37.5627 26.5833 36.7955 26.6395 36.0033V35.6453C26.5998 35.569 26.1681 0.360862 26.3401 0.18042Z" fill="#599636"/>
<path d="M26.3403 0.102716C26.2824 2.5034e-05 26.2245 0.0777764 26.1666 0.127655C26.1947 0.641107 25.9929 1.09881 25.6769 1.53598C25.3295 1.97022 24.8696 2.30323 24.4081 2.66118C21.8439 4.6299 19.8257 7.00792 18.2094 9.66761C16.0589 13.2471 14.9505 17.0833 14.6362 21.122C14.4923 22.5787 15.1556 27.7191 15.6734 29.2023C17.0862 33.1397 19.6239 36.439 22.9109 39.3026C23.7182 39.9921 24.5818 40.6317 25.4751 41.2464C25.7348 41.2464 25.7629 41.041 25.8225 40.8885C25.9363 40.562 26.0231 40.2286 26.0822 39.8909L26.6612 36.0561L26.3403 0.102716Z" fill="#6CAC48"/>
<path d="M27.7535 42.3688C27.8114 41.782 28.1291 41.2949 28.4748 40.8093C28.1274 40.6817 27.8693 40.4279 27.6675 40.1448C27.4935 39.8767 27.3494 39.5942 27.2374 39.3013C26.8338 38.2274 26.7477 37.1007 26.6319 36.0034V35.3389C26.488 35.4416 26.4582 36.31 26.4582 36.4391C26.3741 37.5989 26.2005 38.7522 25.9388 39.891C25.8528 40.3516 25.7949 40.8108 25.4756 41.2201C25.4756 41.2714 25.4756 41.3228 25.5037 41.3991C26.0232 42.7546 26.1654 44.135 26.2531 45.5419V46.0554C26.2531 46.6686 26.225 46.5395 26.799 46.7449C27.0306 46.8211 27.2887 46.8475 27.5203 47.0001C27.694 47.0001 27.7221 46.8725 27.7221 46.7698L27.6361 45.9263V43.5732C27.608 43.1624 27.694 42.7546 27.7519 42.3702L27.7535 42.3688Z" fill="#C2BFBF"/>
</g>
<defs>
<clipPath id="clip0_41_7199">
<rect width="53" height="47" fill="white"/>
</clipPath>
</defs>
</svg>
