<svg width="37" height="45" viewBox="0 0 37 45" fill="none" xmlns="http://www.w3.org/2000/svg">
<g clip-path="url(#clip0_40_6739)">
<path d="M18.5017 43.1576C17.9462 43.1579 17.4004 43.0118 16.9192 42.7341L11.8833 39.7528C11.1317 39.3322 11.498 39.1836 11.7465 39.0969C12.5458 38.8499 13.3112 38.5041 14.0247 38.0673C14.0845 38.0397 14.1503 38.0278 14.2159 38.0327C14.2815 38.0375 14.3448 38.0591 14.3998 38.0953L18.2694 40.3941C18.3414 40.4322 18.4217 40.4521 18.5032 40.4521C18.5847 40.4521 18.665 40.4322 18.7371 40.3941L33.8271 31.6842C33.8977 31.6419 33.9561 31.582 33.9966 31.5103C34.0371 31.4386 34.0583 31.3577 34.058 31.2753V13.8527C34.0581 13.769 34.0366 13.6868 33.9956 13.6139C33.9547 13.541 33.8956 13.4799 33.8242 13.4364L18.7341 4.73392C18.663 4.69384 18.5827 4.67279 18.501 4.67279C18.4193 4.67279 18.3391 4.69384 18.2679 4.73392L3.18667 13.4394C3.11473 13.4819 3.055 13.5423 3.01326 13.6147C2.97151 13.6871 2.94918 13.7691 2.94841 13.8527V31.268C2.94861 31.3501 2.97065 31.4307 3.01226 31.5015C3.05386 31.5723 3.11355 31.6308 3.1852 31.671L7.32393 34.0595C9.56685 35.1802 10.9405 33.8595 10.9405 32.5328V15.3381C10.9405 15.2802 10.952 15.2228 10.9741 15.1693C10.9963 15.1157 11.0288 15.0671 11.0698 15.0261C11.1107 14.9852 11.1594 14.9527 11.2129 14.9305C11.2665 14.9083 11.3238 14.8969 11.3818 14.8969H13.2938C13.4108 14.8969 13.523 14.9434 13.6058 15.0261C13.6885 15.1089 13.735 15.2211 13.735 15.3381V32.5343C13.735 35.5273 12.1054 37.2408 9.26681 37.2408C8.04222 37.2621 6.83683 36.9346 5.79139 36.2965L1.82474 34.0213C1.34319 33.7408 0.943631 33.339 0.665937 32.8559C0.388243 32.3727 0.242134 31.8252 0.242198 31.268V13.8527C0.240767 13.2945 0.386257 12.7459 0.664048 12.2618C0.94184 11.7778 1.34215 11.3753 1.82474 11.095L16.9163 2.38217C17.4024 2.1162 17.9476 1.97681 18.5017 1.97681C19.0559 1.97681 19.6011 2.1162 20.0872 2.38217L35.1773 11.095C35.6588 11.3749 36.0584 11.7761 36.3364 12.2587C36.6143 12.7413 36.7608 13.2884 36.7613 13.8453V31.268C36.7605 31.8252 36.6138 32.3726 36.3359 32.8556C36.0581 33.3386 35.6586 33.7405 35.1773 34.0213L20.0872 42.7341C19.6052 43.0122 19.0583 43.1583 18.5017 43.1576Z" fill="#00D486"/>
<path d="M15.6387 25.4394C15.6387 25.3223 15.6852 25.2101 15.7679 25.1274C15.8507 25.0446 15.9629 24.9981 16.0799 24.9981H18.0316C18.1359 24.9985 18.2367 25.0357 18.3161 25.1033C18.3955 25.1709 18.4484 25.2644 18.4655 25.3673C18.7596 27.3543 19.6421 28.3559 23.6323 28.3559C26.8106 28.3559 28.1652 27.6367 28.1652 25.9497C28.1652 24.9775 27.7813 24.2554 22.841 23.7715C18.7111 23.3626 16.1579 22.4478 16.1579 19.1474C16.1579 16.103 18.7243 14.2866 23.0263 14.2866C27.8607 14.2866 30.2537 15.9647 30.5566 19.5651C30.5613 19.6252 30.5535 19.6857 30.5339 19.7427C30.5143 19.7997 30.4832 19.852 30.4425 19.8966C30.4019 19.9411 30.3525 19.9768 30.2975 20.0015C30.2425 20.0262 30.183 20.0394 30.1228 20.0402H28.1578C28.0592 20.0388 27.964 20.0045 27.8872 19.9426C27.8104 19.8808 27.7566 19.795 27.7342 19.699C27.2651 17.609 26.1164 16.9413 23.0278 16.9413C19.5568 16.9413 19.1538 18.1503 19.1538 19.0563C19.1538 20.1534 19.6303 20.4741 24.3162 21.0933C28.9535 21.7066 31.1567 22.5743 31.1567 25.8335C31.1567 29.1222 28.4152 31.0047 23.6337 31.0047C17.0227 31.0136 15.6387 27.9823 15.6387 25.4394Z" fill="#00D486"/>
</g>
<defs>
<clipPath id="clip0_40_6739">
<rect width="36.522" height="45" fill="white" transform="translate(0.238281)"/>
</clipPath>
</defs>
</svg>
