<svg width="39" height="48" viewBox="0 0 39 48" fill="none" xmlns="http://www.w3.org/2000/svg">
<path d="M19.5014 46.0349C18.9081 46.0351 18.3253 45.8793 17.8115 45.5831L12.4339 42.4031C11.6313 41.9544 12.0224 41.7959 12.2878 41.7034C13.1414 41.44 13.9586 41.0711 14.7206 40.6052C14.7844 40.5757 14.8547 40.563 14.9247 40.5682C14.9948 40.5734 15.0624 40.5964 15.1211 40.635L19.2532 43.0871C19.3302 43.1277 19.4159 43.149 19.503 43.149C19.59 43.149 19.6757 43.1277 19.7527 43.0871L35.8666 33.7965C35.942 33.7514 36.0044 33.6875 36.0476 33.611C36.0908 33.5346 36.1134 33.4482 36.1132 33.3604V14.7762C36.1132 14.687 36.0903 14.5993 36.0465 14.5216C36.0028 14.4438 35.9397 14.3786 35.8634 14.3322L19.7495 5.04956C19.6735 5.00681 19.5878 4.98436 19.5006 4.98436C19.4134 4.98436 19.3277 5.00681 19.2517 5.04956L3.14719 14.3354C3.07037 14.3808 3.00659 14.4452 2.96201 14.5224C2.91744 14.5997 2.89359 14.6871 2.89276 14.7762V33.3526C2.89298 33.4402 2.91651 33.5261 2.96095 33.6017C3.00538 33.6772 3.06911 33.7396 3.14562 33.7824L7.56517 36.3302C9.96026 37.5256 11.4272 36.1168 11.4272 34.7017V16.3607C11.4272 16.2989 11.4393 16.2377 11.463 16.1806C11.4867 16.1235 11.5214 16.0716 11.5652 16.0279C11.6089 15.9842 11.6609 15.9496 11.718 15.9259C11.7752 15.9023 11.8365 15.8901 11.8983 15.8901H13.94C14.065 15.8901 14.1849 15.9397 14.2732 16.0279C14.3616 16.1162 14.4112 16.2359 14.4112 16.3607V34.7033C14.4112 37.8959 12.671 39.7235 9.63987 39.7235C8.33219 39.7463 7.04502 39.397 5.92865 38.7163L1.69286 36.2894C1.17864 35.9903 0.751965 35.5616 0.45543 35.0463C0.158894 34.531 0.00287276 33.947 0.00294086 33.3526V14.7762C0.00141242 14.1809 0.156774 13.5957 0.453414 13.0793C0.750053 12.563 1.17752 12.1337 1.69286 11.8347L17.8083 2.54103C18.3274 2.25733 18.9097 2.10864 19.5014 2.10864C20.0931 2.10864 20.6753 2.25733 21.1944 2.54103L37.3083 11.8347C37.8225 12.1332 38.2493 12.5612 38.5461 13.076C38.8429 13.5908 38.9994 14.1743 38.9998 14.7684V33.3526C38.999 33.947 38.8424 34.5308 38.5456 35.046C38.2489 35.5612 37.8223 35.9899 37.3083 36.2894L21.1944 45.5831C20.6797 45.8797 20.0957 46.0356 19.5014 46.0349Z" fill="#00D486"/>
<path d="M16.4453 27.1353C16.4453 27.0105 16.495 26.8908 16.5833 26.8025C16.6717 26.7143 16.7915 26.6647 16.9165 26.6647H19.0006C19.112 26.6651 19.2196 26.7048 19.3044 26.7769C19.3892 26.849 19.4457 26.9487 19.4639 27.0585C19.778 29.1779 20.7204 30.2463 24.9813 30.2463C28.3753 30.2463 29.8217 29.4792 29.8217 27.6797C29.8217 26.6427 29.4118 25.8724 24.1363 25.3563C19.7262 24.9202 16.9997 23.9444 16.9997 20.424C16.9997 17.1765 19.7403 15.239 24.3342 15.239C29.4966 15.239 32.0519 17.029 32.3755 20.8695C32.3804 20.9336 32.3721 20.9981 32.3512 21.0589C32.3302 21.1197 32.297 21.1755 32.2536 21.223C32.2102 21.2705 32.1575 21.3086 32.0987 21.3349C32.04 21.3613 31.9765 21.3753 31.9121 21.3762H29.8139C29.7086 21.3747 29.6069 21.3381 29.5249 21.2721C29.4429 21.2062 29.3854 21.1147 29.3616 21.0123C28.8606 18.783 27.6339 18.0707 24.3358 18.0707C20.6293 18.0707 20.1989 19.3603 20.1989 20.3267C20.1989 21.497 20.7078 21.839 25.7116 22.4995C30.6636 23.1537 33.0162 24.0793 33.0162 27.5558C33.0162 31.0637 30.0887 33.0717 24.9829 33.0717C17.9232 33.0812 16.4453 29.8478 16.4453 27.1353Z" fill="#00D486"/>
</svg>
