<svg width="43" height="45" viewBox="0 0 43 45" fill="none" xmlns="http://www.w3.org/2000/svg">
<g clip-path="url(#clip0_40_6733)">
<path d="M42.8342 26.9438C42.5764 26.1514 41.901 25.5995 41.0276 25.4671C40.6157 25.4047 40.144 25.4313 39.5859 25.5481C38.613 25.7517 37.8912 25.8293 37.3645 25.8443C39.3527 22.4381 40.9694 18.5538 41.9002 14.8974C43.4052 8.98512 42.6009 6.2917 41.6611 5.07341C39.174 1.84873 35.5454 0.116408 31.1678 0.0634019C28.8325 0.0344275 26.7825 0.502278 25.713 0.838722C24.7173 0.660444 23.6467 0.560909 22.5233 0.542502C20.4175 0.508414 18.5569 0.97422 16.967 1.93157C16.0869 1.62955 14.6743 1.2038 13.043 0.932122C9.20621 0.292981 6.11391 0.791 3.85204 2.41237C1.11314 4.37547 -0.156534 7.78627 0.0782859 12.55C0.152864 14.0625 0.986661 18.6643 2.2995 23.0285C3.05402 25.537 3.85859 27.6201 4.69088 29.2205C5.87119 31.4899 7.13415 32.8263 8.55197 33.3062C9.34663 33.5748 10.7905 33.763 12.3091 32.4796C12.5016 32.7162 12.7584 32.9512 13.0992 33.1695C13.5321 33.4465 14.0613 33.6728 14.5899 33.807C16.4949 34.2901 18.2792 34.1693 19.8015 33.492C19.8109 33.7667 19.8181 34.0292 19.8242 34.2559C19.8343 34.6235 19.8443 34.984 19.8576 35.3211C19.9478 37.6006 20.1007 39.3729 20.5535 40.613C20.5784 40.6812 20.6118 40.7852 20.6471 40.8955C20.873 41.5973 21.2507 42.7723 22.2119 43.6925C23.2071 44.6458 24.4109 44.9381 25.5135 44.9381C26.0664 44.9381 26.594 44.8644 27.0568 44.7639C28.7062 44.4051 30.5796 43.8587 31.9347 41.9007C33.216 40.0497 33.8388 37.2619 33.9515 32.8692C33.9661 32.745 33.9796 32.6263 33.9925 32.5133L34.0194 32.2812L34.3212 32.3081L34.399 32.3134C36.079 32.3911 38.1333 32.0296 39.3949 31.435C40.3918 30.9656 43.5864 29.2542 42.8342 26.9438Z" fill="black"/>
<path d="M39.9608 27.3931C34.9654 28.4387 34.6219 26.7226 34.6219 26.7226C39.8961 18.7814 42.101 8.70118 40.1985 6.2341C35.0075 -0.495628 26.0221 2.68712 25.8721 2.76961L25.8239 2.77848C24.8369 2.57054 23.7325 2.44681 22.491 2.42618C20.2308 2.38869 18.5162 3.02749 17.2151 4.02864C17.2151 4.02864 1.18586 -2.67194 1.93148 12.4557C2.09004 15.6739 6.47739 36.8067 11.7103 30.4236C13.6229 28.0895 15.4711 26.116 15.4711 26.116C16.3889 26.7347 17.4877 27.0503 18.6397 26.937L18.7292 26.8599C18.7013 27.1497 18.7141 27.4331 18.765 27.7687C17.4169 29.297 17.8131 29.5653 15.1182 30.1282C12.3912 30.6985 13.9931 31.7136 15.0391 31.9792C16.3071 32.3008 19.2405 32.7566 21.2225 29.9411L21.1436 30.2624C21.6717 30.6917 22.0425 33.0547 21.9804 35.1969C21.9182 37.3389 21.8768 38.8096 22.2928 39.9584C22.7092 41.1071 23.1239 43.6918 26.6667 42.9216C29.6268 42.2779 31.1609 40.6098 31.3744 37.8272C31.5257 35.8491 31.8685 36.1416 31.89 34.373L32.165 33.5358C32.482 30.8543 32.2154 29.9892 34.039 30.3916L34.4825 30.4311C35.8246 30.493 37.5815 30.2119 38.6127 29.7257C40.8329 28.6802 42.1497 26.9344 39.9604 27.3931H39.9608Z" fill="#336791"/>
<path d="M18.1528 13.8949C17.7027 13.8313 17.295 13.8901 17.0888 14.0486C16.9729 14.1378 16.9369 14.2411 16.9272 14.3121C16.9013 14.5005 17.0313 14.7087 17.1113 14.8161C17.3374 15.1202 17.6676 15.3291 17.9945 15.3752C18.0418 15.382 18.089 15.385 18.1359 15.385C18.6809 15.385 19.1766 14.9543 19.2203 14.6365C19.2749 14.2383 18.7053 13.9728 18.1528 13.8949ZM33.0658 13.9075C33.0228 13.5955 32.4755 13.5065 31.9562 13.5798C31.4375 13.6531 30.9346 13.8906 30.9766 14.2034C31.0102 14.4466 31.443 14.8618 31.9553 14.8618C31.9987 14.8618 32.0424 14.8589 32.0864 14.8526C32.4283 14.8045 32.6793 14.5842 32.7985 14.4572C32.98 14.2636 33.0851 14.0478 33.0658 13.9075Z" fill="#F3F3F6"/>
<path d="M41.623 27.2743C41.4326 26.6898 40.8195 26.5018 39.8009 26.7152C36.7766 27.3486 35.6936 26.9099 35.338 26.6441C37.6887 23.0104 39.6225 18.6179 40.6658 14.5197C41.16 12.5785 41.4329 10.7756 41.4552 9.30606C41.4799 7.6932 41.2092 6.50798 40.6508 5.78396C38.3997 2.86522 35.0958 1.29958 31.0964 1.25663C28.347 1.22527 26.024 1.93923 25.5736 2.14001C24.6253 1.90072 23.5914 1.7538 22.4659 1.73505C20.4019 1.70113 18.6177 2.20256 17.1406 3.22467C16.4989 2.98231 14.8408 2.4047 12.8129 2.0732C9.30703 1.50053 6.5211 1.93446 4.53302 3.36358C2.1608 5.06898 1.06564 8.11742 1.27779 12.424C1.34918 13.8729 2.16282 18.3302 3.44677 22.5988C5.13687 28.2171 6.97411 31.3977 8.9071 32.052C9.13335 32.1285 9.39421 32.182 9.68194 32.182C10.3871 32.182 11.2516 31.8595 12.1511 30.7623C13.2482 29.4268 14.3831 28.1238 15.5543 26.8548C16.3142 27.2686 17.149 27.4997 18.0028 27.5229C18.0045 27.5456 18.0066 27.5683 18.0087 27.5908C17.8617 27.7686 17.7178 27.949 17.577 28.1319C16.9854 28.8939 16.8623 29.0526 14.958 29.4504C14.4163 29.5639 12.9777 29.8647 12.9565 30.888C12.9336 32.0061 14.6572 32.4757 14.8535 32.5254C15.5378 32.6993 16.1971 32.785 16.8258 32.785C18.3548 32.785 19.7004 32.2751 20.7758 31.2884C20.7427 35.2743 20.9065 39.2018 21.3781 40.3985C21.7644 41.3781 22.7081 43.7723 25.6889 43.7721C26.1262 43.7721 26.6076 43.7205 27.1373 43.6052C30.2482 42.9286 31.5992 41.5334 32.1217 38.4575C32.4014 36.8136 32.8813 32.8883 33.107 30.7827C33.5834 30.9335 34.1966 31.0026 34.8596 31.0024C36.2423 31.0024 37.8379 30.7043 38.8385 30.2331C39.9625 29.7033 41.9909 28.4036 41.623 27.2743ZM34.2146 13.0461C34.2044 13.6677 34.12 14.232 34.0307 14.8211C33.9344 15.4546 33.835 16.1096 33.81 16.9047C33.7853 17.6785 33.8805 18.4829 33.9726 19.261C34.1587 20.8324 34.3497 22.4502 33.6104 24.0465C33.4876 23.8257 33.3783 23.5975 33.2829 23.3632C33.191 23.1372 32.9915 22.7742 32.7152 22.2717C31.6403 20.3158 29.1233 15.7355 30.4118 13.8665C30.7956 13.3101 31.7697 12.7382 34.2146 13.0461ZM31.251 2.51531C34.8344 2.59559 37.6691 3.95585 39.6759 6.55809C41.2152 8.55408 39.5202 17.6362 34.6134 25.4714C34.564 25.4077 34.5144 25.3442 34.4646 25.281L34.4024 25.2022C35.6704 23.0774 35.4225 20.9751 35.2018 19.1112C35.1111 18.3462 35.0254 17.6237 35.0472 16.9451C35.0697 16.2258 35.1635 15.6088 35.2542 15.0123C35.3655 14.2772 35.4789 13.5165 35.4477 12.6199C35.471 12.5258 35.4804 12.4147 35.4682 12.2827C35.3884 11.4229 34.4209 8.84945 32.4489 6.52025C31.3702 5.24623 29.7972 3.82052 27.6494 2.85892C28.5732 2.66462 29.8365 2.48344 31.251 2.51531ZM11.1992 29.9592C10.2082 31.1682 9.52388 30.9364 9.2988 30.8604C7.83243 30.3641 6.13091 27.2192 4.63078 22.2322C3.33272 17.9171 2.57417 13.5779 2.51404 12.3611C2.32457 8.51301 3.24386 5.83117 5.24655 4.38996C8.50582 2.04474 13.8644 3.44846 16.0176 4.16038C15.9866 4.1914 15.9544 4.22037 15.9238 4.2519C12.3904 7.87267 12.4742 14.0589 12.483 14.4371C12.4826 14.583 12.4947 14.7895 12.5112 15.0737C12.572 16.1142 12.6852 18.0507 12.3829 20.2437C12.102 22.2816 12.7212 24.2763 14.0812 25.7163C14.2208 25.8638 14.3675 26.0042 14.5208 26.1369C13.9154 26.7948 12.5997 28.2497 11.1992 29.9592ZM14.975 24.8472C13.8788 23.6865 13.3809 22.0722 13.6089 20.4176C13.928 18.101 13.8103 16.0833 13.747 14.9993C13.738 14.8477 13.7302 14.7147 13.7256 14.6099C14.2418 14.1455 16.6338 12.845 18.3397 13.2416C19.1181 13.4225 19.5924 13.9604 19.7896 14.8855C20.8102 19.6753 19.9247 21.6716 19.2132 23.276C19.0665 23.6064 18.9279 23.9189 18.8097 24.242L18.718 24.4919C18.4859 25.1235 18.2698 25.7108 18.136 26.2685C16.9706 26.2651 15.837 25.7599 14.975 24.8471V24.8472ZM15.1539 31.3068C14.8136 31.2206 14.5075 31.0708 14.328 30.9465C14.478 30.8749 14.7449 30.7774 15.2078 30.6806C17.448 30.2128 17.794 29.8825 18.5495 28.9091C18.7227 28.6858 18.919 28.4329 19.191 28.1247L19.1913 28.1244C19.5963 27.6642 19.7816 27.7423 20.1175 27.8837C20.3898 27.9979 20.655 28.3443 20.7625 28.7254C20.8134 28.9053 20.8705 29.2469 20.6836 29.5128C19.1053 31.7551 16.8055 31.7263 15.1539 31.3068ZM26.8779 42.3771C24.1373 42.9729 23.167 41.554 22.5275 39.932C22.1148 38.8848 21.9119 34.1627 22.0559 28.9478C22.0577 28.8784 22.048 28.8114 22.0292 28.7484C22.0123 28.6238 21.9867 28.5007 21.9526 28.3799C21.7386 27.6211 21.217 26.9864 20.5913 26.7232C20.3427 26.6188 19.8865 26.427 19.3383 26.5693C19.4552 26.0805 19.6579 25.5285 19.8778 24.9307L19.97 24.6793C20.0738 24.3959 20.2042 24.1022 20.3419 23.7914C21.0865 22.1129 22.1062 19.8139 20.9995 14.6201C20.585 12.6748 19.2006 11.7247 17.102 11.9454C15.8439 12.0775 14.6928 12.5926 14.1187 12.888C13.9952 12.9514 13.8823 13.0127 13.7768 13.0724C13.9371 11.1124 14.5424 7.44931 16.807 5.1317C18.2329 3.67275 20.1318 2.95214 22.4454 2.991C27.0041 3.06668 29.9274 5.44053 31.5772 7.4188C32.9989 9.12335 33.7687 10.8405 34.0759 11.7667C31.7655 11.5282 30.1941 11.991 29.3976 13.1465C27.6647 15.6601 30.3456 20.5387 31.6341 22.8834C31.8704 23.3131 32.0744 23.6845 32.1385 23.8423C32.5581 24.8742 33.1013 25.5631 33.4979 26.0659C33.6195 26.2199 33.7374 26.3694 33.8271 26.5C33.1274 26.7047 31.8704 27.1776 31.985 29.5418C31.8926 30.728 31.2357 36.2819 30.9019 38.2441C30.4614 40.8365 29.5212 41.802 26.8779 42.3772V42.3771ZM38.3172 29.0938C37.6017 29.4308 36.4043 29.6836 35.2668 29.7379C34.0104 29.7976 33.3707 29.5951 33.2202 29.4705C33.1497 27.9973 33.69 27.8433 34.262 27.6804C34.3518 27.6548 34.4395 27.6298 34.5242 27.5998C34.5768 27.6433 34.6344 27.6864 34.6975 27.7286C35.7074 28.4049 37.5085 28.4779 40.0514 27.9453L40.0792 27.9396C39.7362 28.265 39.1494 28.7017 38.3172 29.0938Z" fill="#F3F3F6"/>
</g>
<defs>
<clipPath id="clip0_40_6733">
<rect width="43" height="45" fill="white"/>
</clipPath>
</defs>
</svg>
