<svg width="42" height="38" viewBox="0 0 42 38" fill="none" xmlns="http://www.w3.org/2000/svg">
<g clip-path="url(#clip0_40_7185)">
<path d="M41.8373 22.7526C41.5855 22.0835 40.9258 21.6174 40.0727 21.5056C39.6704 21.4529 39.2097 21.4754 38.6645 21.574C37.7143 21.7459 37.0093 21.8114 36.4948 21.8241C38.4368 18.9478 40.0159 15.6677 40.925 12.5801C42.395 7.58747 41.6094 5.31302 40.6915 4.28425C38.2622 1.56119 34.718 0.0983346 30.4422 0.0535739C28.1612 0.0291067 26.1588 0.424181 25.1143 0.708289C24.1417 0.557743 23.096 0.473691 21.9987 0.458147C19.9419 0.429362 18.1245 0.822709 16.5717 1.63114C15.712 1.3761 14.3322 1.01658 12.7389 0.78716C8.99134 0.247441 5.97095 0.66799 3.76169 2.03715C1.08648 3.69488 -0.153666 6.5751 0.0756932 10.5978C0.148537 11.875 0.962943 15.761 2.24526 19.4463C2.98222 21.5646 3.76808 23.3237 4.58101 24.6751C5.73388 26.5915 6.96747 27.72 8.35232 28.1253C9.1285 28.3521 10.5388 28.511 12.0221 27.4272C12.2101 27.627 12.4609 27.8255 12.7938 28.0099C13.2166 28.2437 13.7336 28.4349 14.2499 28.5481C16.1105 28.9562 17.8533 28.8541 19.3402 28.2822C19.3494 28.5142 19.3565 28.7358 19.3624 28.9272C19.3722 29.2377 19.3821 29.5421 19.395 29.8268C19.4831 31.7516 19.6324 33.2483 20.0747 34.2955C20.099 34.3531 20.1317 34.4409 20.1661 34.534C20.3868 35.1267 20.7558 36.1189 21.6945 36.8959C22.6666 37.7009 23.8424 37.9477 24.9193 37.9477C25.4594 37.9477 25.9748 37.8856 26.4268 37.8006C28.0378 37.4977 29.8676 37.0363 31.1913 35.3828C32.4428 33.8198 33.0511 31.4656 33.1612 27.7563C33.1755 27.6513 33.1886 27.5512 33.2012 27.4557L33.2275 27.2597L33.5223 27.2825L33.5983 27.2869C35.2392 27.3525 37.2457 27.0473 38.478 26.5451C39.4517 26.1488 42.572 24.7036 41.8373 22.7526Z" fill="black"/>
<path d="M39.0309 23.1318C34.1516 24.0148 33.8161 22.5656 33.8161 22.5656C38.9677 15.8597 41.1214 7.34754 39.263 5.26423C34.1928 -0.41865 25.4163 2.26901 25.2698 2.33867L25.2227 2.34615C24.2587 2.17056 23.18 2.06607 21.9674 2.04866C19.7598 2.01699 18.085 2.55642 16.8142 3.40184C16.8142 3.40184 1.1577 -2.25643 1.88597 10.5181C2.04084 13.2357 6.32616 31.0811 11.4374 25.6909C13.3055 23.7199 15.1107 22.0534 15.1107 22.0534C16.0072 22.5758 17.0805 22.8424 18.2056 22.7467L18.293 22.6816C18.2658 22.9263 18.2783 23.1656 18.328 23.449C17.0112 24.7396 17.3982 24.9661 14.766 25.4415C12.1025 25.9231 13.6671 26.7803 14.6888 27.0045C15.9273 27.2761 18.7924 27.661 20.7284 25.2835L20.6513 25.5548C21.1671 25.9173 21.5293 27.9127 21.4686 29.7217C21.4079 31.5305 21.3674 32.7725 21.7738 33.7425C22.1805 34.7126 22.5856 36.8952 26.046 36.2448C28.9373 35.7012 30.4356 34.2926 30.6442 31.9429C30.792 30.2725 31.1268 30.5195 31.1478 29.026L31.4164 28.319C31.726 26.0546 31.4656 25.3241 33.2468 25.6639L33.68 25.6973C34.9908 25.7495 36.7069 25.5122 37.7141 25.1016C39.8827 24.2187 41.1689 22.7445 39.0305 23.1318H39.0309Z" fill="#336791"/>
<path d="M17.7317 11.7335C17.292 11.6799 16.8938 11.7295 16.6923 11.8634C16.5791 11.9386 16.544 12.0259 16.5345 12.0859C16.5093 12.2449 16.6362 12.4208 16.7143 12.5115C16.9352 12.7682 17.2577 12.9447 17.577 12.9835C17.6232 12.9893 17.6693 12.9919 17.7151 12.9919C18.2475 12.9919 18.7316 12.6282 18.7743 12.3598C18.8276 12.0236 18.2713 11.7993 17.7317 11.7335ZM32.2978 11.7442C32.2558 11.4807 31.7213 11.4055 31.214 11.4674C30.7074 11.5293 30.2162 11.7299 30.2572 11.9941C30.29 12.1994 30.7128 12.55 31.2132 12.55C31.2555 12.55 31.2982 12.5476 31.3412 12.5423C31.6752 12.5017 31.9203 12.3156 32.0368 12.2084C32.214 12.0449 32.3167 11.8626 32.2978 11.7442Z" fill="#F3F3F6"/>
<path d="M40.6549 23.0316C40.4688 22.5381 39.87 22.3793 38.8751 22.5595C35.9212 23.0943 34.8633 22.7239 34.516 22.4995C36.812 19.431 38.7009 15.7218 39.7199 12.2611C40.2026 10.6218 40.4692 9.09936 40.491 7.85844C40.5151 6.49648 40.2506 5.49562 39.7053 4.88423C37.5065 2.41951 34.2794 1.09742 30.3731 1.06115C27.6875 1.03467 25.4186 1.63757 24.9787 1.80711C24.0524 1.60504 23.0426 1.48098 21.9432 1.46515C19.9272 1.43651 18.1846 1.85993 16.7418 2.72305C16.1151 2.51839 14.4954 2.03063 12.5147 1.75069C9.09041 1.26711 6.36927 1.63354 4.42742 2.84035C2.11037 4.28046 1.04068 6.8547 1.24789 10.4914C1.31762 11.7149 2.11234 15.4788 3.36643 19.0834C5.01723 23.8278 6.81174 26.5136 8.69977 27.0661C8.92077 27.1307 9.17556 27.1759 9.45659 27.1759C10.1453 27.1759 10.9898 26.9036 11.8683 25.977C12.9399 24.8493 14.0484 23.749 15.1924 22.6774C15.9346 23.0268 16.75 23.222 17.5839 23.2416C17.5856 23.2607 17.5877 23.2799 17.5897 23.2989C17.4461 23.449 17.3055 23.6014 17.168 23.7558C16.5902 24.3993 16.4699 24.5333 14.61 24.8692C14.0809 24.9651 12.6757 25.2191 12.655 26.0832C12.6327 27.0274 14.3161 27.4239 14.5079 27.4659C15.1763 27.6127 15.8203 27.6851 16.4343 27.6851C17.9278 27.6851 19.2421 27.2545 20.2924 26.4213C20.2601 29.7871 20.4201 33.1037 20.8808 34.1142C21.2581 34.9415 22.1798 36.9632 25.0913 36.9631C25.5185 36.9631 25.9887 36.9195 26.506 36.8222C29.5446 36.2508 30.8641 35.0726 31.3745 32.4752C31.6477 31.0871 32.1164 27.7723 32.3369 25.9943C32.8022 26.1217 33.4012 26.1799 34.0487 26.1798C35.3993 26.1798 36.9577 25.9281 37.9351 25.5301C39.033 25.0828 41.0142 23.9852 40.6549 23.0316ZM33.4187 11.0167C33.4087 11.5416 33.3264 12.0182 33.2391 12.5156C33.1451 13.0505 33.048 13.6036 33.0235 14.275C32.9994 14.9285 33.0924 15.6078 33.1823 16.2648C33.3641 17.5918 33.5506 18.9579 32.8286 20.3059C32.7087 20.1195 32.6018 19.9268 32.5087 19.7289C32.4189 19.5381 32.224 19.2315 31.9542 18.8072C30.9043 17.1556 28.4458 13.2877 29.7044 11.7094C30.0793 11.2397 31.0306 10.7567 33.4187 11.0167ZM30.524 2.12403C34.0241 2.19182 36.7929 3.34049 38.7531 5.53794C40.2565 7.22344 38.601 14.8928 33.8082 21.5092C33.76 21.4554 33.7116 21.4018 33.6629 21.3484L33.6022 21.2819C34.8407 19.4876 34.5985 17.7123 34.3829 16.1383C34.2943 15.4924 34.2107 14.8823 34.232 14.3092C34.254 13.7018 34.3455 13.1808 34.4341 12.677C34.5429 12.0563 34.6536 11.414 34.6231 10.6568C34.6459 10.5773 34.6551 10.4835 34.6431 10.3721C34.5652 9.64599 33.6202 7.47286 31.6941 5.50598C30.6405 4.43015 29.1041 3.22621 27.0062 2.41419C27.9085 2.25011 29.1425 2.09712 30.524 2.12403ZM10.9386 25.2988C9.9706 26.3198 9.30221 26.1241 9.08237 26.0599C7.6501 25.6408 5.98815 22.9851 4.52291 18.7739C3.25503 15.13 2.51413 11.4658 2.45539 10.4383C2.27033 7.18876 3.16824 4.9241 5.12436 3.70707C8.30783 1.72666 13.5418 2.91202 15.6449 3.5132C15.6147 3.53939 15.5832 3.56386 15.5533 3.59049C12.1021 6.64803 12.184 11.8719 12.1925 12.1913C12.1922 12.3145 12.204 12.4889 12.2201 12.7289C12.2795 13.6075 12.39 15.2428 12.0947 17.0947C11.8204 18.8156 12.4251 20.4999 13.7536 21.716C13.8899 21.8405 14.0332 21.9591 14.1829 22.0712C13.5916 22.6267 12.3065 23.8553 10.9386 25.2988ZM14.6265 20.9821C13.5559 20.002 13.0696 18.6387 13.2922 17.2415C13.6039 15.2853 13.4889 13.5815 13.4271 12.6661C13.4184 12.538 13.4107 12.4258 13.4062 12.3372C13.9104 11.945 16.2468 10.8469 17.913 11.1818C18.6733 11.3345 19.1366 11.7887 19.3292 12.57C20.3261 16.6147 19.4611 18.3005 18.7662 19.6553C18.6229 19.9343 18.4876 20.1981 18.3721 20.471L18.2825 20.682C18.0558 21.2154 17.8448 21.7114 17.714 22.1823C16.5758 22.1794 15.4685 21.7528 14.6265 20.982V20.9821ZM14.8013 26.4369C14.4689 26.364 14.1699 26.2375 13.9946 26.1326C14.1411 26.0721 14.4018 25.9898 14.8539 25.9081C17.042 25.513 17.38 25.2341 18.1179 24.4121C18.2871 24.2236 18.4789 24.01 18.7445 23.7498L18.7448 23.7495C19.1404 23.3609 19.3213 23.4268 19.6495 23.5463C19.9154 23.6427 20.1745 23.9352 20.2795 24.257C20.3292 24.409 20.385 24.6974 20.2024 24.9219C18.6608 26.8154 16.4145 26.7911 14.8013 26.4369ZM26.2527 35.7851C23.5758 36.2882 22.628 35.0901 22.0034 33.7203C21.6003 32.836 21.4021 28.8485 21.5428 24.4448C21.5446 24.3862 21.535 24.3296 21.5167 24.2764C21.5002 24.1712 21.4752 24.0673 21.4419 23.9652C21.2328 23.3245 20.7234 22.7885 20.1123 22.5663C19.8695 22.4781 19.4239 22.3161 18.8884 22.4363C19.0026 22.0235 19.2006 21.5574 19.4154 21.0526L19.5054 20.8403C19.6068 20.601 19.7341 20.353 19.8687 20.0905C20.5959 18.6731 21.592 16.7317 20.511 12.3459C20.1061 10.7031 18.7539 9.90088 16.7041 10.0873C15.4752 10.1988 14.3509 10.6337 13.7901 10.8832C13.6696 10.9367 13.5593 10.9885 13.4563 11.0389C13.6128 9.38376 14.2041 6.29052 16.416 4.33343C17.8087 3.10143 19.6634 2.49291 21.9232 2.52573C26.3759 2.58963 29.2312 4.59422 30.8426 6.26476C32.2313 7.70415 32.9832 9.1542 33.2832 9.93629C31.0265 9.73493 29.4917 10.1257 28.7138 11.1015C27.0211 13.2241 29.6397 17.3438 30.8982 19.3238C31.1291 19.6866 31.3283 20.0002 31.3909 20.1335C31.8008 21.0048 32.3313 21.5866 32.7187 22.0112C32.8375 22.1413 32.9526 22.2675 33.0403 22.3777C32.3568 22.5506 31.1291 22.95 31.241 24.9464C31.1507 25.9481 30.5091 30.638 30.1831 32.295C29.7528 34.4841 28.8345 35.2995 26.2527 35.7852V35.7851ZM37.426 24.5681C36.7271 24.8527 35.5575 25.0661 34.4464 25.112C33.2192 25.1624 32.5945 24.9914 32.4475 24.8862C32.3786 23.6421 32.9064 23.5122 33.465 23.3746C33.5528 23.353 33.6384 23.3318 33.7211 23.3065C33.7725 23.3432 33.8287 23.3796 33.8904 23.4153C34.8768 23.9864 36.636 24.048 39.1198 23.5982L39.147 23.5935C38.812 23.8682 38.2387 24.237 37.426 24.5681Z" fill="#F3F3F6"/>
</g>
<defs>
<clipPath id="clip0_40_7185">
<rect width="42" height="38" fill="white"/>
</clipPath>
</defs>
</svg>
