<svg width="24" height="24" viewBox="0 0 24 24" fill="none" xmlns="http://www.w3.org/2000/svg">
<path d="M8.25 3.75H5.75C4.64543 3.75 3.75 4.64543 3.75 5.75V8.25C3.75 9.35457 4.64543 10.25 5.75 10.25H8.25C9.35457 10.25 10.25 9.35457 10.25 8.25V5.75C10.25 4.64543 9.35457 3.75 8.25 3.75Z" stroke="#05408E" stroke-width="1.5" stroke-linecap="round" stroke-linejoin="round"/>
<path d="M15.586 3.81799C15.9611 3.44305 16.4697 3.23242 17 3.23242C17.5303 3.23242 18.0389 3.44305 18.414 3.81799L20.182 5.58599C20.5569 5.96105 20.7676 6.46967 20.7676 6.99999C20.7676 7.53032 20.5569 8.03894 20.182 8.41399L18.414 10.182C18.0389 10.5569 17.5303 10.7676 17 10.7676C16.4697 10.7676 15.9611 10.5569 15.586 10.182L13.818 8.41399C13.4431 8.03894 13.2324 7.53032 13.2324 6.99999C13.2324 6.46967 13.4431 5.96105 13.818 5.58599L15.586 3.81799Z" stroke="#05408E" stroke-width="1.5" stroke-linecap="round" stroke-linejoin="round"/>
<path d="M8.75 13.75H5.25C4.42157 13.75 3.75 14.4216 3.75 15.25V18.75C3.75 19.5784 4.42157 20.25 5.25 20.25H8.75C9.57843 20.25 10.25 19.5784 10.25 18.75V15.25C10.25 14.4216 9.57843 13.75 8.75 13.75Z" stroke="#05408E" stroke-width="1.5" stroke-linecap="round" stroke-linejoin="round"/>
<path d="M18.25 13.75H15.75C14.6454 13.75 13.75 14.6454 13.75 15.75V18.25C13.75 19.3546 14.6454 20.25 15.75 20.25H18.25C19.3546 20.25 20.25 19.3546 20.25 18.25V15.75C20.25 14.6454 19.3546 13.75 18.25 13.75Z" stroke="#05408E" stroke-width="1.5" stroke-linecap="round" stroke-linejoin="round"/>
</svg>
