<svg width="43" height="49" viewBox="0 0 43 49" fill="none" xmlns="http://www.w3.org/2000/svg">
<path d="M43 24.5044C43 21.6557 39.4327 18.956 33.9635 17.2818C35.2256 11.7071 34.6647 7.27189 32.193 5.85191C31.6233 5.51883 30.9572 5.36106 30.2297 5.36106V7.31571C30.6329 7.31571 30.9572 7.3946 31.2289 7.54361C32.4209 8.2273 32.938 10.8306 32.5349 14.1789C32.4384 15.0029 32.2807 15.8706 32.0878 16.7559C30.37 16.3352 28.4943 16.0109 26.5222 15.8005C25.339 14.1789 24.1119 12.7064 22.8761 11.4179C25.7334 8.76198 28.4154 7.30695 30.2385 7.30695V5.35229C27.8282 5.35229 24.6728 7.07029 21.4825 10.0505C18.2921 7.08782 15.1368 5.38736 12.7265 5.38736V7.34201C14.5408 7.34201 17.2316 8.78828 20.0889 11.4266C18.8618 12.7151 17.6347 14.1789 16.469 15.8005C14.4882 16.0109 12.6125 16.3352 10.8946 16.7647C10.693 15.8881 10.544 15.0379 10.4388 14.2227C10.0269 10.8744 10.5353 8.27113 11.7185 7.57867C11.9815 7.4209 12.3233 7.35078 12.7265 7.35078V5.39612C11.9902 5.39612 11.3241 5.5539 10.7456 5.88698C8.28271 7.30695 7.73053 11.7334 9.00143 17.2906C3.54973 18.9735 0 21.6645 0 24.5044C0 27.3531 3.56726 30.0528 9.03649 31.727C7.77436 37.3017 8.3353 41.7369 10.807 43.1569C11.3767 43.49 12.0428 43.6477 12.779 43.6477C15.1894 43.6477 18.3447 41.9298 21.5351 38.9496C24.7254 41.9122 27.8808 43.6127 30.2911 43.6127C31.0273 43.6127 31.6934 43.4549 32.2719 43.1218C34.7348 41.7019 35.287 37.2754 34.0161 31.7182C39.4503 30.0441 43 27.3443 43 24.5044ZM31.5883 18.658C31.264 19.7887 30.8608 20.9545 30.405 22.1202C30.0457 21.419 29.6688 20.7178 29.2568 20.0166C28.8536 19.3154 28.4242 18.6317 27.9947 17.9655C29.2393 18.1496 30.4401 18.3775 31.5883 18.658ZM27.574 27.993C26.8903 29.1763 26.1892 30.2982 25.4617 31.3413C24.1557 31.4553 22.8322 31.5166 21.5 31.5166C20.1765 31.5166 18.853 31.4553 17.5559 31.3501C16.8284 30.307 16.1184 29.1938 15.4348 28.0193C14.7687 26.871 14.1639 25.7052 13.6117 24.5307C14.1551 23.3562 14.7687 22.1816 15.426 21.0334C16.1097 19.85 16.8108 18.7281 17.5383 17.685C18.8443 17.5711 20.1678 17.5097 21.5 17.5097C22.8235 17.5097 24.147 17.5711 25.4441 17.6763C26.1716 18.7193 26.8816 19.8325 27.5652 21.0071C28.2313 22.1553 28.8361 23.3211 29.3883 24.4956C28.8361 25.6702 28.2313 26.8447 27.574 27.993ZM30.405 26.8535C30.8783 28.028 31.2815 29.2026 31.6146 30.3421C30.4664 30.6226 29.2568 30.8592 28.0035 31.0433C28.4329 30.3684 28.8624 29.6759 29.2656 28.9659C29.6688 28.2647 30.0457 27.5547 30.405 26.8535ZM21.5175 36.206C20.7024 35.3646 19.8873 34.4267 19.0809 33.4011C19.8698 33.4362 20.6761 33.4625 21.4912 33.4625C22.3151 33.4625 23.1302 33.445 23.9278 33.4011C23.139 34.4267 22.3239 35.3646 21.5175 36.206ZM14.9965 31.0433C13.7519 30.8592 12.5512 30.6313 11.403 30.3508C11.7273 29.2201 12.1305 28.0543 12.5862 26.8886C12.9456 27.5898 13.3225 28.291 13.7344 28.9922C14.1464 29.6934 14.5671 30.3771 14.9965 31.0433ZM21.4737 12.8028C22.2888 13.6442 23.104 14.5821 23.9103 15.6077C23.1215 15.5726 22.3151 15.5463 21.5 15.5463C20.6761 15.5463 19.861 15.5638 19.0634 15.6077C19.8522 14.5821 20.6673 13.6442 21.4737 12.8028ZM14.9878 17.9655C14.5583 18.6404 14.1288 19.3329 13.7256 20.0429C13.3225 20.7441 12.9456 21.4453 12.5862 22.1465C12.1129 20.972 11.7097 19.7975 11.3767 18.658C12.5249 18.3862 13.7344 18.1496 14.9878 17.9655ZM7.05565 28.9396C3.95292 27.6161 1.94578 25.8806 1.94578 24.5044C1.94578 23.1283 3.95292 21.384 7.05565 20.0692C7.80942 19.7449 8.63331 19.4556 9.48349 19.1839C9.98308 20.9019 10.6404 22.69 11.4556 24.5219C10.6492 26.3451 10.0006 28.1245 9.50979 29.8337C8.64207 29.562 7.81818 29.2639 7.05565 28.9396ZM11.7711 41.4652C10.5791 40.7815 10.062 38.1782 10.4651 34.8299C10.5616 34.006 10.7193 33.1382 10.9122 32.2529C12.63 32.6736 14.5057 32.9979 16.4778 33.2083C17.661 34.8299 18.8881 36.3025 20.1239 37.5909C17.2666 40.2468 14.5846 41.7019 12.7615 41.7019C12.3671 41.6931 12.034 41.6142 11.7711 41.4652ZM32.5611 34.7861C32.9731 38.1344 32.4647 40.7377 31.2815 41.4301C31.0185 41.5879 30.6767 41.658 30.2735 41.658C28.4592 41.658 25.7684 40.2118 22.9111 37.5734C24.1382 36.2849 25.3653 34.8211 26.531 33.1995C28.5118 32.9892 30.3875 32.6649 32.1054 32.2354C32.307 33.1207 32.4647 33.9709 32.5611 34.7861ZM35.9356 28.9396C35.1818 29.2639 34.3579 29.5532 33.5077 29.8249C33.0082 28.1069 32.3508 26.3188 31.5357 24.4869C32.342 22.6637 32.9906 20.8843 33.4815 19.1751C34.3492 19.4468 35.1731 19.7449 35.9444 20.0692C39.0471 21.3927 41.0542 23.1283 41.0542 24.5044C41.0455 25.8806 39.0383 27.6248 35.9356 28.9396Z" fill="#61DAFB"/>
<path d="M21.4918 28.5101C23.704 28.5101 25.4973 26.7167 25.4973 24.5044C25.4973 22.2921 23.704 20.4987 21.4918 20.4987C19.2797 20.4987 17.4863 22.2921 17.4863 24.5044C17.4863 26.7167 19.2797 28.5101 21.4918 28.5101Z" fill="#61DAFB"/>
</svg>
