<svg width="68" height="67" viewBox="0 0 68 67" fill="none" xmlns="http://www.w3.org/2000/svg">
<path d="M13.0607 66.0607C12.4749 66.6464 11.5251 66.6464 10.9393 66.0607L1.39339 56.5147C0.80761 55.9289 0.80761 54.9792 1.39339 54.3934C1.97919 53.8076 2.92893 53.8076 3.51472 54.3934L12 62.8787L20.4853 54.3934C21.0711 53.8076 22.0208 53.8076 22.6066 54.3934C23.1924 54.9792 23.1924 55.9289 22.6066 56.5147L13.0607 66.0607ZM68 2L68 3.5C49.6917 3.50003 36.2694 5.15715 27.3146 13.3988C18.3792 21.6227 13.5 36.7915 13.5 65H12H10.5C10.5 36.6622 15.3526 20.331 25.283 11.1914C35.194 2.06974 49.7718 0.500031 68 0.5L68 2Z" fill="#61DAFB"/>
</svg>
