<svg width="41" height="47" viewBox="0 0 41 47" fill="none" xmlns="http://www.w3.org/2000/svg">
<g clip-path="url(#clip0_40_6785)">
<path d="M35.8369 9.22939C35.8048 8.99439 35.5999 8.86434 35.4307 8.85001C35.2617 8.83585 31.6861 8.56946 31.6861 8.56946C31.6861 8.56946 29.2028 6.0915 28.9303 5.81723C28.6575 5.54311 28.1249 5.62649 27.9182 5.68765C27.8877 5.69667 27.3756 5.85553 26.5285 6.11902C25.6989 3.71977 24.2349 1.51495 21.6594 1.51495C21.5883 1.51495 21.5151 1.51785 21.4419 1.52204C20.7095 0.548397 19.8021 0.125397 19.0184 0.125397C13.0187 0.125397 10.1524 7.66391 9.25367 11.4947C6.92235 12.2208 5.26618 12.737 5.05463 12.8038C3.75333 13.2141 3.71218 13.2553 3.54131 14.4878C3.41271 15.4208 0.0078125 41.8871 0.0078125 41.8871L26.5395 46.8836L40.9153 43.7578C40.9153 43.7578 35.8687 9.46439 35.8369 9.22939ZM25.0621 6.57486L22.8171 7.27326C22.8179 7.11423 22.8187 6.95778 22.8187 6.78668C22.8187 5.29556 22.6127 4.09497 22.2824 3.14322C23.6094 3.31061 24.4933 4.82829 25.0621 6.57486ZM20.6361 3.4389C21.0051 4.36811 21.245 5.70166 21.245 7.50118C21.245 7.59325 21.2442 7.67743 21.2434 7.76258C19.7834 8.21712 18.1969 8.71062 16.6068 9.20573C17.4996 5.74254 19.1731 4.06986 20.6361 3.4389ZM18.8536 1.74287C19.1125 1.74287 19.3734 1.83124 19.6231 2.00395C17.7003 2.91337 15.6393 5.20381 14.7689 9.77778L11.1039 10.9187C12.1234 7.42987 14.5442 1.74287 18.8536 1.74287Z" fill="#95BF46"/>
<path d="M35.4309 8.85C35.2619 8.83584 31.6863 8.56945 31.6863 8.56945C31.6863 8.56945 29.203 6.09149 28.9305 5.81721C28.8285 5.71517 28.6909 5.66285 28.5471 5.64032L26.541 46.8833L40.9155 43.7578C40.9155 43.7578 35.8689 9.46438 35.8372 9.22938C35.805 8.99438 35.6001 8.86433 35.4309 8.85Z" fill="#5E8E3E"/>
<path d="M21.66 16.8339L19.8874 22.1336C19.8874 22.1336 18.3344 21.3005 16.4306 21.3005C13.6397 21.3005 13.4993 23.0609 13.4993 23.5045C13.4993 25.925 19.7768 26.8525 19.7768 32.5221C19.7768 36.9827 16.962 39.855 13.1667 39.855C8.61228 39.855 6.2832 37.0061 6.2832 37.0061L7.50267 32.9563C7.50267 32.9563 9.89677 35.0222 11.9169 35.0222C13.237 35.0222 13.7739 33.9776 13.7739 33.2144C13.7739 30.057 8.62381 29.9161 8.62381 24.728C8.62381 20.3613 11.7421 16.1357 18.0365 16.1357C20.4619 16.1357 21.66 16.8339 21.66 16.8339Z" fill="#F3F3F6"/>
</g>
<defs>
<clipPath id="clip0_40_6785">
<rect width="41" height="47" fill="white"/>
</clipPath>
</defs>
</svg>
