<svg width="39" height="44" viewBox="0 0 39 44" fill="none" xmlns="http://www.w3.org/2000/svg">
<g clip-path="url(#clip0_40_7173)">
<path d="M34.0892 8.64032C34.0586 8.42032 33.8637 8.29857 33.7027 8.28516C33.542 8.2719 30.1408 8.02251 30.1408 8.02251C30.1408 8.02251 27.7787 5.70272 27.5194 5.44595C27.26 5.18934 26.7533 5.26739 26.5567 5.32465C26.5277 5.33309 26.0406 5.48181 25.2348 5.72849C24.4457 3.48238 23.0531 1.41829 20.6032 1.41829C20.5356 1.41829 20.466 1.42101 20.3964 1.42492C19.6996 0.513432 18.8365 0.117432 18.091 0.117432C12.384 0.117432 9.65752 7.17476 8.80265 10.7611C6.58505 11.4408 5.00967 11.924 4.80845 11.9866C3.57062 12.3707 3.53148 12.4093 3.36894 13.563C3.24662 14.4366 0.0078125 39.2135 0.0078125 39.2135L25.2453 43.8911L38.9198 40.9648C38.9198 40.9648 34.1193 8.86032 34.0892 8.64032ZM23.8399 6.15523L21.7044 6.80905C21.7052 6.66017 21.7059 6.51371 21.7059 6.35353C21.7059 4.95758 21.51 3.83362 21.1958 2.94262C22.4581 3.09934 23.2988 4.52014 23.8399 6.15523ZM19.6299 3.21943C19.9808 4.08934 20.209 5.33776 20.209 7.02242C20.209 7.10861 20.2082 7.18742 20.2075 7.26713C18.8187 7.69266 17.3096 8.15466 15.7971 8.61817C16.6464 5.37603 18.2382 3.81012 19.6299 3.21943ZM17.9343 1.63166C18.1806 1.63166 18.4287 1.71439 18.6662 1.87608C16.8372 2.72745 14.8767 4.87169 14.0488 9.15371L10.5627 10.2218C11.5324 6.95566 13.8351 1.63166 17.9343 1.63166Z" fill="#95BF46"/>
<path d="M33.7023 8.28508C33.5416 8.27182 30.1404 8.02244 30.1404 8.02244C30.1404 8.02244 27.7783 5.70264 27.519 5.44588C27.422 5.35034 27.2911 5.30137 27.1543 5.28027L25.2461 43.8907L38.9194 40.9647C38.9194 40.9647 34.1189 8.86025 34.0888 8.64025C34.0581 8.42025 33.8633 8.29849 33.7023 8.28508Z" fill="#5E8E3E"/>
<path d="M20.6033 15.7594L18.9172 20.7208C18.9172 20.7208 17.4399 19.9409 15.629 19.9409C12.9742 19.9409 12.8406 21.5889 12.8406 22.0042C12.8406 24.2702 18.8119 25.1385 18.8119 30.4462C18.8119 34.6221 16.1344 37.3111 12.5243 37.3111C8.19203 37.3111 5.97656 34.644 5.97656 34.644L7.13654 30.8527C7.13654 30.8527 9.41386 32.7868 11.3355 32.7868C12.5911 32.7868 13.1019 31.8088 13.1019 31.0943C13.1019 28.1385 8.203 28.0066 8.203 23.1496C8.203 19.0616 11.1691 15.1057 17.1566 15.1057C19.4636 15.1057 20.6033 15.7594 20.6033 15.7594Z" fill="#F3F3F6"/>
</g>
<defs>
<clipPath id="clip0_40_7173">
<rect width="39" height="44" fill="white"/>
</clipPath>
</defs>
</svg>
