<svg width="32" height="32" viewBox="0 0 32 32" fill="none" xmlns="http://www.w3.org/2000/svg">
<path fill-rule="evenodd" clip-rule="evenodd" d="M16 23.5107L21.4065 26.31C21.6198 26.4203 21.8562 26.4787 22.0964 26.4803C22.3366 26.4818 22.5738 26.4266 22.7886 26.3191L27.3478 24.0395C27.6009 23.913 27.8138 23.7186 27.9626 23.478C28.1114 23.2374 28.1903 22.9601 28.1905 22.6772V18.4654C28.1903 18.1825 28.1114 17.9052 27.9626 17.6646C27.8138 17.424 27.6009 17.2296 27.3478 17.1031L22.0952 14.4761L16.8229 17.2067C16.5749 17.3352 16.367 17.5294 16.2218 17.768C16.0767 18.0067 16 18.2806 16 18.5599V23.5107Z" stroke="#05408E" stroke-width="1.5" stroke-linecap="round" stroke-linejoin="round"/>
<path fill-rule="evenodd" clip-rule="evenodd" d="M4.63145 23.9359L9.21507 26.31C9.42842 26.4204 9.66483 26.4787 9.90502 26.4803C10.1452 26.4819 10.3824 26.4267 10.5972 26.3192L15.9991 23.619V18.4655C15.9989 18.1826 15.92 17.9053 15.7712 17.6647C15.6224 17.4241 15.4095 17.2296 15.1564 17.1032L9.90383 14.4761L4.63145 17.2068C4.38346 17.3353 4.17555 17.5294 4.03043 17.7681C3.88531 18.0067 3.80857 18.2806 3.80859 18.5599V22.5828C3.80857 22.8621 3.88531 23.136 4.03043 23.3747C4.17555 23.6133 4.38346 23.8075 4.63145 23.9359ZM9.90383 14.3679L15.3103 17.1672C15.5237 17.2775 15.7601 17.3359 16.0003 17.3375C16.2405 17.339 16.4776 17.2838 16.6924 17.1763L22.0943 14.4761V9.32261C22.0942 9.03969 22.0152 8.76241 21.8664 8.52181C21.7176 8.2812 21.5047 8.08678 21.2516 7.96032L16.6924 5.6807C16.4776 5.57319 16.2405 5.51798 16.0003 5.51956C15.7601 5.52115 15.5237 5.5795 15.3103 5.68984L10.7267 8.06394C10.4787 8.19242 10.2708 8.38658 10.1257 8.62522C9.98055 8.86386 9.90381 9.13779 9.90383 9.41708V14.3679Z" stroke="#05408E" stroke-width="1.5" stroke-linecap="round" stroke-linejoin="round"/>
<path d="M10.4312 8.64453L15.318 11.0872C15.5295 11.1929 15.7627 11.2479 15.9992 11.2479C16.2356 11.2479 16.4688 11.1929 16.6803 11.0872L21.5154 8.67044M16.5264 17.7874L21.4133 20.2301C21.6248 20.3357 21.858 20.3908 22.0944 20.3908C22.3309 20.3908 22.5641 20.3357 22.7756 20.2301L27.6091 17.8133M4.33594 17.7874L9.22279 20.2301C9.4343 20.3357 9.6675 20.3908 9.90394 20.3908C10.1404 20.3908 10.3736 20.3357 10.5851 20.2301L15.4186 17.8133M15.9992 11.4285V17.5238M22.0944 20.5714V25.9047M9.90394 20.5714V25.9047" stroke="#05408E" stroke-width="1.5" stroke-linecap="round" stroke-linejoin="round"/>
</svg>
