<svg width="39" height="39" viewBox="0 0 39 39" fill="none" xmlns="http://www.w3.org/2000/svg">
<path d="M19.5003 39C8.69394 39 -0.0809395 30.3872 0.000563202 19.5C0.0820659 8.61275 8.28794 0 19.5003 0C30.7134 0 39 8.775 39 19.5C39 30.225 30.3066 39 19.5003 39ZM25.2687 35.9935L19.744 21.1247L14.5439 36.3188C18.3631 37.213 20.9628 37.456 25.2687 35.9935ZM11.7819 35.1815L3.49452 12.5128C2.35653 14.9503 2.11354 16.9818 1.95054 19.5C2.03204 26.162 5.76898 32.2557 11.7819 35.1815ZM36.9693 19.5C37.05 15.194 35.1008 11.7815 34.9378 11.294C35.1008 14.6258 34.6126 16.3312 34.0443 18.2005L28.3567 34.5318C35.5068 30.225 36.887 23.806 37.05 19.5H36.9693ZM18.9321 18.7688L16.1693 11.2125L14.1379 11.0503C13.3259 10.4813 13.8126 9.58775 14.3816 9.58775C18.0378 9.8315 20.0685 9.8315 23.7255 9.58775C24.6197 9.58775 24.8627 10.888 23.8062 11.0503L21.8562 11.2125L28.1929 29.8997L31.1986 19.6622C31.3616 15.194 30.1421 14.7065 28.5174 11.4563C27.2171 8.93725 28.5989 6.49975 31.1178 6.419C29.0856 4.469 24.9427 2.0315 19.4988 1.95C14.0548 1.8685 8.28642 4.63125 4.87397 9.8315L10.8869 9.66926C11.6181 9.99451 11.2929 11.0503 10.8869 11.1318L8.77468 11.294L15.1121 30.3065L18.9321 18.7688Z" fill="#62CAF9"/>
</svg>
