<svg width="48" height="22" viewBox="0 0 48 22" fill="none" xmlns="http://www.w3.org/2000/svg">
<path d="M0.96133 2.40683C1.25726 2.00622 1.70117 1.79536 2.29304 1.7532C3.37108 1.66886 3.98409 2.1749 4.13207 3.27133C4.78735 7.67819 5.50605 11.4101 6.26712 14.4676L10.8963 5.67515C11.3191 4.87391 11.8476 4.45221 12.4817 4.41004C13.4118 4.34679 13.9825 4.93716 14.215 6.18119C14.7435 8.98558 15.4199 11.3681 16.2232 13.3922C16.7728 8.03653 17.7029 4.17815 19.0135 1.7954C19.3306 1.20503 19.7956 0.909838 20.4086 0.867653C20.8948 0.825483 21.3387 0.973079 21.7403 1.28935C22.1419 1.60564 22.3533 2.00624 22.3956 2.4912C22.4167 2.87074 22.3533 3.187 22.1842 3.50328C21.3598 5.02141 20.6834 7.57279 20.1339 11.1149C19.6054 14.5518 19.4152 17.2296 19.542 19.1484C19.5843 19.6755 19.4997 20.1394 19.2883 20.54C19.0347 21.0038 18.6542 21.2569 18.168 21.299C17.6184 21.3412 17.0477 21.0882 16.4981 20.5189C14.5323 18.5158 12.968 15.5218 11.8266 11.5366C10.4527 14.2354 9.4381 16.2597 8.78282 17.6091C7.53567 19.9917 6.47877 21.2147 5.59091 21.2779C5.02017 21.32 4.53399 20.8351 4.11123 19.823C3.03318 17.0608 1.87056 11.7263 0.623371 3.8195C0.538818 3.27129 0.665647 2.78633 0.961574 2.40679L0.96133 2.40683ZM46.3882 5.71715C45.6272 4.38879 44.5069 3.58747 43.0062 3.27119C42.6046 3.18685 42.2241 3.14468 41.8647 3.14468C39.8355 3.14468 38.1867 4.19894 36.8973 6.30749C35.7981 8.09971 35.2485 10.0818 35.2485 12.2534C35.2485 13.877 35.5867 15.2685 36.2631 16.4283C37.0241 17.7566 38.1444 18.558 39.6452 18.8742C40.0468 18.9586 40.4273 19.0007 40.7866 19.0007C42.837 19.0007 44.4857 17.9465 45.754 15.8379C46.8532 14.0246 47.4028 12.0426 47.4028 9.87094C47.424 8.2263 47.0646 6.85584 46.3882 5.71715ZM43.7248 11.5577C43.4289 12.9493 42.9004 13.9824 42.1183 14.6784C41.5053 15.2266 40.9346 15.4585 40.4061 15.3531C39.8988 15.2477 39.476 14.8049 39.159 13.9826C38.9053 13.3289 38.7785 12.6753 38.7785 12.0638C38.7785 11.5367 38.8208 11.0096 38.9265 10.5246C39.1167 9.66014 39.4761 8.81674 40.0468 8.01546C40.7443 6.98229 41.4842 6.56059 42.2452 6.7082C42.7525 6.81362 43.1753 7.25641 43.4923 8.07872C43.746 8.73235 43.8728 9.38599 43.8728 9.99746C43.8728 10.5457 43.8305 11.0728 43.7248 11.5577ZM33.1556 5.71715C32.3947 4.38879 31.2532 3.58747 29.7736 3.27119C29.372 3.18685 28.9915 3.14468 28.6321 3.14468C26.6029 3.14468 24.9542 4.19894 23.6647 6.30749C22.5655 8.09971 22.0159 10.0818 22.0159 12.2534C22.0159 13.877 22.3541 15.2685 23.0306 16.4283C23.7915 17.7566 24.9119 18.558 26.4126 18.8742C26.8142 18.9586 27.1947 19.0007 27.5541 19.0007C29.6044 19.0007 31.2532 17.9465 32.5215 15.8379C33.6207 14.0246 34.1703 12.0426 34.1703 9.87094C34.1703 8.2263 33.8321 6.85584 33.1556 5.71715ZM30.4711 11.5577C30.1752 12.9493 29.6467 13.9824 28.8646 14.6784C28.2516 15.2266 27.6809 15.4585 27.1524 15.3531C26.6451 15.2477 26.2223 14.8049 25.9053 13.9826C25.6516 13.3289 25.5248 12.6753 25.5248 12.0638C25.5248 11.5367 25.5671 11.0096 25.6728 10.5246C25.863 9.66014 26.2224 8.81674 26.7931 8.01546C27.4906 6.98229 28.2305 6.56059 28.9915 6.7082C29.4988 6.81362 29.9216 7.25641 30.2386 8.07872C30.4923 8.73235 30.6191 9.38599 30.6191 9.99746C30.6403 10.5457 30.5768 11.0728 30.4711 11.5577Z" fill="white"/>
</svg>
