<svg width="43" height="31" viewBox="0 0 43 31" fill="none" xmlns="http://www.w3.org/2000/svg">
<path fill-rule="evenodd" clip-rule="evenodd" d="M9.22353 0C6.82707 0 5.0538 1.94347 5.13321 4.05111C5.20941 6.07597 5.1104 8.69847 4.39788 10.8371C3.68281 12.9818 2.47433 14.3408 0.5 14.5153V16.4847C2.47433 16.6595 3.68281 18.0179 4.3978 20.1629C5.1104 22.3015 5.20933 24.924 5.13312 26.9489C5.05372 29.0562 6.82699 31 9.22386 31H33.7797C36.1761 31 37.9491 29.0565 37.8697 26.9489C37.7935 24.924 37.8925 22.3015 38.605 20.1629C39.3201 18.0179 40.5256 16.659 42.5 16.4847V14.5153C40.5257 14.3405 39.3201 12.9821 38.605 10.8371C37.8924 8.69878 37.7935 6.07597 37.8697 4.05111C37.9491 1.94377 36.1761 0 33.7797 0H9.2232H9.22353ZM28.9746 19.0825C28.9746 21.9847 26.6383 23.7447 22.7611 23.7447H16.161C15.9722 23.7447 15.7911 23.6752 15.6576 23.5515C15.5241 23.4278 15.4491 23.2601 15.4491 23.0851V7.91493C15.4491 7.74 15.5241 7.57224 15.6576 7.44854C15.7911 7.32485 15.9722 7.25535 16.161 7.25535H22.7235C25.9564 7.25535 28.0782 8.87792 28.0782 11.3691C28.0782 13.1176 26.6508 14.6829 24.8324 14.9572V15.0484C27.3078 15.3 28.9746 16.8885 28.9746 19.0825ZM22.0414 9.3462H18.2781V14.2714H21.4477C23.898 14.2714 25.2491 13.3572 25.2491 11.7231C25.2488 10.1918 24.0873 9.3462 22.0414 9.3462ZM18.2781 16.2255V21.6532H22.1799C24.731 21.6532 26.0823 20.7047 26.0823 18.9222C26.0823 17.1397 24.6931 16.2252 22.0158 16.2252H18.2781V16.2255Z" fill="#7952B3"/>
</svg>
