<svg width="28" height="26" viewBox="0 0 28 26" fill="none" xmlns="http://www.w3.org/2000/svg">
<path d="M17.7183 9.57145C18.4003 9.57145 19.0543 9.84236 19.5366 10.3246C20.0188 10.8068 20.2897 11.4609 20.2897 12.1429V19.2846C20.2897 20.952 19.6274 22.5511 18.4484 23.7301C17.2693 24.9091 15.6703 25.5714 14.0029 25.5714C12.3355 25.5714 10.7364 24.9091 9.55739 23.7301C8.37838 22.5511 7.71602 20.952 7.71602 19.2846V12.1429C7.71602 11.4609 7.98693 10.8068 8.46917 10.3246C8.95141 9.84236 9.60546 9.57145 10.2874 9.57145H17.7183ZM17.7183 11.2857H10.2874C10.0601 11.2857 9.8421 11.376 9.68135 11.5368C9.52061 11.6975 9.4303 11.9155 9.4303 12.1429V19.2846C9.4303 20.4973 9.91205 21.6604 10.7696 22.5179C11.6271 23.3754 12.7902 23.8572 14.0029 23.8572C15.2156 23.8572 16.3786 23.3754 17.2362 22.5179C18.0937 21.6604 18.5754 20.4973 18.5754 19.2846V12.1429C18.5754 11.9155 18.4851 11.6975 18.3244 11.5368C18.1636 11.376 17.9456 11.2857 17.7183 11.2857ZM2.85659 9.57145H7.6063C7.14733 10.0491 6.82489 10.6411 6.67259 11.2857H2.85659C2.62926 11.2857 2.41124 11.376 2.25049 11.5368C2.08975 11.6975 1.99944 11.9155 1.99944 12.1429V18.1417C1.99899 18.7153 2.14243 19.2798 2.41662 19.7835C2.69082 20.2873 3.087 20.7142 3.56891 21.0252C4.05081 21.3362 4.60303 21.5213 5.17501 21.5636C5.74699 21.606 6.32044 21.5041 6.84287 21.2674C6.99487 21.8274 7.21316 22.36 7.48744 22.8583C6.70446 23.2005 5.84855 23.3422 4.99706 23.2706C4.14557 23.199 3.32535 22.9163 2.6105 22.4482C1.89565 21.9801 1.30871 21.3412 0.902721 20.5893C0.49673 19.8374 0.284483 18.9962 0.285158 18.1417V12.1429C0.285158 11.4609 0.556075 10.8068 1.03831 10.3246C1.52055 9.84236 2.1746 9.57145 2.85659 9.57145ZM25.1423 9.57145C25.8243 9.57145 26.4783 9.84236 26.9606 10.3246C27.4428 10.8068 27.7137 11.4609 27.7137 12.1429V18.1429C27.7141 18.9968 27.5018 19.8373 27.096 20.5887C26.6903 21.34 26.1039 21.9785 25.3896 22.4465C24.6754 22.9145 23.8559 23.1973 23.0051 23.2694C22.1542 23.3415 21.2988 23.2006 20.516 22.8594L20.58 22.7429C20.8246 22.2789 21.0223 21.7863 21.164 21.2697C21.6862 21.5047 22.2589 21.6051 22.8298 21.5619C23.4008 21.5186 23.9518 21.3331 24.4326 21.0222C24.9134 20.7112 25.3087 20.2848 25.5824 19.7819C25.8561 19.2789 25.9995 18.7155 25.9994 18.1429V12.1429C25.9994 11.9157 25.9093 11.6979 25.7488 11.5372C25.5883 11.3765 25.3706 11.286 25.1434 11.2857H21.3343C21.1817 10.641 20.8588 10.0489 20.3994 9.57145H25.1423ZM13.9994 0.428589C14.5247 0.428589 15.0449 0.532052 15.5302 0.733071C16.0155 0.934089 16.4564 1.22873 16.8279 1.60016C17.1993 1.9716 17.4939 2.41255 17.695 2.89786C17.896 3.38316 17.9994 3.9033 17.9994 4.42859C17.9994 4.95388 17.896 5.47402 17.695 5.95932C17.4939 6.44463 17.1993 6.88558 16.8279 7.25702C16.4564 7.62845 16.0155 7.92309 15.5302 8.12411C15.0449 8.32513 14.5247 8.42859 13.9994 8.42859C12.9386 8.42859 11.9212 8.00716 11.171 7.25702C10.4209 6.50687 9.99944 5.48946 9.99944 4.42859C9.99944 3.36772 10.4209 2.35031 11.171 1.60016C11.9212 0.850016 12.9386 0.428589 13.9994 0.428589ZM23.1457 1.57145C23.596 1.57145 24.0418 1.66013 24.4578 1.83243C24.8738 2.00473 25.2517 2.25728 25.5701 2.57565C25.8885 2.89402 26.141 3.27199 26.3133 3.68796C26.4856 4.10393 26.5743 4.54977 26.5743 5.00002C26.5743 5.45026 26.4856 5.8961 26.3133 6.31208C26.141 6.72805 25.8885 7.10601 25.5701 7.42438C25.2517 7.74276 24.8738 7.9953 24.4578 8.1676C24.0418 8.33991 23.596 8.42859 23.1457 8.42859C22.2364 8.42859 21.3643 8.06737 20.7214 7.42438C20.0784 6.7814 19.7172 5.90933 19.7172 5.00002C19.7172 4.0907 20.0784 3.21863 20.7214 2.57565C21.3643 1.93267 22.2364 1.57145 23.1457 1.57145ZM4.85316 1.57145C5.3034 1.57145 5.74924 1.66013 6.16522 1.83243C6.58119 2.00473 6.95915 2.25728 7.27752 2.57565C7.5959 2.89402 7.84844 3.27199 8.02075 3.68796C8.19305 4.10393 8.28173 4.54977 8.28173 5.00002C8.28173 5.45026 8.19305 5.8961 8.02075 6.31208C7.84844 6.72805 7.5959 7.10601 7.27752 7.42438C6.95915 7.74276 6.58119 7.9953 6.16522 8.1676C5.74924 8.33991 5.3034 8.42859 4.85316 8.42859C3.94384 8.42859 3.07177 8.06737 2.42879 7.42438C1.78581 6.7814 1.42459 5.90933 1.42459 5.00002C1.42459 4.0907 1.78581 3.21863 2.42879 2.57565C3.07177 1.93267 3.94384 1.57145 4.85316 1.57145ZM13.9994 2.14287C13.3932 2.14287 12.8119 2.38369 12.3832 2.81234C11.9545 3.241 11.7137 3.82238 11.7137 4.42859C11.7137 5.0348 11.9545 5.61618 12.3832 6.04483C12.8119 6.47349 13.3932 6.7143 13.9994 6.7143C14.6057 6.7143 15.187 6.47349 15.6157 6.04483C16.0443 5.61618 16.2852 5.0348 16.2852 4.42859C16.2852 3.82238 16.0443 3.241 15.6157 2.81234C15.187 2.38369 14.6057 2.14287 13.9994 2.14287ZM23.1457 3.28573C22.9206 3.28573 22.6977 3.33007 22.4897 3.41622C22.2817 3.50237 22.0927 3.62865 21.9335 3.78783C21.7744 3.94702 21.6481 4.136 21.5619 4.34399C21.4758 4.55198 21.4314 4.77489 21.4314 5.00002C21.4314 5.22514 21.4758 5.44806 21.5619 5.65605C21.6481 5.86403 21.7744 6.05301 21.9335 6.2122C22.0927 6.37139 22.2817 6.49766 22.4897 6.58381C22.6977 6.66996 22.9206 6.7143 23.1457 6.7143C23.6004 6.7143 24.0364 6.53369 24.3579 6.2122C24.6794 5.89071 24.86 5.45467 24.86 5.00002C24.86 4.54536 24.6794 4.10933 24.3579 3.78783C24.0364 3.46634 23.6004 3.28573 23.1457 3.28573ZM4.85316 3.28573C4.62804 3.28573 4.40512 3.33007 4.19713 3.41622C3.98914 3.50237 3.80016 3.62865 3.64097 3.78783C3.48179 3.94702 3.35552 4.136 3.26936 4.34399C3.18321 4.55198 3.13887 4.77489 3.13887 5.00002C3.13887 5.22514 3.18321 5.44806 3.26936 5.65605C3.35552 5.86403 3.48179 6.05301 3.64097 6.2122C3.80016 6.37139 3.98914 6.49766 4.19713 6.58381C4.40512 6.66996 4.62804 6.7143 4.85316 6.7143C5.30782 6.7143 5.74385 6.53369 6.06534 6.2122C6.38683 5.89071 6.56744 5.45467 6.56744 5.00002C6.56744 4.54536 6.38683 4.10933 6.06534 3.78783C5.74385 3.46634 5.30782 3.28573 4.85316 3.28573Z" fill="white"/>
</svg>
