<svg width="52" height="31" viewBox="0 0 52 31" fill="none" xmlns="http://www.w3.org/2000/svg">
<g clip-path="url(#clip0_41_7195)">
<path d="M4.8258 0H47.153C49.8316 0 52.0002 2.16291 52.0002 4.83499V20.9513C52.0002 23.6232 49.8318 25.7863 47.153 25.7863H31.9741L34.0575 30.8756L24.8947 25.7863H4.84733C2.16872 25.7863 0.000154987 23.6234 0.000154987 20.9513V4.83499C-0.0211041 2.18418 2.14719 0 4.8258 0Z" fill="#7F54B3"/>
<path d="M2.96133 4.40683C3.25726 4.00622 3.70117 3.79536 4.29304 3.7532C5.37108 3.66886 5.98409 4.1749 6.13207 5.27133C6.78735 9.67819 7.50605 13.4101 8.26712 16.4676L12.8963 7.67515C13.3191 6.87391 13.8476 6.45221 14.4817 6.41004C15.4118 6.34679 15.9825 6.93716 16.215 8.18119C16.7435 10.9856 17.4199 13.3681 18.2232 15.3922C18.7728 10.0365 19.7029 6.17815 21.0135 3.7954C21.3306 3.20503 21.7956 2.90984 22.4086 2.86765C22.8948 2.82548 23.3387 2.97308 23.7403 3.28935C24.1419 3.60564 24.3533 4.00624 24.3956 4.4912C24.4167 4.87074 24.3533 5.187 24.1842 5.50328C23.3598 7.02141 22.6834 9.57279 22.1339 13.1149C21.6054 16.5518 21.4152 19.2296 21.542 21.1484C21.5843 21.6755 21.4997 22.1394 21.2883 22.54C21.0347 23.0038 20.6542 23.2569 20.168 23.299C19.6184 23.3412 19.0477 23.0882 18.4981 22.5189C16.5323 20.5158 14.968 17.5218 13.8266 13.5366C12.4527 16.2354 11.4381 18.2597 10.7828 19.6091C9.53567 21.9917 8.47877 23.2147 7.59091 23.2779C7.02017 23.32 6.53399 22.8351 6.11123 21.823C5.03318 19.0608 3.87056 13.7263 2.62337 5.8195C2.53882 5.27129 2.66565 4.78633 2.96157 4.40679L2.96133 4.40683ZM48.3882 7.71715C47.6272 6.38879 46.5069 5.58747 45.0062 5.27119C44.6046 5.18685 44.2241 5.14468 43.8647 5.14468C41.8355 5.14468 40.1867 6.19894 38.8973 8.30749C37.7981 10.0997 37.2485 12.0818 37.2485 14.2534C37.2485 15.877 37.5867 17.2685 38.2631 18.4283C39.0241 19.7566 40.1444 20.558 41.6452 20.8742C42.0468 20.9586 42.4273 21.0007 42.7866 21.0007C44.837 21.0007 46.4857 19.9465 47.754 17.8379C48.8532 16.0246 49.4028 14.0426 49.4028 11.8709C49.424 10.2263 49.0646 8.85584 48.3882 7.71715ZM45.7248 13.5577C45.4289 14.9493 44.9004 15.9824 44.1183 16.6784C43.5053 17.2266 42.9346 17.4585 42.4061 17.3531C41.8988 17.2477 41.476 16.8049 41.159 15.9826C40.9053 15.3289 40.7785 14.6753 40.7785 14.0638C40.7785 13.5367 40.8208 13.0096 40.9265 12.5246C41.1167 11.6601 41.4761 10.8167 42.0468 10.0155C42.7443 8.98229 43.4842 8.56059 44.2452 8.7082C44.7525 8.81362 45.1753 9.25641 45.4923 10.0787C45.746 10.7324 45.8728 11.386 45.8728 11.9975C45.8728 12.5457 45.8305 13.0728 45.7248 13.5577ZM35.1556 7.71715C34.3947 6.38879 33.2532 5.58747 31.7736 5.27119C31.372 5.18685 30.9915 5.14468 30.6321 5.14468C28.6029 5.14468 26.9542 6.19894 25.6647 8.30749C24.5655 10.0997 24.0159 12.0818 24.0159 14.2534C24.0159 15.877 24.3541 17.2685 25.0306 18.4283C25.7915 19.7566 26.9119 20.558 28.4126 20.8742C28.8142 20.9586 29.1947 21.0007 29.5541 21.0007C31.6044 21.0007 33.2532 19.9465 34.5215 17.8379C35.6207 16.0246 36.1703 14.0426 36.1703 11.8709C36.1703 10.2263 35.8321 8.85584 35.1556 7.71715ZM32.4711 13.5577C32.1752 14.9493 31.6467 15.9824 30.8646 16.6784C30.2516 17.2266 29.6809 17.4585 29.1524 17.3531C28.6451 17.2477 28.2223 16.8049 27.9053 15.9826C27.6516 15.3289 27.5248 14.6753 27.5248 14.0638C27.5248 13.5367 27.5671 13.0096 27.6728 12.5246C27.863 11.6601 28.2224 10.8167 28.7931 10.0155C29.4906 8.98229 30.2305 8.56059 30.9915 8.7082C31.4988 8.81362 31.9216 9.25641 32.2386 10.0787C32.4923 10.7324 32.6191 11.386 32.6191 11.9975C32.6403 12.5457 32.5768 13.0728 32.4711 13.5577Z" fill="white"/>
</g>
<defs>
<clipPath id="clip0_41_7195">
<rect width="52" height="31" fill="white"/>
</clipPath>
</defs>
</svg>
