<svg width="39" height="39" viewBox="0 0 39 39" fill="none" xmlns="http://www.w3.org/2000/svg">
<path d="M19.5003 38.5C8.97101 38.5 0.421136 30.1081 0.500549 19.5C0.579962 8.89191 8.57543 0.5 19.5003 0.5C30.4259 0.5 38.5 9.05 38.5 19.5C38.5 29.95 30.0295 38.5 19.5003 38.5ZM25.1208 35.5706L19.7378 21.0831L14.6709 35.8875C18.3922 36.7588 20.9253 36.9956 25.1208 35.5706ZM11.9798 34.7794L3.90491 12.6919C2.7961 15.0669 2.55935 17.0463 2.40052 19.5C2.47993 25.9912 6.12105 31.9287 11.9798 34.7794ZM36.5214 19.5C36.6 15.3044 34.7008 11.9794 34.542 11.5044C34.7008 14.7507 34.2251 16.4125 33.6714 18.2338L28.1296 34.1463C35.0964 29.95 36.4412 23.6956 36.6 19.5H36.5214ZM18.9466 18.7875L16.2547 11.425L14.2754 11.2669C13.4842 10.7125 13.9584 9.84191 14.5128 9.84191C18.0753 10.0794 20.0539 10.0794 23.6171 9.84191C24.4884 9.84191 24.7252 11.1088 23.6958 11.2669L21.7958 11.425L27.97 29.6331L30.8986 19.6581C31.0575 15.3044 29.8692 14.8294 28.2862 11.6625C27.0193 9.20809 28.3656 6.83309 30.82 6.75441C28.8398 4.85441 24.8031 2.47941 19.4988 2.4C14.1945 2.32059 8.57395 5.0125 5.249 10.0794L11.1077 9.92133C11.8202 10.2382 11.5033 11.2669 11.1077 11.3463L9.04968 11.5044L15.2246 30.0294L18.9466 18.7875Z" fill="#21759B"/>
</svg>
